<svg width="131" height="16" viewBox="0 0 131 16" fill="none" xmlns="http://www.w3.org/2000/svg">
<path d="M0.912734 15L8.67273 0.719999H10.5527L12.3127 15H10.5527L10.0127 10.56H5.19273L2.87273 15H0.912734ZM6.05273 8.96H9.83273L9.51273 5.96C9.4594 5.45333 9.40607 4.89333 9.35273 4.28C9.31273 3.66667 9.28607 3.12667 9.27273 2.66H9.21273C8.9994 3.16667 8.75273 3.71333 8.47273 4.3C8.19273 4.87333 7.8994 5.45333 7.59273 6.04L6.05273 8.96ZM19.2232 15.2C18.4365 15.2 17.7432 15.0533 17.1432 14.76C16.5432 14.4667 16.0765 14.0267 15.7432 13.44C15.4099 12.84 15.2432 12.0933 15.2432 11.2C15.2432 10.4267 15.3232 9.69333 15.4832 9C15.6565 8.29333 15.9032 7.64 16.2232 7.04C16.5432 6.44 16.9299 5.92 17.3832 5.48C17.8365 5.04 18.3499 4.7 18.9232 4.46C19.5099 4.20667 20.1499 4.08 20.8432 4.08C21.3099 4.08 21.7765 4.12667 22.2432 4.22C22.7099 4.31333 23.1299 4.44 23.5032 4.6L23.0032 6.06C22.7365 5.94 22.4165 5.82667 22.0432 5.72C21.6832 5.61333 21.2899 5.56 20.8632 5.56C20.4099 5.56 19.9832 5.66 19.5832 5.86C19.1965 6.04667 18.8432 6.31333 18.5232 6.66C18.2165 7.00667 17.9499 7.42 17.7232 7.9C17.5099 8.36667 17.3432 8.88 17.2232 9.44C17.1032 9.98667 17.0432 10.5667 17.0432 11.18C17.0432 11.7133 17.1365 12.1733 17.3232 12.56C17.5099 12.9467 17.7765 13.24 18.1232 13.44C18.4832 13.64 18.9099 13.74 19.4032 13.74C19.8699 13.74 20.3099 13.6733 20.7232 13.54C21.1499 13.4067 21.5699 13.2533 21.9832 13.08V14.56C21.6099 14.7467 21.1899 14.9 20.7232 15.02C20.2699 15.14 19.7699 15.2 19.2232 15.2ZM28.0457 15.2C27.3257 15.2 26.719 15.0267 26.2257 14.68C25.7324 14.3333 25.4857 13.7267 25.4857 12.86C25.4857 12.66 25.499 12.44 25.5257 12.2C25.5657 11.9467 25.6124 11.6933 25.6657 11.44L26.8857 5.62H25.2257L25.3857 4.82L27.1857 4.06L28.4257 1.84H29.4657L28.9257 4.28H31.6257L31.3457 5.62H28.6657L27.4257 11.46C27.3857 11.6333 27.3457 11.8333 27.3057 12.06C27.2657 12.2733 27.2457 12.4733 27.2457 12.66C27.2457 12.9667 27.3257 13.2267 27.4857 13.44C27.659 13.6533 27.9324 13.76 28.3057 13.76C28.5457 13.76 28.779 13.74 29.0057 13.7C29.2324 13.6467 29.4724 13.58 29.7257 13.5V14.84C29.5657 14.92 29.319 15 28.9857 15.08C28.6524 15.16 28.339 15.2 28.0457 15.2ZM32.5463 15L34.8263 4.28H36.5863L34.3063 15H32.5463ZM36.2463 2.5C35.9663 2.5 35.733 2.42 35.5463 2.26C35.373 2.08667 35.2863 1.85333 35.2863 1.56C35.2863 1.33333 35.333 1.12667 35.4263 0.94C35.5197 0.739999 35.653 0.579999 35.8263 0.459999C35.9997 0.339999 36.213 0.279999 36.4663 0.279999C36.773 0.279999 36.9997 0.359999 37.1463 0.519999C37.3063 0.68 37.3863 0.9 37.3863 1.18C37.3863 1.59333 37.2663 1.92 37.0263 2.16C36.7863 2.38667 36.5263 2.5 36.2463 2.5ZM40.3426 15L39.1026 4.28H40.8626L41.4626 10.24C41.5026 10.5867 41.5359 10.9933 41.5626 11.46C41.6026 11.9267 41.6292 12.3667 41.6426 12.78C41.6692 13.18 41.6826 13.4733 41.6826 13.66H41.7426C41.8892 13.3267 42.0626 12.9467 42.2626 12.52C42.4626 12.0933 42.6626 11.6667 42.8626 11.24C43.0759 10.8133 43.2559 10.46 43.4026 10.18L46.5626 4.28H48.4426L42.6426 15H40.3426ZM53.3185 15.2C52.4918 15.2 51.7852 15.04 51.1985 14.72C50.6252 14.3867 50.1852 13.92 49.8785 13.32C49.5852 12.7067 49.4385 11.9867 49.4385 11.16C49.4385 10.3067 49.5585 9.46667 49.7985 8.64C50.0518 7.8 50.4118 7.04 50.8785 6.36C51.3452 5.66667 51.9052 5.11333 52.5585 4.7C53.2252 4.28667 53.9718 4.08 54.7985 4.08C55.8118 4.08 56.5718 4.3 57.0785 4.74C57.5985 5.18 57.8585 5.79333 57.8585 6.58C57.8585 7.1 57.7385 7.59333 57.4985 8.06C57.2585 8.51333 56.8852 8.91333 56.3785 9.26C55.8718 9.60667 55.2252 9.88 54.4385 10.08C53.6518 10.2667 52.7052 10.36 51.5985 10.36H51.2585C51.2452 10.48 51.2318 10.6067 51.2185 10.74C51.2185 10.8733 51.2185 10.9933 51.2185 11.1C51.2185 11.9133 51.4185 12.56 51.8185 13.04C52.2185 13.5067 52.8252 13.74 53.6385 13.74C54.1452 13.74 54.6252 13.6667 55.0785 13.52C55.5318 13.3733 56.0252 13.1733 56.5585 12.92V14.42C56.0518 14.6467 55.5518 14.8333 55.0585 14.98C54.5785 15.1267 53.9985 15.2 53.3185 15.2ZM51.6585 8.94C52.4585 8.94 53.1985 8.87333 53.8785 8.74C54.5585 8.59333 55.1052 8.36 55.5185 8.04C55.9318 7.70667 56.1385 7.26667 56.1385 6.72C56.1385 6.37333 56.0185 6.09333 55.7785 5.88C55.5518 5.65333 55.1918 5.54 54.6985 5.54C54.2718 5.54 53.8518 5.67333 53.4385 5.94C53.0252 6.20667 52.6518 6.59333 52.3185 7.1C51.9852 7.60667 51.7185 8.22 51.5185 8.94H51.6585ZM71.9204 15.2C70.8937 15.2 70.0071 14.9733 69.2604 14.52C68.5137 14.0667 67.9404 13.4267 67.5404 12.6C67.1537 11.7733 66.9604 10.8 66.9604 9.68C66.9604 8.70667 67.0737 7.76667 67.3004 6.86C67.5271 5.95333 67.8604 5.12 68.3004 4.36C68.7404 3.58667 69.2737 2.91333 69.9004 2.34C70.5404 1.76667 71.2604 1.32 72.0604 0.999999C72.8604 0.679999 73.7404 0.519999 74.7004 0.519999C75.3537 0.519999 75.9537 0.586666 76.5004 0.719999C77.0604 0.839999 77.5804 1.02667 78.0604 1.28L77.5804 2.28C77.1671 2.04 76.7204 1.86 76.2404 1.74C75.7604 1.62 75.2471 1.56 74.7004 1.56C73.8871 1.56 73.1404 1.7 72.4604 1.98C71.7804 2.26 71.1737 2.65333 70.6404 3.16C70.1204 3.65333 69.6737 4.24 69.3004 4.92C68.9271 5.58667 68.6404 6.32667 68.4404 7.14C68.2537 7.94 68.1604 8.77333 68.1604 9.64C68.1604 11.04 68.5071 12.1467 69.2004 12.96C69.9071 13.76 70.8671 14.16 72.0804 14.16C72.6937 14.16 73.2737 14.1067 73.8204 14C74.3804 13.8933 74.9071 13.7533 75.4004 13.58V14.58C74.9204 14.7667 74.4004 14.9133 73.8404 15.02C73.2804 15.14 72.6404 15.2 71.9204 15.2ZM83.0568 15.18C82.2435 15.18 81.5501 15.0133 80.9768 14.68C80.4035 14.3467 79.9701 13.8733 79.6768 13.26C79.3968 12.6333 79.2568 11.9133 79.2568 11.1C79.2568 10.3533 79.3368 9.64 79.4968 8.96C79.6568 8.26667 79.8901 7.63333 80.1968 7.06C80.5168 6.47333 80.8968 5.96667 81.3368 5.54C81.7768 5.11333 82.2768 4.78667 82.8368 4.56C83.4101 4.32 84.0301 4.2 84.6968 4.2C85.5101 4.2 86.1968 4.37333 86.7568 4.72C87.3168 5.05333 87.7435 5.52667 88.0368 6.14C88.3301 6.74 88.4768 7.44667 88.4768 8.26C88.4768 8.96667 88.3968 9.66 88.2368 10.34C88.0901 11.0067 87.8635 11.6333 87.5568 12.22C87.2635 12.8067 86.8968 13.32 86.4568 13.76C86.0301 14.2 85.5301 14.5467 84.9568 14.8C84.3835 15.0533 83.7501 15.18 83.0568 15.18ZM83.1368 14.2C83.6435 14.2 84.1101 14.1067 84.5368 13.92C84.9635 13.7333 85.3435 13.4667 85.6768 13.12C86.0235 12.76 86.3168 12.3333 86.5568 11.84C86.7968 11.3333 86.9835 10.7733 87.1168 10.16C87.2501 9.53333 87.3168 8.86667 87.3168 8.16C87.3168 7.61333 87.2235 7.11333 87.0368 6.66C86.8501 6.20667 86.5635 5.84667 86.1768 5.58C85.7901 5.3 85.2901 5.16 84.6768 5.16C84.1835 5.16 83.7168 5.26 83.2768 5.46C82.8368 5.64667 82.4368 5.92 82.0768 6.28C81.7301 6.62667 81.4301 7.04667 81.1768 7.54C80.9235 8.03333 80.7301 8.58 80.5968 9.18C80.4635 9.78 80.3968 10.4333 80.3968 11.14C80.3968 12.0867 80.6301 12.8333 81.0968 13.38C81.5635 13.9267 82.2435 14.2 83.1368 14.2ZM94.3059 15.2C93.7459 15.2 93.2592 15.1 92.8459 14.9C92.4459 14.7 92.1392 14.4067 91.9259 14.02C91.7125 13.62 91.6059 13.14 91.6059 12.58C91.6059 12.3267 91.6192 12.0733 91.6459 11.82C91.6859 11.5667 91.7325 11.3133 91.7859 11.06L93.2059 4.36H94.3659L92.9059 11.18C92.8525 11.4333 92.8125 11.6667 92.7859 11.88C92.7592 12.08 92.7459 12.2667 92.7459 12.44C92.7459 13.0267 92.8992 13.4733 93.2059 13.78C93.5259 14.0733 93.9859 14.22 94.5859 14.22C95.1859 14.22 95.7792 14.0267 96.3659 13.64C96.9659 13.2533 97.4925 12.7067 97.9459 12C98.4125 11.28 98.7525 10.42 98.9659 9.42L100.046 4.36H101.166L98.9059 15H97.9659L98.3659 12.62H98.2859C98.0592 12.98 97.7525 13.3667 97.3659 13.78C96.9925 14.18 96.5525 14.52 96.0459 14.8C95.5392 15.0667 94.9592 15.2 94.3059 15.2ZM103.434 15L105.694 4.36H106.634L106.234 6.74H106.314C106.554 6.36667 106.841 5.98667 107.174 5.6C107.521 5.2 107.921 4.86667 108.374 4.6C108.827 4.32 109.334 4.18 109.894 4.18C110.107 4.18 110.314 4.19333 110.514 4.22C110.714 4.24667 110.901 4.28667 111.074 4.34L110.814 5.36C110.667 5.32 110.507 5.28667 110.334 5.26C110.161 5.23333 109.974 5.22 109.774 5.22C109.294 5.22 108.834 5.35333 108.394 5.62C107.954 5.87333 107.547 6.22 107.174 6.66C106.814 7.08667 106.501 7.58 106.234 8.14C105.967 8.7 105.774 9.28 105.654 9.88L104.574 15H103.434ZM114.71 15.2C114.03 15.2 113.436 15.1267 112.93 14.98C112.436 14.8333 112.023 14.6667 111.69 14.48V13.38C112.063 13.6067 112.51 13.8067 113.03 13.98C113.563 14.1533 114.116 14.24 114.69 14.24C115.316 14.24 115.83 14.1533 116.23 13.98C116.63 13.8067 116.93 13.5667 117.13 13.26C117.33 12.94 117.43 12.58 117.43 12.18C117.43 11.82 117.343 11.52 117.17 11.28C117.01 11.0267 116.776 10.8 116.47 10.6C116.176 10.4 115.816 10.1867 115.39 9.96C114.91 9.69333 114.49 9.43333 114.13 9.18C113.783 8.91333 113.503 8.61333 113.29 8.28C113.09 7.94667 112.99 7.54 112.99 7.06C112.99 6.43333 113.143 5.90667 113.45 5.48C113.756 5.04 114.176 4.71333 114.71 4.5C115.256 4.27333 115.87 4.16 116.55 4.16C117.19 4.16 117.763 4.23333 118.27 4.38C118.79 4.51333 119.236 4.66667 119.61 4.84L119.25 5.78C118.916 5.60667 118.516 5.46 118.05 5.34C117.596 5.20667 117.096 5.14 116.55 5.14C115.843 5.14 115.263 5.3 114.81 5.62C114.356 5.92667 114.13 6.38667 114.13 7C114.13 7.32 114.203 7.59333 114.35 7.82C114.51 8.04667 114.736 8.26 115.03 8.46C115.336 8.64667 115.703 8.86 116.13 9.1C116.57 9.35333 116.976 9.60667 117.35 9.86C117.723 10.1133 118.023 10.4133 118.25 10.76C118.476 11.1067 118.59 11.5467 118.59 12.08C118.59 12.7067 118.436 13.2533 118.13 13.72C117.836 14.1867 117.403 14.5533 116.83 14.82C116.256 15.0733 115.55 15.2 114.71 15.2ZM125.925 15.2C125.205 15.2 124.558 15.0533 123.985 14.76C123.412 14.4533 122.958 14 122.625 13.4C122.305 12.8 122.145 12.0467 122.145 11.14C122.145 10.2333 122.272 9.36667 122.525 8.54C122.792 7.7 123.165 6.95333 123.645 6.3C124.138 5.63333 124.712 5.11333 125.365 4.74C126.018 4.35333 126.745 4.16 127.545 4.16C128.412 4.16 129.085 4.38 129.565 4.82C130.058 5.24667 130.305 5.82 130.305 6.54C130.305 7.14 130.158 7.66667 129.865 8.12C129.572 8.56 129.145 8.92667 128.585 9.22C128.038 9.51333 127.365 9.74 126.565 9.9C125.778 10.0467 124.878 10.12 123.865 10.12H123.365C123.352 10.2533 123.338 10.4133 123.325 10.6C123.312 10.7733 123.305 10.9467 123.305 11.12C123.305 12.1067 123.552 12.8733 124.045 13.42C124.538 13.9533 125.232 14.22 126.125 14.22C126.672 14.22 127.172 14.1467 127.625 14C128.078 13.8533 128.518 13.68 128.945 13.48V14.5C128.545 14.6867 128.092 14.8533 127.585 15C127.092 15.1333 126.538 15.2 125.925 15.2ZM124.085 9.16C125.045 9.16 125.912 9.08 126.685 8.92C127.458 8.74667 128.065 8.47333 128.505 8.1C128.958 7.71333 129.185 7.22 129.185 6.62C129.185 6.19333 129.038 5.84 128.745 5.56C128.465 5.28 128.032 5.14 127.445 5.14C126.912 5.14 126.378 5.3 125.845 5.62C125.325 5.92667 124.858 6.38 124.445 6.98C124.032 7.58 123.725 8.30667 123.525 9.16H124.085Z" fill="#F59500"/>
</svg>
