<svg width="699" height="962" viewBox="0 0 699 962" fill="none" xmlns="http://www.w3.org/2000/svg">
<path d="M101.95 911.302C98.8296 925.683 99.1241 953.11 133.092 961.37C164.96 958.582 160.118 942.166 187.388 951.903C197.7 957.456 207.799 959.84 217.663 958.977C227.527 958.114 237.058 954.013 246.249 946.754C255.202 939.682 264.368 935.776 273.754 934.955C283.14 934.134 292.844 936.389 302.889 941.798C313.201 947.351 323.299 949.735 333.163 948.872C343.028 948.009 352.559 943.908 361.749 936.649C370.703 929.577 379.868 925.671 389.254 924.85C398.64 924.029 408.345 926.284 418.39 931.693C428.701 937.246 438.8 939.63 448.664 938.767C458.528 937.904 468.06 933.803 477.25 926.544C486.203 919.472 495.369 915.566 504.755 914.745C514.141 913.924 523.845 916.179 533.89 921.588C544.202 927.141 554.301 929.525 564.165 928.662C574.029 927.799 583.56 923.698 592.751 916.439C601.704 909.367 610.87 905.461 620.255 904.64C629.641 903.819 639.346 906.074 649.391 911.483C659.703 917.036 682.794 908.238 689.692 898.565C702.153 881.091 686.527 861.068 678.559 829.452C670.592 797.837 700.314 783.949 698.103 768.619C695.892 753.29 688.002 738.784 674.516 725.104C661.237 711.635 653.566 697.456 651.418 682.565C649.271 667.674 652.634 651.982 661.588 635.465C670.681 618.689 674.163 602.624 671.952 587.295C669.741 571.965 661.851 557.459 648.365 543.78C635.086 530.31 627.414 516.132 625.267 501.24C623.119 486.349 626.482 470.657 635.436 454.14C644.53 437.365 648.011 421.3 645.8 405.97C643.589 390.641 635.699 376.135 622.213 362.455C608.934 348.986 601.263 334.807 599.115 319.916C596.968 305.025 600.331 289.333 609.285 272.816C618.379 256.04 621.86 239.976 619.649 224.646C617.438 209.317 609.548 194.811 596.062 181.131C582.783 167.662 575.111 153.483 572.964 138.592C570.816 123.7 574.179 108.009 583.133 91.4914C592.227 74.716 595.708 58.6512 593.497 43.3217C587.212 20.5224 573.668 12.0279 543.321 14.6829C533.457 15.546 523.358 13.1619 513.046 7.60911C503.001 2.19977 493.297 -0.0550394 483.911 0.766121C474.525 1.58728 465.359 5.49302 456.406 12.5645C447.216 19.8235 437.684 23.9249 427.82 24.7879C417.956 25.651 407.857 23.2669 397.546 17.7141C387.501 12.3048 377.796 10.05 368.41 10.8711C359.024 11.6923 349.859 15.598 340.906 22.6695C331.715 29.9285 322.184 34.0299 312.319 34.8929C302.455 35.756 292.357 33.3719 282.045 27.8191C272 22.4098 262.295 20.155 252.91 20.9761C243.524 21.7973 234.358 25.703 225.405 32.7745C216.215 40.0334 206.683 44.1349 196.819 44.9979C186.955 45.8609 176.856 43.4769 166.545 37.9241C156.5 32.5148 146.795 30.2599 137.409 31.0811C128.023 31.9023 118.857 35.808 109.904 42.8795C100.714 50.1384 91.1824 54.2399 81.3182 55.1029C71.454 55.9659 68.6361 52.2385 51.0438 48.0291C13.1243 46.1725 20.345 77.8536 21.815 88.0465C24.487 106.573 20.5994 118.63 11.6455 135.147C2.55177 151.922 -0.929406 167.987 1.28149 183.316C3.49239 198.646 11.3826 213.152 24.8688 226.832C38.1474 240.301 45.8188 254.48 47.9665 269.371C50.1142 284.262 46.7509 299.954 37.797 316.471C28.7032 333.246 25.2221 349.311 27.433 364.641C29.6439 379.97 37.5341 394.476 51.0203 408.156C64.2989 421.625 71.9703 435.804 74.118 450.695C76.2657 465.586 72.9024 481.278 63.9485 497.795C54.8547 514.571 51.3736 530.636 53.5845 545.965C55.7954 561.295 63.6856 575.801 77.1717 589.48C90.4504 602.95 98.1218 617.128 100.269 632.02C102.417 646.911 99.0538 662.603 90.1 679.12C81.0062 695.895 77.5251 711.96 79.736 727.29C81.9469 742.619 89.8371 757.125 103.323 770.805C116.602 784.274 124.273 798.453 126.421 813.344C128.569 828.235 128.892 841.588 121.69 863.154C117.427 875.919 105.071 896.92 101.95 911.302Z" fill="#FEDFE1"/>
</svg>
