<!--?xml version="1.0" encoding="utf-8"?-->
<!-- Generator: Adobe Illustrator 18.1.1, SVG Export Plug-In . SVG Version: 6.00 Build 0)  -->

<svg version="1.1" id="_x31_0" xmlns="http://www.w3.org/2000/svg" xmlns:xlink="http://www.w3.org/1999/xlink" x="0px" y="0px" viewBox="0 0 512 512" style="width: 64px; height: 64px; opacity: 1;" xml:space="preserve">
<style type="text/css">
	.st0{fill:#374149;}
</style>
<g>
	<path class="st0" d="M203.267,411.81l-2.632-0.976c-30.731-11.589-62.51-23.564-99.681-23.564c-18.463,0-36.426,2.922-54.916,8.944
		l-2.719,0.883v25.47c0,4.781,3.89,8.671,8.675,8.671c0.789,0,1.574-0.11,2.355-0.328c26.06-7.359,45.526-11.624,67.899-11.624
		c31.368,0,66.997,8.53,119.132,28.52l5.35,2.054v-23.446l-8.784-2.586C226.476,420.481,215.203,416.27,203.267,411.81z" style="fill: rgb(0, 0, 0);"></path>
	<path class="st0" d="M411.097,387.27c-37.172,0-68.95,11.975-99.669,23.556l-2.641,0.984c-11.936,4.461-23.208,8.671-34.691,12.022
		l-8.773,2.582v23.446l5.347-2.054c52.139-19.99,87.768-28.52,119.136-28.52c22.368,0,41.835,4.265,67.914,11.631
		c0.766,0.211,1.55,0.321,2.339,0.321c4.781,0,8.675-3.89,8.675-8.671v-25.47l-2.718-0.883
		C447.526,390.191,429.563,387.27,411.097,387.27z" style="fill: rgb(0, 0, 0);"></path>
	<path class="st0" d="M490.998,82.755C453.514,69.081,416.69,62.14,381.553,62.14c-65.422,0-108.199,23.939-125.526,35.946
		c-17.33-12.006-60.106-35.946-125.526-35.946c-35.137,0-71.961,6.941-109.446,20.615L0.054,90.418v225.956L0,393.53l0.054-0.019
		v0.171l42.91-15.658c3.965-1.476,8.222-2.87,13.034-4.254c15.214-4.464,29.919-6.632,44.957-6.632
		c34.148,0,64.582,11.402,94.392,22.576c12.436,4.652,25.29,9.468,38.418,13.386l22.263,6.566l22.271-6.57
		c13.116-3.914,25.974-8.73,38.785-13.53c29.434-11.026,59.869-22.427,94.014-22.427c15.03,0,29.669,2.145,44.761,6.57
		c5.058,1.461,9.261,2.832,13.256,4.324l31.841,11.62l10.886,4.03v-0.058l0.16,0.058V90.418L490.998,82.755z M237.318,310.586
		l-0.05,55.998c-9.499-3.058-19.194-6.698-29.372-10.514c-31.009-11.628-66.158-24.81-106.942-24.81
		c-18.088,0-36.528,2.691-54.768,7.991c-2.586,0.726-5.335,1.617-8.097,2.523c-0.722,0.207-1.41,0.418-2.156,0.625V115.545
		c32.641-11.632,64.442-17.522,94.568-17.522c60.193,0,96.974,23.521,106.817,30.719V310.586z M476.117,287.143l-0.05,55.287
		c-3.523-1.199-6.929-2.262-10.171-3.171c-18.271-5.308-36.706-7.999-54.798-7.999c-40.781,0-75.934,13.182-106.942,24.81
		c-8.835,3.316-17.272,6.421-25.568,9.206c-1.281,0.406-2.57,0.891-3.851,1.274V128.742c9.843-7.198,46.62-30.719,106.817-30.719
		c30.122,0,61.927,5.89,94.564,17.522V287.143z" style="fill: rgb(0, 0, 0);"></path>
</g>
</svg>
