<svg width="1252" height="1026" viewBox="0 0 1252 1026" fill="none" xmlns="http://www.w3.org/2000/svg">
<path d="M65.31 138.372C46.6231 133.506 11.0882 133.49 0.94621 183.731C5.08548 231.044 26.2765 224.133 14.1101 264.418C7.08513 279.619 4.16248 294.558 5.44369 309.202C6.72489 323.846 12.1972 338.05 21.7551 351.801C31.0662 365.197 36.2785 378.855 37.4976 392.789C38.7167 406.723 35.9553 421.079 29.1118 435.888C22.0869 451.09 19.1642 466.028 20.4454 480.672C21.7266 495.317 27.1989 509.521 36.7568 523.271C46.0679 536.667 51.2802 550.325 52.4993 564.259C53.7184 578.194 50.957 592.55 44.1135 607.359C37.0886 622.56 34.1659 637.499 35.4471 652.143C36.7283 666.787 42.2006 680.991 51.7586 694.742C61.0696 708.137 66.282 721.796 67.501 735.73C68.7201 749.664 65.9587 764.02 59.1152 778.829C52.0903 794.031 49.1676 808.969 50.4488 823.613C51.73 838.258 57.2023 852.462 66.7603 866.212C76.0713 879.608 81.2837 893.266 82.5027 907.2C83.7218 921.135 80.9604 935.491 74.117 950.3C67.092 965.501 78.8744 999.895 91.5214 1010.28C114.37 1029.06 140.058 1006.21 180.894 994.915C221.73 983.62 240.216 1027.93 260.044 1024.91C279.871 1021.88 298.538 1010.42 316.041 990.642C333.275 971.17 351.521 960.027 370.782 957.087C390.042 954.148 410.431 959.395 431.982 972.948C453.87 986.712 474.744 992.141 494.571 989.115C514.399 986.089 533.065 974.626 550.568 954.85C567.802 935.379 586.049 924.235 605.309 921.296C624.57 918.356 644.958 923.604 666.509 937.157C688.397 950.921 709.271 956.349 729.099 953.323C748.926 950.298 767.592 938.835 785.096 919.059C802.33 899.587 820.576 888.444 839.836 885.504C859.097 882.565 879.486 887.813 901.037 901.365C922.924 915.13 943.798 920.558 963.626 917.532C983.453 914.506 1002.12 903.044 1019.62 883.268C1036.86 863.796 1055.1 852.652 1074.36 849.713C1093.62 846.774 1114.01 852.021 1135.56 865.574C1157.45 879.338 1178.33 884.767 1198.15 881.741C1227.59 872.795 1238.38 852.848 1234.43 807.795C1233.15 793.151 1236.08 778.212 1243.1 763.011C1249.94 748.202 1252.71 733.846 1251.49 719.912C1250.27 705.978 1245.05 692.319 1235.74 678.924C1226.19 665.173 1220.71 650.969 1219.43 636.325C1218.15 621.68 1221.07 606.742 1228.1 591.54C1234.94 576.731 1237.7 562.375 1236.48 548.441C1235.27 534.507 1230.05 520.849 1220.74 507.453C1211.18 493.702 1205.71 479.498 1204.43 464.854C1203.15 450.21 1206.07 435.271 1213.1 420.07C1219.94 405.261 1222.7 390.905 1221.48 376.971C1220.26 363.037 1215.05 349.378 1205.74 335.983C1196.18 322.232 1190.71 308.028 1189.43 293.384C1188.15 278.74 1191.07 263.801 1198.1 248.6C1204.94 233.791 1207.7 219.435 1206.48 205.501C1205.26 191.566 1200.05 177.908 1190.74 164.512C1181.18 150.762 1175.71 136.557 1174.43 121.913C1173.15 107.269 1177.93 103.151 1183.09 77.1288C1184.87 20.9197 1143.94 31.1056 1130.76 33.1176C1106.79 36.7746 1091.11 30.8095 1069.56 17.2569C1047.67 3.49245 1026.79 -1.93595 1006.97 1.08992C987.139 4.11579 968.473 15.5785 950.97 35.3544C933.736 54.826 915.49 65.9696 896.229 68.909C876.969 71.8483 856.58 66.6008 835.029 53.0482C813.141 39.2838 792.267 33.8554 772.44 36.8813C752.612 39.9072 733.946 51.3699 716.443 71.1458C699.209 90.6174 680.962 101.761 661.702 104.7C642.441 107.64 622.052 102.392 600.502 88.8396C578.614 75.0752 557.74 69.6468 537.912 72.6727C518.085 75.6985 499.419 87.1613 481.915 106.937C464.681 126.409 446.435 137.552 427.175 140.492C407.914 143.431 387.525 138.184 365.974 124.631C344.087 110.867 323.213 105.438 303.385 108.464C283.558 111.49 264.891 122.953 247.388 142.729C230.154 162.2 211.908 173.344 192.647 176.283C173.387 179.222 156.089 179.482 128.026 168.444C111.414 161.911 83.997 143.238 65.31 138.372Z" fill="#FEDFE1"/>
</svg>
