<svg width="121" height="17" viewBox="0 0 121 17" fill="none" xmlns="http://www.w3.org/2000/svg">
<path d="M0.877188 16L3.89719 1.72H5.67719L2.99719 14.4H8.15719L7.81719 16H0.877188ZM14.9578 16.16C14.1845 16.16 13.5178 16 12.9578 15.68C12.3978 15.3467 11.9645 14.8733 11.6578 14.26C11.3511 13.6467 11.1978 12.9267 11.1978 12.1C11.1978 11.4467 11.2645 10.7867 11.3978 10.12C11.5445 9.45333 11.7578 8.82667 12.0378 8.24C12.3178 7.64 12.6645 7.10667 13.0778 6.64C13.5045 6.17333 13.9911 5.80667 14.5378 5.54C15.0978 5.27333 15.7178 5.14 16.3978 5.14C17.1845 5.14 17.8578 5.30667 18.4178 5.64C18.9778 5.97333 19.4045 6.44667 19.6978 7.06C20.0045 7.66 20.1578 8.38 20.1578 9.22C20.1578 9.87333 20.0845 10.5333 19.9378 11.2C19.8045 11.8533 19.5978 12.48 19.3178 13.08C19.0378 13.6667 18.6911 14.1933 18.2778 14.66C17.8645 15.1267 17.3778 15.4933 16.8178 15.76C16.2711 16.0267 15.6511 16.16 14.9578 16.16ZM15.0978 14.7C15.4578 14.7 15.7978 14.62 16.1178 14.46C16.4511 14.2867 16.7511 14.0467 17.0178 13.74C17.2978 13.42 17.5378 13.0333 17.7378 12.58C17.9378 12.1133 18.0911 11.5867 18.1978 11C18.3178 10.4 18.3778 9.74667 18.3778 9.04C18.3778 8.65333 18.3111 8.27333 18.1778 7.9C18.0445 7.52667 17.8311 7.22 17.5378 6.98C17.2578 6.72667 16.8711 6.6 16.3778 6.6C15.9645 6.6 15.5778 6.7 15.2178 6.9C14.8711 7.08667 14.5578 7.35333 14.2778 7.7C13.9978 8.03333 13.7578 8.43333 13.5578 8.9C13.3711 9.36667 13.2245 9.87333 13.1178 10.42C13.0245 10.9667 12.9778 11.54 12.9778 12.14C12.9778 12.9533 13.1578 13.5867 13.5178 14.04C13.8911 14.48 14.4178 14.7 15.0978 14.7ZM26.6605 16.2C25.9271 16.2 25.2738 16.0533 24.7005 15.76C24.1405 15.4667 23.7005 15.0333 23.3805 14.46C23.0738 13.8733 22.9205 13.14 22.9205 12.26C22.9205 11.4867 23.0005 10.7467 23.1605 10.04C23.3205 9.33333 23.5538 8.68 23.8605 8.08C24.1671 7.48 24.5405 6.95333 24.9805 6.5C25.4205 6.04667 25.9205 5.7 26.4805 5.46C27.0405 5.20667 27.6538 5.08 28.3205 5.08C28.7871 5.08 29.2405 5.12667 29.6805 5.22C30.1205 5.31333 30.5205 5.44 30.8805 5.6L30.3805 7.06C30.1138 6.94 29.8071 6.82667 29.4605 6.72C29.1271 6.61333 28.7538 6.56 28.3405 6.56C27.9138 6.56 27.5138 6.66 27.1405 6.86C26.7671 7.04667 26.4271 7.32 26.1205 7.68C25.8271 8.02667 25.5738 8.44 25.3605 8.92C25.1605 9.38667 25.0005 9.9 24.8805 10.46C24.7738 11.02 24.7205 11.6067 24.7205 12.22C24.7205 12.7533 24.8071 13.2067 24.9805 13.58C25.1538 13.9533 25.4005 14.24 25.7205 14.44C26.0405 14.64 26.4271 14.74 26.8805 14.74C27.3338 14.74 27.7605 14.6733 28.1605 14.54C28.5605 14.4067 28.9538 14.2533 29.3405 14.08V15.56C28.9805 15.7467 28.5738 15.9 28.1205 16.02C27.6805 16.14 27.1938 16.2 26.6605 16.2ZM35.2733 16.2C34.7399 16.2 34.2666 16.0667 33.8533 15.8C33.4533 15.52 33.1333 15.1133 32.8933 14.58C32.6666 14.0467 32.5533 13.3867 32.5533 12.6C32.5533 11.8 32.6333 11.0333 32.7933 10.3C32.9533 9.55333 33.1799 8.86667 33.4733 8.24C33.7799 7.6 34.1399 7.04667 34.5533 6.58C34.9666 6.1 35.4333 5.73333 35.9533 5.48C36.4733 5.21333 37.0266 5.08 37.6133 5.08C38.0666 5.08 38.4533 5.16667 38.7733 5.34C39.1066 5.51333 39.3866 5.74 39.6133 6.02C39.8399 6.3 40.0199 6.60667 40.1533 6.94H40.2533L40.8733 5.28H42.2133L39.9333 16H38.5333L38.7933 14.02H38.7333C38.4399 14.4067 38.1133 14.7667 37.7533 15.1C37.4066 15.4333 37.0266 15.7 36.6133 15.9C36.1999 16.1 35.7533 16.2 35.2733 16.2ZM35.8933 14.74C36.3466 14.74 36.7933 14.56 37.2333 14.2C37.6866 13.84 38.0933 13.3533 38.4533 12.74C38.8266 12.1267 39.1066 11.44 39.2933 10.68C39.3999 10.28 39.4666 9.91333 39.4933 9.58C39.5333 9.23333 39.5533 8.93333 39.5533 8.68C39.5533 8.05333 39.3933 7.54667 39.0733 7.16C38.7666 6.76 38.3399 6.56 37.7933 6.56C37.4066 6.56 37.0399 6.66667 36.6933 6.88C36.3466 7.09333 36.0266 7.39333 35.7333 7.78C35.4533 8.16667 35.2066 8.62 34.9933 9.14C34.7933 9.64667 34.6333 10.2 34.5133 10.8C34.4066 11.3867 34.3533 11.9933 34.3533 12.62C34.3533 13.3267 34.4866 13.86 34.7533 14.22C35.0199 14.5667 35.3999 14.74 35.8933 14.74ZM43.9336 16L47.1736 0.799999H48.9336L45.6936 16H43.9336ZM61.8559 16.2C60.8293 16.2 59.9426 15.9733 59.1959 15.52C58.4493 15.0667 57.8759 14.4267 57.4759 13.6C57.0893 12.7733 56.8959 11.8 56.8959 10.68C56.8959 9.70667 57.0093 8.76667 57.2359 7.86C57.4626 6.95333 57.7959 6.12 58.2359 5.36C58.6759 4.58667 59.2093 3.91333 59.8359 3.34C60.4759 2.76667 61.1959 2.32 61.9959 2C62.7959 1.68 63.6759 1.52 64.6359 1.52C65.2893 1.52 65.8893 1.58667 66.4359 1.72C66.9959 1.84 67.5159 2.02667 67.9959 2.28L67.5159 3.28C67.1026 3.04 66.6559 2.86 66.1759 2.74C65.6959 2.62 65.1826 2.56 64.6359 2.56C63.8226 2.56 63.0759 2.7 62.3959 2.98C61.7159 3.26 61.1093 3.65333 60.5759 4.16C60.0559 4.65333 59.6093 5.24 59.2359 5.92C58.8626 6.58667 58.5759 7.32667 58.3759 8.14C58.1893 8.94 58.0959 9.77333 58.0959 10.64C58.0959 12.04 58.4426 13.1467 59.1359 13.96C59.8426 14.76 60.8026 15.16 62.0159 15.16C62.6293 15.16 63.2093 15.1067 63.7559 15C64.3159 14.8933 64.8426 14.7533 65.3359 14.58V15.58C64.8559 15.7667 64.3359 15.9133 63.7759 16.02C63.2159 16.14 62.5759 16.2 61.8559 16.2ZM72.9923 16.18C72.179 16.18 71.4857 16.0133 70.9123 15.68C70.339 15.3467 69.9057 14.8733 69.6123 14.26C69.3323 13.6333 69.1923 12.9133 69.1923 12.1C69.1923 11.3533 69.2723 10.64 69.4323 9.96C69.5923 9.26667 69.8257 8.63333 70.1323 8.06C70.4523 7.47333 70.8323 6.96667 71.2723 6.54C71.7123 6.11333 72.2123 5.78667 72.7723 5.56C73.3457 5.32 73.9657 5.2 74.6323 5.2C75.4457 5.2 76.1323 5.37333 76.6923 5.72C77.2523 6.05333 77.679 6.52667 77.9723 7.14C78.2657 7.74 78.4123 8.44667 78.4123 9.26C78.4123 9.96667 78.3323 10.66 78.1723 11.34C78.0257 12.0067 77.799 12.6333 77.4923 13.22C77.199 13.8067 76.8323 14.32 76.3923 14.76C75.9657 15.2 75.4657 15.5467 74.8923 15.8C74.319 16.0533 73.6857 16.18 72.9923 16.18ZM73.0723 15.2C73.579 15.2 74.0457 15.1067 74.4723 14.92C74.899 14.7333 75.279 14.4667 75.6123 14.12C75.959 13.76 76.2523 13.3333 76.4923 12.84C76.7323 12.3333 76.919 11.7733 77.0523 11.16C77.1857 10.5333 77.2523 9.86667 77.2523 9.16C77.2523 8.61333 77.159 8.11333 76.9723 7.66C76.7857 7.20667 76.499 6.84667 76.1123 6.58C75.7257 6.3 75.2257 6.16 74.6123 6.16C74.119 6.16 73.6523 6.26 73.2123 6.46C72.7723 6.64667 72.3723 6.92 72.0123 7.28C71.6657 7.62667 71.3657 8.04667 71.1123 8.54C70.859 9.03333 70.6657 9.58 70.5323 10.18C70.399 10.78 70.3323 11.4333 70.3323 12.14C70.3323 13.0867 70.5657 13.8333 71.0323 14.38C71.499 14.9267 72.179 15.2 73.0723 15.2ZM84.2414 16.2C83.6814 16.2 83.1947 16.1 82.7814 15.9C82.3814 15.7 82.0747 15.4067 81.8614 15.02C81.6481 14.62 81.5414 14.14 81.5414 13.58C81.5414 13.3267 81.5547 13.0733 81.5814 12.82C81.6214 12.5667 81.6681 12.3133 81.7214 12.06L83.1414 5.36H84.3014L82.8414 12.18C82.7881 12.4333 82.7481 12.6667 82.7214 12.88C82.6947 13.08 82.6814 13.2667 82.6814 13.44C82.6814 14.0267 82.8347 14.4733 83.1414 14.78C83.4614 15.0733 83.9214 15.22 84.5214 15.22C85.1214 15.22 85.7147 15.0267 86.3014 14.64C86.9014 14.2533 87.4281 13.7067 87.8814 13C88.3481 12.28 88.6881 11.42 88.9014 10.42L89.9814 5.36H91.1014L88.8414 16H87.9014L88.3014 13.62H88.2214C87.9947 13.98 87.6881 14.3667 87.3014 14.78C86.9281 15.18 86.4881 15.52 85.9814 15.8C85.4747 16.0667 84.8947 16.2 84.2414 16.2ZM93.3695 16L95.6295 5.36H96.5695L96.1695 7.74H96.2495C96.4895 7.36667 96.7762 6.98667 97.1095 6.6C97.4562 6.2 97.8562 5.86667 98.3095 5.6C98.7629 5.32 99.2695 5.18 99.8295 5.18C100.043 5.18 100.25 5.19333 100.45 5.22C100.65 5.24667 100.836 5.28667 101.01 5.34L100.75 6.36C100.603 6.32 100.443 6.28667 100.27 6.26C100.096 6.23333 99.9095 6.22 99.7095 6.22C99.2295 6.22 98.7695 6.35333 98.3295 6.62C97.8895 6.87333 97.4829 7.22 97.1095 7.66C96.7495 8.08667 96.4362 8.58 96.1695 9.14C95.9029 9.7 95.7095 10.28 95.5895 10.88L94.5095 16H93.3695ZM104.645 16.2C103.965 16.2 103.372 16.1267 102.865 15.98C102.372 15.8333 101.959 15.6667 101.625 15.48V14.38C101.999 14.6067 102.445 14.8067 102.965 14.98C103.499 15.1533 104.052 15.24 104.625 15.24C105.252 15.24 105.765 15.1533 106.165 14.98C106.565 14.8067 106.865 14.5667 107.065 14.26C107.265 13.94 107.365 13.58 107.365 13.18C107.365 12.82 107.279 12.52 107.105 12.28C106.945 12.0267 106.712 11.8 106.405 11.6C106.112 11.4 105.752 11.1867 105.325 10.96C104.845 10.6933 104.425 10.4333 104.065 10.18C103.719 9.91333 103.439 9.61333 103.225 9.28C103.025 8.94667 102.925 8.54 102.925 8.06C102.925 7.43333 103.079 6.90667 103.385 6.48C103.692 6.04 104.112 5.71333 104.645 5.5C105.192 5.27333 105.805 5.16 106.485 5.16C107.125 5.16 107.699 5.23333 108.205 5.38C108.725 5.51333 109.172 5.66667 109.545 5.84L109.185 6.78C108.852 6.60667 108.452 6.46 107.985 6.34C107.532 6.20667 107.032 6.14 106.485 6.14C105.779 6.14 105.199 6.3 104.745 6.62C104.292 6.92667 104.065 7.38667 104.065 8C104.065 8.32 104.139 8.59333 104.285 8.82C104.445 9.04667 104.672 9.26 104.965 9.46C105.272 9.64667 105.639 9.86 106.065 10.1C106.505 10.3533 106.912 10.6067 107.285 10.86C107.659 11.1133 107.959 11.4133 108.185 11.76C108.412 12.1067 108.525 12.5467 108.525 13.08C108.525 13.7067 108.372 14.2533 108.065 14.72C107.772 15.1867 107.339 15.5533 106.765 15.82C106.192 16.0733 105.485 16.2 104.645 16.2ZM115.86 16.2C115.14 16.2 114.494 16.0533 113.92 15.76C113.347 15.4533 112.894 15 112.56 14.4C112.24 13.8 112.08 13.0467 112.08 12.14C112.08 11.2333 112.207 10.3667 112.46 9.54C112.727 8.7 113.1 7.95333 113.58 7.3C114.074 6.63333 114.647 6.11333 115.3 5.74C115.954 5.35333 116.68 5.16 117.48 5.16C118.347 5.16 119.02 5.38 119.5 5.82C119.994 6.24667 120.24 6.82 120.24 7.54C120.24 8.14 120.094 8.66667 119.8 9.12C119.507 9.56 119.08 9.92667 118.52 10.22C117.974 10.5133 117.3 10.74 116.5 10.9C115.714 11.0467 114.814 11.12 113.8 11.12H113.3C113.287 11.2533 113.274 11.4133 113.26 11.6C113.247 11.7733 113.24 11.9467 113.24 12.12C113.24 13.1067 113.487 13.8733 113.98 14.42C114.474 14.9533 115.167 15.22 116.06 15.22C116.607 15.22 117.107 15.1467 117.56 15C118.014 14.8533 118.454 14.68 118.88 14.48V15.5C118.48 15.6867 118.027 15.8533 117.52 16C117.027 16.1333 116.474 16.2 115.86 16.2ZM114.02 10.16C114.98 10.16 115.847 10.08 116.62 9.92C117.394 9.74667 118 9.47333 118.44 9.1C118.894 8.71333 119.12 8.22 119.12 7.62C119.12 7.19333 118.974 6.84 118.68 6.56C118.4 6.28 117.967 6.14 117.38 6.14C116.847 6.14 116.314 6.3 115.78 6.62C115.26 6.92667 114.794 7.38 114.38 7.98C113.967 8.58 113.66 9.30667 113.46 10.16H114.02Z" fill="#2092A5"/>
</svg>
