<svg width="230" height="122" viewBox="0 0 230 122" fill="none" xmlns="http://www.w3.org/2000/svg">
<path d="M21.2059 67.902C19.9579 70.866 14.8099 75.78 13.0159 75.78C12.2359 75.78 6.46388 71.334 6.46388 70.32C6.46388 69.306 9.58388 67.2 10.1299 65.562C10.9099 63.144 17.0719 40.368 18.2419 35.844C18.7099 34.05 20.3479 31.242 21.5959 29.682H13.0159C11.7679 29.682 10.4419 31.71 10.4419 32.412C10.4419 34.206 12.8599 40.134 12.8599 41.226C12.8599 42.318 9.11588 44.736 7.86788 44.736C6.15188 44.736 0.379883 36.468 0.379883 34.362C0.379883 31.788 8.25788 21.492 12.3919 21.492H46.0099C46.7119 21.492 47.4139 21.804 47.4139 22.506C47.4139 23.832 46.4779 25.47 45.2299 27.264C43.5139 29.604 41.2519 29.682 38.1319 29.682H27.9139C29.8639 30.696 32.0479 32.1 32.0479 32.724C32.0479 33.348 30.0979 36.312 29.3959 38.418C27.9139 42.942 22.2199 65.64 21.2059 67.902ZM53.5046 48.792C53.5046 47.778 51.9446 46.842 50.6966 46.842C47.9666 46.842 41.7266 59.79 41.7266 66.654C41.7266 67.59 42.5846 68.37 43.2866 68.37C44.1446 68.37 47.1866 67.044 49.3706 62.52C50.9306 59.244 53.5046 50.976 53.5046 48.792ZM71.9126 57.372C71.9126 57.372 72.6146 55.968 73.6286 55.968C74.6426 55.968 76.2806 57.216 76.2806 58.152C76.2806 59.088 75.2666 60.882 75.2666 60.882C70.9766 68.682 66.3746 75.78 60.7586 75.78C57.2486 75.78 51.2426 73.362 50.1506 71.178C50.1506 71.178 45.7046 75.78 41.4926 75.78C37.9046 75.78 30.6506 70.866 30.6506 66.654C30.6506 56.436 39.5426 39.12 47.8106 39.12C54.0506 39.12 58.1066 43.41 58.1066 43.41C60.9146 43.41 65.5946 44.346 65.5946 46.296C65.5946 49.026 60.2906 61.662 60.2906 67.902C60.2906 68.526 60.9146 69.228 61.5386 69.228C64.2686 69.228 68.0906 64.392 71.9126 57.372ZM69.3313 68.994C69.3313 65.328 74.8693 45.594 76.1953 40.758C76.5073 39.666 77.5993 39.12 79.3153 39.12C80.8753 39.12 87.1153 42.786 87.1153 44.268C87.1153 46.062 80.8753 63.066 80.8753 68.526C80.8753 68.838 81.4213 69.228 81.6553 69.228C83.9173 69.228 87.9733 64.392 91.9513 57.372C91.9513 57.372 92.5753 55.968 93.5893 55.968C94.6033 55.968 96.2413 57.216 96.2413 58.152C96.2413 59.088 95.1493 60.882 95.1493 60.882C90.9373 68.682 86.2573 75.78 80.6413 75.78C76.2733 75.78 69.3313 72.504 69.3313 68.994ZM86.1013 36.39C83.9953 36.39 79.9393 34.908 79.9393 32.334C79.9393 29.214 81.8893 23.52 85.0873 23.52C87.1933 23.52 91.2493 25.002 91.2493 27.576C91.2493 30.696 89.2213 36.39 86.1013 36.39ZM122.358 68.682C122.904 68.682 123.294 68.37 123.762 67.98C123.294 67.668 123.06 67.2 123.06 66.576C123.06 64.938 126.804 61.038 128.52 61.038H128.598C131.874 54.096 134.526 45.204 134.76 40.836C134.838 39.666 135.774 39.12 137.1 39.12C139.362 39.12 145.212 42.24 145.212 44.346C145.212 47.856 142.248 57.216 137.256 65.172C137.802 65.406 138.192 65.484 138.582 65.484C144.12 65.484 148.02 57.372 148.02 57.372C148.02 57.372 148.8 55.968 149.736 55.968C150.828 55.968 152.466 57.216 152.466 58.152C152.466 59.088 151.374 60.882 151.374 60.882C151.374 60.882 145.758 71.022 138.816 71.022C137.178 71.022 135.384 70.944 132.81 70.632C129.846 73.908 125.712 75.78 122.124 75.78C116.43 75.78 110.814 73.128 110.268 70.554C110.268 70.554 104.184 75.78 100.206 75.78C95.3705 75.78 89.4425 70.944 89.4425 67.668C89.4425 64.002 94.6685 45.516 96.2285 40.602C96.6965 39.51 97.6325 39.12 98.3345 39.12C100.596 39.12 106.68 42.708 106.68 44.112C106.68 44.658 106.524 45.516 106.368 45.984C105.822 48.012 101.064 63.768 101.064 67.356C101.064 67.824 101.844 68.292 102.156 68.292C104.028 68.292 108.318 65.406 109.332 62.442C111.906 55.422 114.48 45.594 115.962 40.602C116.43 39.51 117.366 39.12 118.068 39.12C120.33 39.12 126.414 42.708 126.414 44.112C126.414 44.658 126.258 45.516 126.102 45.984C125.556 48.012 120.798 63.768 120.798 67.356C120.798 67.824 121.734 68.682 122.358 68.682ZM168.905 48.792C168.905 47.778 167.345 46.842 166.097 46.842C163.367 46.842 157.127 59.79 157.127 66.654C157.127 67.59 157.985 68.37 158.687 68.37C159.545 68.37 162.587 67.044 164.771 62.52C166.331 59.244 168.905 50.976 168.905 48.792ZM187.313 57.372C187.313 57.372 188.015 55.968 189.029 55.968C190.043 55.968 191.681 57.216 191.681 58.152C191.681 59.088 190.667 60.882 190.667 60.882C186.377 68.682 181.775 75.78 176.159 75.78C172.649 75.78 166.643 73.362 165.551 71.178C165.551 71.178 161.105 75.78 156.893 75.78C153.305 75.78 146.051 70.866 146.051 66.654C146.051 56.436 154.943 39.12 163.211 39.12C169.451 39.12 173.507 43.41 173.507 43.41C176.315 43.41 180.995 44.346 180.995 46.296C180.995 49.026 175.691 61.662 175.691 67.902C175.691 68.526 176.315 69.228 176.939 69.228C179.669 69.228 183.491 64.392 187.313 57.372ZM214.684 68.214C214.684 68.526 214.918 69.072 215.308 69.072C217.648 69.072 221.782 64.392 225.604 57.372C225.604 57.372 226.306 55.968 227.32 55.968C228.334 55.968 229.972 57.216 229.972 58.152C229.972 59.088 228.958 60.882 228.958 60.882C224.668 68.682 220.066 75.78 214.45 75.78C210.94 75.78 203.14 72.504 203.14 68.994C203.14 64.002 207.508 51.522 207.508 48.558C207.508 47.856 206.806 46.998 205.948 46.998C204.31 46.998 201.268 48.324 200.254 50.82C198.148 55.968 194.638 71.724 194.17 73.986C193.858 75 192.61 75.78 191.206 75.78C189.412 75.78 183.796 73.83 183.796 71.724C183.796 69.696 189.724 46.062 191.362 40.758C191.83 39.666 193.39 39.12 194.56 39.12C196.354 39.12 199.786 42.942 199.786 42.942C199.786 42.942 207.04 39.12 211.486 39.12C214.45 39.12 219.52 42.552 219.52 45.438C219.52 49.104 214.684 64.08 214.684 68.214Z" fill="#1A1A1A"/>
<path d="M71.9581 121.752C70.6141 121.752 69.7341 121.432 69.3181 120.792C68.8701 120.152 68.6621 119.48 68.6941 118.776C68.7901 117.592 69.2061 116.472 69.9421 115.416C70.6461 114.36 71.5581 113.368 72.6781 112.44C73.7981 111.512 74.9981 110.664 76.2781 109.896C77.5581 109.128 78.7901 108.424 79.9741 107.784C81.1901 107.176 82.2461 106.648 83.1421 106.2C84.0381 105.752 84.6621 105.4 85.0141 105.144C85.4941 103.736 85.8461 102.392 86.0701 101.112C86.2941 99.8 86.3741 98.648 86.3101 97.656C85.9901 98.296 85.5101 99.128 84.8701 100.152C84.2621 101.176 83.5581 102.12 82.7581 102.984C82.1181 103.688 81.4461 104.28 80.7421 104.76C80.0381 105.208 79.3181 105.432 78.5821 105.432C77.5901 105.432 76.9021 105.08 76.5181 104.376C76.1341 103.64 75.9421 102.824 75.9421 101.928C75.9421 101.64 75.9581 101.352 75.9901 101.064C76.0221 100.776 76.0701 100.504 76.1341 100.248C76.3901 99.224 76.7741 98.216 77.2861 97.224C77.7981 96.2 78.3261 95.288 78.8701 94.488C79.4461 93.656 79.9261 93.032 80.3101 92.616C81.2381 91.496 82.3261 90.584 83.5741 89.88C84.8541 89.144 86.1501 88.776 87.4621 88.776C88.8061 88.776 90.0701 89.224 91.2541 90.12C91.7341 90.504 91.9741 90.904 91.9741 91.32C91.9741 91.8 91.7821 92.04 91.3981 92.04C91.0781 92.04 90.8541 91.848 90.7261 91.464C90.3101 90.28 89.6221 89.688 88.6621 89.688C87.7341 89.688 86.7741 90.024 85.7821 90.696C84.8221 91.336 83.8941 92.184 82.9981 93.24C82.1021 94.296 81.2861 95.416 80.5501 96.6C79.8461 97.784 79.2861 98.92 78.8701 100.008C78.4541 101.096 78.2461 101.992 78.2461 102.696C78.2461 103.56 78.5821 103.992 79.2541 103.992C79.8621 103.992 80.5181 103.688 81.2221 103.08C81.9581 102.472 82.6621 101.72 83.3341 100.824C84.0061 99.896 84.5981 98.984 85.1101 98.088C85.6221 97.192 85.9581 96.456 86.1181 95.88C86.3421 95.176 86.6141 94.712 86.9341 94.488C87.2541 94.264 87.5901 94.152 87.9421 94.152C88.0701 94.152 88.1821 94.168 88.2781 94.2C88.4061 94.2 88.5341 94.216 88.6621 94.248C88.6941 94.408 88.7101 94.648 88.7101 94.968C88.7421 95.288 88.7581 95.672 88.7581 96.12C88.7581 97.048 88.6941 98.184 88.5661 99.528C88.4701 100.872 88.2781 102.2 87.9901 103.512L88.5181 103.128C89.3501 102.52 90.1661 101.896 90.9661 101.256C91.7661 100.616 92.3581 100.072 92.7421 99.624C93.0941 99.272 93.4141 98.936 93.7021 98.616C93.9901 98.296 94.2621 97.96 94.5181 97.608C94.5821 97.512 94.6621 97.464 94.7581 97.464C94.9501 97.464 95.0461 97.592 95.0461 97.848C95.0461 98.008 94.9661 98.168 94.8061 98.328C94.1341 99.16 93.4301 100.008 92.6941 100.872C92.5021 101.096 92.0221 101.544 91.2541 102.216C90.5181 102.856 89.7341 103.464 88.9021 104.04C88.4861 104.36 88.0701 104.632 87.6541 104.856C87.0461 106.968 86.1981 109.016 85.1101 111C84.0541 113.016 82.8221 114.824 81.4141 116.424C80.0061 118.056 78.5021 119.352 76.9021 120.312C75.3021 121.272 73.6541 121.752 71.9581 121.752ZM71.7181 120.744C72.9661 120.744 74.2461 120.28 75.5581 119.352C76.8701 118.424 78.1341 117.224 79.3501 115.752C80.5661 114.312 81.6381 112.76 82.5661 111.096C83.4941 109.464 84.1821 107.928 84.6301 106.488C84.0861 106.84 83.2381 107.288 82.0861 107.832C80.9661 108.408 79.7181 109.08 78.3421 109.848C76.9661 110.616 75.6541 111.464 74.4061 112.392C73.1261 113.32 72.0541 114.328 71.1901 115.416C70.3261 116.536 69.8621 117.704 69.7981 118.92C69.7661 119.336 69.8941 119.736 70.1821 120.12C70.4701 120.536 70.9821 120.744 71.7181 120.744ZM103.023 105.144C101.935 105.144 101.391 104.472 101.391 103.128C101.391 102.488 101.503 101.752 101.727 100.92C101.951 100.056 102.255 99.128 102.639 98.136C101.967 99.192 101.215 100.248 100.383 101.304C99.5831 102.36 98.7511 103.24 97.8871 103.944C97.0551 104.616 96.2391 104.952 95.4391 104.952C94.5431 104.952 93.9351 104.664 93.6151 104.088C93.3271 103.48 93.1831 102.824 93.1831 102.12C93.1831 101.512 93.2471 100.936 93.3751 100.392C93.5031 99.816 93.6311 99.4 93.7591 99.144C94.2391 97.928 94.8311 96.584 95.5351 95.112C96.2711 93.64 96.9271 92.36 97.5031 91.272C97.8231 90.728 98.3351 90.264 99.0391 89.88C99.7751 89.496 100.367 89.304 100.815 89.304C101.295 89.304 101.535 89.464 101.535 89.784C101.535 90.04 101.375 90.424 101.055 90.936C100.767 91.352 100.367 92.008 99.8551 92.904C99.3431 93.768 98.7831 94.744 98.1751 95.832C97.5991 96.92 97.0391 97.992 96.4951 99.048C95.7911 100.392 95.4391 101.56 95.4391 102.552C95.4391 103.352 95.6791 103.752 96.1591 103.752C96.4151 103.752 96.7511 103.608 97.1671 103.32C97.5831 103.032 98.0791 102.568 98.6551 101.928C98.9111 101.672 99.2951 101.16 99.8071 100.392C100.351 99.624 100.959 98.76 101.631 97.8C102.303 96.808 102.959 95.848 103.599 94.92C104.239 93.96 104.767 93.176 105.183 92.568C105.951 91.096 106.767 90.104 107.631 89.592C108.495 89.08 109.519 88.824 110.703 88.824C110.383 88.984 109.999 89.4 109.551 90.072C109.103 90.744 108.639 91.432 108.159 92.136C107.839 92.616 107.487 93.24 107.103 94.008C106.719 94.776 106.335 95.592 105.951 96.456C105.567 97.288 105.231 98.072 104.943 98.808C104.687 99.544 104.511 100.12 104.415 100.536C104.255 101.24 104.175 101.8 104.175 102.216C104.175 102.984 104.367 103.368 104.751 103.368C104.879 103.368 105.039 103.32 105.231 103.224C105.935 102.872 106.639 102.36 107.343 101.688C108.047 101.016 108.719 100.328 109.359 99.624C109.679 99.272 109.983 98.936 110.271 98.616C110.559 98.296 110.831 97.96 111.087 97.608C111.183 97.512 111.263 97.464 111.327 97.464C111.519 97.464 111.615 97.592 111.615 97.848C111.615 98.04 111.551 98.2 111.423 98.328C110.751 99.16 110.047 100.008 109.311 100.872C108.607 101.672 107.871 102.456 107.103 103.224C106.463 103.832 105.759 104.312 104.991 104.664C104.223 104.984 103.567 105.144 103.023 105.144ZM119.472 86.04C119.12 86.04 118.832 85.928 118.608 85.704C118.384 85.448 118.272 85.16 118.272 84.84C118.272 84.36 118.432 83.96 118.752 83.64C119.104 83.288 119.488 83.112 119.904 83.112C120.32 83.112 120.64 83.256 120.864 83.544C121.12 83.8 121.216 84.136 121.152 84.552C121.056 84.968 120.848 85.32 120.528 85.608C120.24 85.896 119.888 86.04 119.472 86.04ZM112.896 105C112.192 105 111.584 104.776 111.072 104.328C110.56 103.848 110.304 103.048 110.304 101.928C110.304 101.448 110.352 100.92 110.448 100.344C110.736 98.84 111.2 97.4 111.84 96.024C112.512 94.648 113.152 93.464 113.76 92.472C114.4 91.448 114.816 90.776 115.008 90.456C115.168 90.136 115.584 89.832 116.256 89.544C116.928 89.224 117.488 89.064 117.936 89.064C118.32 89.064 118.512 89.192 118.512 89.448C118.512 89.672 118.432 89.88 118.272 90.072C117.792 90.84 117.232 91.72 116.592 92.712C115.984 93.672 115.392 94.696 114.816 95.784C114.24 96.872 113.76 97.944 113.376 99C112.992 100.056 112.8 101.032 112.8 101.928C112.8 102.408 112.88 102.792 113.04 103.08C113.232 103.368 113.568 103.512 114.048 103.512C114.56 103.512 115.152 103.272 115.824 102.792C116.496 102.28 117.136 101.72 117.744 101.112C118.384 100.472 118.848 99.976 119.136 99.624C119.456 99.272 119.76 98.936 120.048 98.616C120.368 98.296 120.656 97.96 120.912 97.608C121.008 97.512 121.088 97.464 121.152 97.464C121.344 97.464 121.44 97.608 121.44 97.896C121.44 98.056 121.376 98.2 121.248 98.328C120.896 98.744 120.544 99.176 120.192 99.624C119.84 100.04 119.472 100.456 119.088 100.872C118.576 101.48 118 102.104 117.36 102.744C116.72 103.384 116.032 103.928 115.296 104.376C114.56 104.792 113.76 105 112.896 105ZM122.598 105.192C121.542 105.192 120.806 104.936 120.39 104.424C119.974 103.912 119.766 103.288 119.766 102.552C119.766 101.592 119.99 100.568 120.438 99.48C120.918 98.392 121.334 97.544 121.686 96.936C122.55 95.56 123.574 94.248 124.758 93C125.942 91.752 127.19 90.744 128.502 89.976C129.846 89.176 131.126 88.776 132.342 88.776C133.174 88.776 133.99 88.968 134.79 89.352C134.95 89 135.094 88.696 135.222 88.44C135.35 88.152 135.478 87.88 135.606 87.624C136.726 85.64 137.67 83.96 138.438 82.584C139.238 81.208 140.086 80.136 140.982 79.368C141.91 78.568 143.11 78.088 144.582 77.928C143.718 79.08 142.966 80.12 142.326 81.048C141.686 81.976 141.078 82.92 140.502 83.88C139.926 84.808 139.334 85.832 138.726 86.952C138.118 88.072 137.43 89.4 136.662 90.936C136.726 91.128 136.758 91.256 136.758 91.32C136.758 91.544 136.678 91.736 136.518 91.896C136.39 92.024 136.246 92.088 136.086 92.088C135.414 93.432 134.758 94.792 134.118 96.168C133.51 97.512 132.998 98.76 132.582 99.912C132.198 101.032 132.006 101.912 132.006 102.552C132.006 103.224 132.246 103.56 132.726 103.56C133.014 103.56 133.366 103.448 133.782 103.224C134.486 102.872 135.19 102.376 135.894 101.736C136.63 101.064 137.302 100.376 137.91 99.672C138.262 99.32 138.582 98.984 138.87 98.664C139.158 98.312 139.43 97.96 139.686 97.608C139.782 97.512 139.862 97.464 139.926 97.464C140.118 97.464 140.214 97.592 140.214 97.848C140.214 98.04 140.15 98.2 140.022 98.328C139.478 99.032 138.918 99.736 138.342 100.44C137.766 101.112 137.158 101.768 136.518 102.408C136.39 102.536 136.262 102.68 136.134 102.84C136.006 102.968 135.862 103.096 135.702 103.224C135.03 103.768 134.342 104.232 133.638 104.616C132.966 105 132.358 105.192 131.814 105.192C131.014 105.192 130.47 104.952 130.182 104.472C129.926 103.96 129.798 103.368 129.798 102.696C129.798 102.248 129.83 101.784 129.894 101.304C129.99 100.824 130.102 100.408 130.23 100.056C130.326 99.704 130.438 99.304 130.566 98.856C130.726 98.408 130.902 97.96 131.094 97.512C130.39 98.6 129.59 99.736 128.694 100.92C127.798 102.104 126.838 103.112 125.814 103.944C124.79 104.776 123.718 105.192 122.598 105.192ZM122.886 103.992C123.43 103.992 124.23 103.592 125.286 102.792C126.054 102.184 126.854 101.448 127.686 100.584C128.518 99.688 129.286 98.824 129.99 97.992C130.726 97.128 131.286 96.456 131.67 95.976C132.054 95.048 132.47 94.088 132.918 93.096C133.398 92.072 133.894 91.064 134.406 90.072C134.15 89.944 133.846 89.88 133.494 89.88C132.694 89.88 131.766 90.248 130.71 90.984C129.686 91.688 128.694 92.552 127.734 93.576C126.646 94.728 125.654 95.976 124.758 97.32C123.862 98.632 123.19 99.832 122.742 100.92C122.518 101.4 122.358 101.832 122.262 102.216C122.198 102.568 122.166 102.872 122.166 103.128C122.166 103.704 122.406 103.992 122.886 103.992ZM142.596 105.72C141.412 105.72 140.468 105.384 139.764 104.712C139.06 104.008 138.708 103.032 138.708 101.784C138.708 100.824 138.884 99.816 139.236 98.76C139.62 97.704 139.988 96.872 140.34 96.264C141.076 94.92 141.956 93.688 142.98 92.568C144.036 91.448 145.108 90.552 146.196 89.88C147.316 89.176 148.34 88.824 149.268 88.824C150.132 88.824 150.868 89.064 151.476 89.544C152.116 90.024 152.436 90.664 152.436 91.464C152.436 91.784 152.356 92.152 152.196 92.568C152.036 92.984 151.78 93.416 151.428 93.864C150.148 95.496 148.724 96.776 147.156 97.704C145.62 98.6 143.86 99.272 141.876 99.72C141.748 100.136 141.636 100.552 141.54 100.968C141.444 101.352 141.364 101.72 141.3 102.072C141.268 102.232 141.236 102.392 141.204 102.552C141.204 102.68 141.204 102.824 141.204 102.984C141.204 103.624 141.348 104.088 141.636 104.376C141.956 104.632 142.34 104.76 142.788 104.76C143.492 104.76 144.244 104.584 145.044 104.232C145.844 103.848 146.596 103.416 147.3 102.936C148.004 102.456 148.532 102.072 148.884 101.784C149.236 101.464 149.572 101.144 149.892 100.824C150.244 100.472 150.628 100.088 151.044 99.672C151.364 99.32 151.668 98.984 151.956 98.664C152.244 98.312 152.516 97.96 152.772 97.608C152.868 97.512 152.948 97.464 153.012 97.464C153.204 97.464 153.3 97.608 153.3 97.896C153.3 98.056 153.236 98.2 153.108 98.328C152.532 99.032 151.956 99.736 151.38 100.44C150.804 101.112 150.212 101.768 149.604 102.408C148.9 103.144 147.924 103.88 146.676 104.616C145.46 105.352 144.1 105.72 142.596 105.72ZM142.164 99.096C142.996 98.744 143.956 98.232 145.044 97.56C146.164 96.888 147.236 96.088 148.26 95.16C149.316 94.2 150.18 93.176 150.852 92.088C151.076 91.736 151.188 91.416 151.188 91.128C151.188 90.68 150.932 90.456 150.42 90.456C150.068 90.456 149.636 90.584 149.124 90.84C147.524 91.704 146.148 92.872 144.996 94.344C143.844 95.816 142.9 97.4 142.164 99.096Z" fill="#1A1A1A"/>
<path d="M100.106 18V16.632L103.814 10.854C104.09 10.422 104.342 10.02 104.57 9.648C104.81 9.276 105.002 8.886 105.146 8.478C105.302 8.058 105.38 7.578 105.38 7.038C105.38 6.366 105.272 5.838 105.056 5.454C104.84 5.07 104.462 4.878 103.922 4.878C103.466 4.878 103.112 5.004 102.86 5.256C102.608 5.508 102.434 5.838 102.338 6.246C102.242 6.654 102.194 7.092 102.194 7.56V8.046H100.268V7.542C100.268 6.666 100.382 5.916 100.61 5.292C100.85 4.656 101.228 4.164 101.744 3.816C102.272 3.468 102.968 3.294 103.832 3.294C105.008 3.294 105.884 3.63 106.46 4.302C107.036 4.962 107.324 5.88 107.324 7.056C107.324 7.68 107.246 8.226 107.09 8.694C106.946 9.162 106.754 9.6 106.514 10.008C106.274 10.416 106.01 10.836 105.722 11.268L102.374 16.38H106.982V18H100.106ZM112.791 18V14.094H108.561V12.078L112.359 3.42H114.627V12.384H116.265V14.094H114.627V18H112.791ZM110.415 12.384H112.791V5.76L110.415 12.384ZM117.676 18V3.42H119.71V9.72H123.454V3.42H125.488V18H123.454V11.178H119.71V18H117.676Z" fill="#1A1A1A"/>
<line x1="92" y1="0.5" x2="135" y2="0.499996" stroke="#1A1A1A"/>
<line x1="92" y1="22.5" x2="135" y2="22.5" stroke="#1A1A1A"/>
</svg>
