<svg width="1966" height="348" viewBox="0 0 1966 348" fill="none" xmlns="http://www.w3.org/2000/svg">
<path d="M23.6803 288.603L21.2569 290.721L27.5916 297.967L26.1917 299.191L19.857 291.945L17.4396 294.058L16.4009 292.87L22.6417 287.414L23.6803 288.603Z" fill="#1A1A1A"/>
<path d="M39.8654 287.864L38.2683 289.132L35.7061 287.525L32.2549 290.264L33.2689 293.1L31.6779 294.363L27.999 282.979L29.6389 281.678L39.8654 287.864ZM34.3784 286.643L30.3824 284.11C30.2551 284.025 30.0706 283.872 29.829 283.651L29.8046 283.671C29.9524 283.932 30.0573 284.148 30.1193 284.319L31.692 288.776L34.3784 286.643Z" fill="#1A1A1A"/>
<path d="M44.2787 284.621L42.7301 285.746L36.1454 276.683L37.694 275.558L44.2787 284.621Z" fill="#1A1A1A"/>
<path d="M53.7835 264.792L57.244 275.881L55.4747 277.015L49.4506 271.569C49.1962 271.336 48.9534 271.059 48.7223 270.737L48.696 270.753C48.8736 271.079 49.0149 271.415 49.1199 271.762L51.5546 279.528L49.7458 280.687L41.0628 272.946L42.7795 271.845L48.9162 277.655C49.1719 277.9 49.4096 278.174 49.6295 278.479L49.6624 278.458C49.5366 278.223 49.4041 277.881 49.2648 277.432L46.772 269.286L48.3835 268.253L54.6328 274.066C54.846 274.263 55.0719 274.514 55.3106 274.819L55.3369 274.802C55.2095 274.574 55.0744 274.253 54.9317 273.837L52.1655 265.829L53.7835 264.792Z" fill="#1A1A1A"/>
<path d="M71.8241 267.717L70.0229 268.673L67.796 266.626L63.9038 268.692L64.3848 271.665L62.5906 272.617L61.0448 260.754L62.8942 259.773L71.8241 267.717ZM66.6507 265.518L63.1827 262.3C63.0729 262.193 62.9193 262.009 62.722 261.748L62.6943 261.763C62.7921 262.047 62.856 262.279 62.8859 262.457L63.6212 267.126L66.6507 265.518Z" fill="#1A1A1A"/>
<path d="M83.4668 262.443L81.6036 263.252L73.4155 257.83C73.2083 257.692 73.0195 257.539 72.8491 257.369L72.8061 257.387C72.9397 257.59 73.1631 258.053 73.4763 258.774L76.4009 265.51L74.7526 266.226L70.2911 255.95L72.2762 255.088L80.2217 260.402C80.5551 260.621 80.7754 260.775 80.8825 260.865L80.9111 260.852C80.7451 260.601 80.5211 260.15 80.239 259.5L77.3642 252.879L79.0053 252.166L83.4668 262.443Z" fill="#1A1A1A"/>
<path d="M102.161 255.27C101.224 256.211 100.068 256.886 98.6954 257.293C97.1076 257.765 95.6752 257.652 94.3981 256.956C93.121 256.259 92.2408 255.097 91.7576 253.469C91.264 251.806 91.3961 250.284 92.1539 248.902C92.9152 247.513 94.1247 246.573 95.7823 246.081C96.9756 245.726 98.0311 245.603 98.9487 245.711L99.4934 247.546C98.5066 247.241 97.4439 247.258 96.3055 247.596C95.1621 247.935 94.3354 248.591 93.8252 249.563C93.3201 250.533 93.2453 251.618 93.6011 252.816C93.9672 254.049 94.57 254.927 95.4096 255.449C96.2477 255.966 97.206 256.065 98.2845 255.745C99.0235 255.525 99.6203 255.193 100.075 254.749L99.3169 252.195L97.0551 252.866L96.6104 251.368L100.647 250.17L102.161 255.27Z" fill="#1A1A1A"/>
<path d="M114.419 248.661C115.042 251.744 113.893 253.581 110.973 254.171C108.175 254.736 106.477 253.535 105.878 250.569L104.521 243.853L106.344 243.485L107.624 249.826C108.059 251.98 109.114 252.888 110.789 252.55C112.402 252.224 112.999 251.023 112.579 248.945L111.275 242.489L113.098 242.121L114.419 248.661Z" fill="#1A1A1A"/>
<path d="M122.926 251.967L121.027 252.213L119.587 241.103L121.486 240.857L122.926 251.967Z" fill="#1A1A1A"/>
<path d="M127.409 251.366L126.717 240.184L129.945 239.985C134.067 239.73 136.241 241.419 136.466 245.053C136.572 246.778 136.087 248.202 135.008 249.323C133.929 250.438 132.428 251.056 130.504 251.175L127.409 251.366ZM128.662 241.645L129.16 249.684L130.641 249.593C131.946 249.512 132.937 249.091 133.616 248.329C134.299 247.566 134.6 246.53 134.519 245.22C134.357 242.605 132.922 241.382 130.214 241.549L128.662 241.645Z" fill="#1A1A1A"/>
<path d="M148.066 250.834L141.778 250.7L142.017 239.5L148.055 239.628L148.021 241.206L143.842 241.117L143.775 244.288L147.625 244.37L147.592 245.94L143.741 245.858L143.671 249.17L148.1 249.264L148.066 250.834Z" fill="#1A1A1A"/>
<path d="M163.743 252.21L156.763 251.358L156.868 250.497C156.911 250.145 157.001 249.823 157.136 249.53C157.272 249.232 157.439 248.958 157.638 248.71C157.836 248.456 158.062 248.224 158.313 248.013C158.565 247.797 158.831 247.594 159.112 247.402C159.393 247.206 159.678 247.02 159.967 246.845C160.256 246.666 160.54 246.485 160.82 246.304C161.082 246.132 161.323 245.962 161.543 245.794C161.763 245.622 161.956 245.441 162.121 245.251C162.286 245.061 162.421 244.857 162.526 244.639C162.632 244.416 162.701 244.17 162.734 243.901C162.77 243.607 162.755 243.345 162.688 243.116C162.628 242.883 162.523 242.684 162.376 242.519C162.234 242.35 162.056 242.215 161.842 242.116C161.63 242.011 161.391 241.943 161.128 241.911C160.673 241.855 160.197 241.905 159.701 242.059C159.204 242.214 158.713 242.476 158.227 242.847L158.438 241.118C158.687 240.975 158.935 240.856 159.182 240.76C159.431 240.659 159.684 240.583 159.942 240.53C160.201 240.473 160.47 240.44 160.749 240.432C161.028 240.424 161.323 240.439 161.633 240.477C162.135 240.538 162.581 240.661 162.974 240.845C163.366 241.024 163.691 241.261 163.949 241.555C164.208 241.843 164.392 242.188 164.5 242.59C164.613 242.992 164.64 243.441 164.579 243.938C164.524 244.387 164.418 244.786 164.26 245.134C164.108 245.478 163.91 245.792 163.665 246.077C163.426 246.363 163.144 246.627 162.82 246.871C162.497 247.115 162.139 247.362 161.746 247.614C161.416 247.82 161.088 248.021 160.759 248.217C160.437 248.409 160.143 248.601 159.878 248.794C159.614 248.982 159.393 249.179 159.216 249.383C159.045 249.582 158.946 249.793 158.918 250.015L158.914 250.054L163.931 250.666L163.743 252.21Z" fill="#1A1A1A"/>
<path d="M176.25 242.973L174.886 250.077L176.52 250.391L176.235 251.872L174.601 251.558L174.137 253.975L172.411 253.643L172.875 251.226L167.896 250.27L168.183 248.774C168.73 248.354 169.296 247.895 169.879 247.397C170.469 246.895 171.04 246.379 171.593 245.849C172.152 245.314 172.677 244.774 173.169 244.227C173.662 243.679 174.09 243.146 174.455 242.628L176.25 242.973ZM173.159 249.746L174.047 245.127C173.296 246.022 172.576 246.791 171.885 247.432C171.2 248.075 170.563 248.642 169.975 249.134L173.159 249.746Z" fill="#1A1A1A"/>
<path d="M189.453 257.718L187.65 257.231L188.918 252.54L183.827 251.164L182.559 255.855L180.764 255.37L183.686 244.555L185.481 245.04L184.253 249.588L189.344 250.963L190.572 246.416L192.375 246.903L189.453 257.718Z" fill="#1A1A1A"/>
<path d="M213.547 256.029L210.553 254.847L207.017 263.799L205.288 263.116L208.824 254.164L205.837 252.984L206.417 251.516L214.126 254.562L213.547 256.029Z" fill="#1A1A1A"/>
<path d="M222.055 270.334L220.201 269.486L220.47 266.473L216.463 264.64L214.396 266.831L212.549 265.986L221.024 257.543L222.928 258.414L222.055 270.334ZM220.653 264.89L221.098 260.18C221.116 260.028 221.169 259.794 221.256 259.479L221.227 259.466C221.061 259.716 220.916 259.908 220.793 260.04L217.534 263.464L220.653 264.89Z" fill="#1A1A1A"/>
<path d="M226.397 272.516L224.688 271.654L229.733 261.651L231.442 262.513L226.397 272.516Z" fill="#1A1A1A"/>
<path d="M248.441 271.261L240.655 279.882L238.779 278.936L240.403 270.979C240.474 270.641 240.589 270.291 240.749 269.928L240.721 269.914C240.531 270.233 240.314 270.525 240.068 270.792L234.621 276.839L232.703 275.872L234.95 264.458L236.771 265.376L234.891 273.615C234.811 273.96 234.695 274.304 234.545 274.648L234.58 274.666C234.718 274.438 234.945 274.15 235.261 273.802L241.005 267.511L242.714 268.373L240.89 276.71C240.828 276.994 240.727 277.317 240.586 277.677L240.614 277.691C240.745 277.466 240.953 277.186 241.239 276.851L246.725 270.396L248.441 271.261Z" fill="#1A1A1A"/>
<path d="M253.466 285.581L251.591 284.779L251.786 281.761L247.735 280.028L245.723 282.268L243.855 281.469L252.119 272.819L254.044 273.643L253.466 285.581ZM251.93 280.174L252.258 275.454C252.273 275.301 252.319 275.066 252.398 274.749L252.37 274.737C252.21 274.991 252.07 275.186 251.949 275.322L248.777 278.825L251.93 280.174Z" fill="#1A1A1A"/>
<path d="M264.511 289.616L262.595 288.94L260.289 279.395C260.23 279.153 260.196 278.912 260.187 278.671L260.143 278.656C260.103 278.896 259.952 279.386 259.69 280.128L257.247 287.053L255.552 286.455L259.28 275.891L261.321 276.611L263.523 285.912C263.618 286.3 263.675 286.563 263.692 286.701L263.721 286.712C263.771 286.414 263.914 285.932 264.149 285.264L266.551 278.456L268.238 279.052L264.511 289.616Z" fill="#1A1A1A"/>
<path d="M280.515 293.232C279.23 293.572 277.893 293.57 276.502 293.229C274.893 292.834 273.713 292.014 272.963 290.768C272.212 289.522 272.039 288.074 272.443 286.425C272.857 284.741 273.739 283.494 275.091 282.683C276.449 281.869 277.968 281.667 279.647 282.079C280.856 282.376 281.83 282.803 282.567 283.359L282.111 285.218C281.413 284.457 280.487 283.935 279.334 283.652C278.176 283.367 277.131 283.516 276.2 284.097C275.274 284.68 274.662 285.578 274.364 286.792C274.058 288.042 274.135 289.104 274.596 289.978C275.059 290.848 275.836 291.417 276.929 291.685C277.677 291.869 278.36 291.883 278.977 291.729L279.612 289.142L277.321 288.579L277.693 287.062L281.783 288.065L280.515 293.232Z" fill="#1A1A1A"/>
<path d="M292.156 291.497C291.648 294.602 289.924 295.914 286.984 295.433C284.167 294.972 283.003 293.248 283.491 290.262L284.598 283.5L286.433 283.801L285.388 290.185C285.033 292.354 285.699 293.576 287.385 293.852C289.009 294.118 289.992 293.204 290.335 291.112L291.398 284.613L293.233 284.913L292.156 291.497Z" fill="#1A1A1A"/>
<path d="M297.01 296.599L295.105 296.409L296.214 285.261L298.119 285.451L297.01 296.599Z" fill="#1A1A1A"/>
<path d="M300.124 296.979L300.51 285.783L303.742 285.894C307.87 286.036 309.871 287.927 309.746 291.565C309.687 293.293 309.066 294.663 307.885 295.675C306.704 296.682 305.15 297.152 303.224 297.086L300.124 296.979ZM302.306 287.424L302.029 295.474L303.512 295.525C304.819 295.57 305.846 295.246 306.595 294.552C307.348 293.859 307.747 292.856 307.793 291.545C307.883 288.926 306.572 287.571 303.86 287.477L302.306 287.424Z" fill="#1A1A1A"/>
<path d="M318.664 296.966L312.382 297.27L311.84 286.08L317.872 285.788L317.948 287.364L313.773 287.566L313.927 290.734L317.774 290.548L317.85 292.116L314.003 292.303L314.163 295.611L318.588 295.397L318.664 296.966Z" fill="#1A1A1A"/>
<path d="M331.976 295.324L325.03 296.415L324.895 295.558C324.84 295.208 324.838 294.874 324.888 294.555C324.937 294.231 325.023 293.922 325.146 293.628C325.268 293.33 325.421 293.045 325.605 292.773C325.788 292.497 325.988 292.228 326.206 291.967C326.422 291.701 326.645 291.445 326.876 291.198C327.105 290.946 327.329 290.694 327.548 290.444C327.753 290.206 327.939 289.976 328.104 289.755C328.269 289.529 328.405 289.302 328.511 289.075C328.618 288.847 328.692 288.614 328.734 288.375C328.775 288.132 328.774 287.876 328.732 287.609C328.686 287.315 328.6 287.068 328.473 286.866C328.351 286.659 328.196 286.496 328.009 286.378C327.826 286.254 327.618 286.173 327.386 286.136C327.152 286.093 326.904 286.093 326.642 286.134C326.189 286.205 325.745 286.383 325.31 286.667C324.875 286.952 324.474 287.339 324.108 287.828L323.838 286.107C324.038 285.902 324.244 285.719 324.456 285.56C324.667 285.395 324.89 285.252 325.124 285.13C325.357 285.004 325.607 284.899 325.873 284.815C326.14 284.731 326.427 284.665 326.736 284.616C327.235 284.538 327.698 284.534 328.126 284.604C328.552 284.669 328.93 284.807 329.258 285.019C329.586 285.226 329.857 285.508 330.071 285.864C330.291 286.22 330.439 286.645 330.517 287.139C330.587 287.586 330.594 287.999 330.537 288.377C330.485 288.749 330.38 289.105 330.223 289.447C330.07 289.787 329.872 290.118 329.627 290.441C329.383 290.765 329.106 291.101 328.797 291.45C328.537 291.738 328.276 292.022 328.013 292.3C327.756 292.573 327.526 292.838 327.324 293.097C327.121 293.35 326.963 293.599 326.848 293.843C326.738 294.082 326.7 294.312 326.735 294.533L326.741 294.572L331.735 293.788L331.976 295.324Z" fill="#1A1A1A"/>
<path d="M338.017 282.558L339.684 289.598L341.304 289.214L341.651 290.681L340.032 291.065L340.599 293.46L338.889 293.865L338.321 291.47L333.388 292.639L333.036 291.156C333.364 290.549 333.691 289.899 334.02 289.205C334.352 288.506 334.661 287.801 334.948 287.091C335.238 286.374 335.496 285.666 335.721 284.965C335.945 284.264 336.118 283.602 336.238 282.98L338.017 282.558ZM337.974 290.003L336.89 285.426C336.573 286.551 336.231 287.547 335.864 288.415C335.502 289.282 335.153 290.061 334.819 290.75L337.974 290.003Z" fill="#1A1A1A"/>
<path d="M352.61 289.862L350.834 290.439L349.33 285.818L344.316 287.45L345.819 292.071L344.051 292.646L340.585 281.993L342.353 281.418L343.811 285.898L348.825 284.266L347.367 279.786L349.143 279.208L352.61 289.862Z" fill="#1A1A1A"/>
<path d="M366.348 273.376L363.457 274.791L367.689 283.435L366.019 284.253L361.787 275.608L358.903 277.02L358.209 275.603L365.654 271.958L366.348 273.376Z" fill="#1A1A1A"/>
<path d="M380.206 276.629L378.437 277.642L376.146 275.667L372.321 277.856L372.897 280.812L371.134 281.821L369.211 270.013L371.028 268.973L380.206 276.629ZM374.966 274.596L371.397 271.49C371.284 271.387 371.125 271.208 370.919 270.953L370.892 270.969C370.999 271.25 371.07 271.479 371.105 271.657L371.989 276.3L374.966 274.596Z" fill="#1A1A1A"/>
<path d="M383.86 274.279L382.248 275.312L376.203 265.88L377.814 264.847L383.86 274.279Z" fill="#1A1A1A"/>
<path d="M391.365 255.345L395.466 266.213L393.765 267.449L387.434 262.363C387.167 262.145 386.908 261.882 386.659 261.574L386.633 261.593C386.83 261.907 386.99 262.234 387.115 262.575L389.998 270.185L388.26 271.448L379.141 264.226L380.79 263.027L387.255 268.47C387.525 268.699 387.778 268.959 388.015 269.25L388.047 269.227C387.908 269 387.755 268.667 387.59 268.227L384.627 260.24L386.176 259.115L392.753 264.553C392.977 264.738 393.217 264.975 393.473 265.266L393.499 265.247C393.358 265.028 393.205 264.714 393.038 264.307L389.81 256.475L391.365 255.345Z" fill="#1A1A1A"/>
<path d="M406.879 256.968L405.313 258.274L402.712 256.729L399.328 259.551L400.41 262.361L398.85 263.662L394.898 252.371L396.506 251.03L406.879 256.968ZM401.364 255.88L397.308 253.443C397.179 253.361 396.991 253.213 396.744 252.998L396.72 253.018C396.874 253.277 396.984 253.49 397.05 253.659L398.73 258.076L401.364 255.88Z" fill="#1A1A1A"/>
<path d="M416.044 248.766L414.521 250.11L405.06 247.476C404.821 247.409 404.594 247.321 404.379 247.212L404.344 247.243C404.534 247.395 404.889 247.766 405.409 248.356L410.268 253.862L408.92 255.051L401.509 246.65L403.131 245.219L412.328 247.825C412.713 247.93 412.97 248.009 413.099 248.062L413.123 248.041C412.887 247.853 412.535 247.493 412.067 246.962L407.291 241.549L408.632 240.365L416.044 248.766Z" fill="#1A1A1A"/>
<path d="M430.829 236.122C430.277 237.331 429.428 238.365 428.282 239.224C426.957 240.218 425.575 240.61 424.135 240.401C422.696 240.192 421.467 239.408 420.448 238.05C419.407 236.662 419.002 235.189 419.232 233.629C419.463 232.063 420.27 230.761 421.653 229.723C422.649 228.976 423.596 228.494 424.494 228.276L425.643 229.807C424.611 229.864 423.621 230.249 422.671 230.962C421.717 231.678 421.169 232.58 421.029 233.668C420.892 234.754 421.199 235.796 421.949 236.796C422.721 237.825 423.592 238.439 424.56 238.637C425.526 238.831 426.459 238.59 427.359 237.915C427.975 237.452 428.42 236.933 428.691 236.358L427.093 234.227L425.205 235.643L424.268 234.393L427.636 231.866L430.829 236.122Z" fill="#1A1A1A"/>
<path d="M438.632 226.279C440.365 228.904 439.989 231.037 437.503 232.679C435.121 234.251 433.096 233.775 431.429 231.25L427.654 225.532L429.206 224.507L432.77 229.906C433.981 231.74 435.299 232.186 436.725 231.245C438.098 230.338 438.201 229 437.033 227.231L433.404 221.735L434.956 220.711L438.632 226.279Z" fill="#1A1A1A"/>
<path d="M447.428 226.228L445.778 227.197L440.104 217.537L441.754 216.568L447.428 226.228Z" fill="#1A1A1A"/>
<path d="M451.55 223.788L446.415 213.831L449.29 212.348C452.961 210.455 455.631 211.127 457.299 214.362C458.092 215.899 458.22 217.398 457.684 218.858C457.145 220.314 456.02 221.483 454.307 222.366L451.55 223.788ZM448.784 214.385L452.476 221.544L453.795 220.863C454.957 220.264 455.695 219.479 456.009 218.509C456.328 217.535 456.186 216.466 455.585 215.299C454.384 212.971 452.578 212.428 450.166 213.672L448.784 214.385Z" fill="#1A1A1A"/>
<path d="M470.184 214.906L464.4 217.375L460.002 207.071L465.556 204.701L466.176 206.152L462.332 207.793L463.577 210.71L467.119 209.198L467.736 210.642L464.193 212.154L465.494 215.201L469.568 213.462L470.184 214.906Z" fill="#1A1A1A"/>
<path d="M485.229 209.606L478.522 211.717L478.261 210.889C478.155 210.552 478.103 210.221 478.105 209.898C478.106 209.571 478.145 209.252 478.223 208.944C478.299 208.631 478.408 208.326 478.549 208.03C478.689 207.73 478.848 207.434 479.024 207.144C479.199 206.849 479.381 206.562 479.572 206.284C479.761 206 479.946 205.718 480.125 205.438C480.293 205.172 480.442 204.918 480.573 204.675C480.702 204.426 480.803 204.182 480.874 203.941C480.946 203.7 480.985 203.458 480.99 203.216C480.994 202.969 480.956 202.717 480.875 202.458C480.786 202.175 480.663 201.943 480.508 201.763C480.357 201.576 480.179 201.438 479.977 201.349C479.777 201.253 479.56 201.204 479.324 201.202C479.087 201.194 478.842 201.231 478.589 201.31C478.151 201.448 477.739 201.69 477.351 202.036C476.963 202.382 476.624 202.824 476.335 203.363L475.812 201.701C475.979 201.468 476.156 201.257 476.342 201.067C476.526 200.873 476.725 200.698 476.939 200.544C477.151 200.384 477.382 200.243 477.633 200.121C477.884 199.998 478.158 199.89 478.456 199.796C478.938 199.644 479.396 199.571 479.829 199.577C480.26 199.578 480.654 199.658 481.011 199.819C481.365 199.975 481.675 200.213 481.94 200.534C482.21 200.853 482.42 201.251 482.57 201.728C482.706 202.161 482.774 202.568 482.774 202.95C482.777 203.326 482.727 203.694 482.622 204.054C482.522 204.413 482.375 204.771 482.181 205.127C481.987 205.483 481.764 205.856 481.51 206.247C481.295 206.571 481.079 206.89 480.861 207.205C480.647 207.512 480.459 207.809 480.298 208.095C480.135 208.375 480.015 208.645 479.938 208.904C479.865 209.156 479.861 209.389 479.929 209.603L479.94 209.64L484.762 208.123L485.229 209.606Z" fill="#1A1A1A"/>
<path d="M492.32 196.181L493.987 203.221L495.607 202.838L495.954 204.305L494.335 204.688L494.902 207.083L493.192 207.488L492.624 205.093L487.691 206.262L487.339 204.78C487.667 204.172 487.994 203.522 488.322 202.829C488.655 202.129 488.964 201.424 489.251 200.714C489.541 199.998 489.799 199.289 490.024 198.588C490.248 197.887 490.421 197.225 490.541 196.603L492.32 196.181ZM492.277 203.626L491.193 199.05C490.876 200.174 490.534 201.17 490.167 202.039C489.805 202.906 489.456 203.684 489.122 204.373L492.277 203.626Z" fill="#1A1A1A"/>
<path d="M510.101 204.384L508.254 204.656L507.548 199.848L502.331 200.613L503.036 205.421L501.196 205.691L499.57 194.607L501.41 194.337L502.094 198.998L507.311 198.232L506.627 193.571L508.475 193.3L510.101 204.384Z" fill="#1A1A1A"/>
<path d="M534.085 193.718L530.866 193.681L530.756 203.305L528.897 203.284L529.007 193.66L525.796 193.623L525.814 192.045L534.103 192.14L534.085 193.718Z" fill="#1A1A1A"/>
<path d="M546.581 204.259L544.55 204.083L543.792 201.155L539.402 200.775L538.191 203.532L536.167 203.357L541.313 192.557L543.399 192.738L546.581 204.259ZM543.432 199.602L542.269 195.016C542.235 194.867 542.206 194.629 542.181 194.303L542.15 194.3C542.078 194.592 542.006 194.821 541.934 194.987L540.015 199.307L543.432 199.602Z" fill="#1A1A1A"/>
<path d="M552.146 205.049L550.253 204.77L551.89 193.687L553.783 193.967L552.146 205.049Z" fill="#1A1A1A"/>
<path d="M572.49 197.641L567.081 207.921L565.028 207.468L564.632 199.357C564.617 199.012 564.642 198.645 564.707 198.254L564.677 198.247C564.572 198.602 564.433 198.94 564.262 199.259L560.481 206.466L558.383 206.004L557.735 194.389L559.726 194.828L559.944 203.276C559.952 203.63 559.925 203.992 559.865 204.362L559.903 204.371C559.981 204.116 560.129 203.781 560.349 203.365L564.357 195.848L566.226 196.26L566.523 204.79C566.533 205.08 566.515 205.417 566.468 205.802L566.498 205.808C566.57 205.557 566.702 205.234 566.896 204.84L570.613 197.227L572.49 197.641Z" fill="#1A1A1A"/>
<path d="M582.905 212.444L580.957 211.84L580.84 208.818L576.631 207.512L574.861 209.949L572.921 209.347L580.247 199.89L582.247 200.51L582.905 212.444ZM580.819 207.224L580.658 202.496C580.656 202.342 580.678 202.104 580.724 201.78L580.694 201.771C580.562 202.04 580.442 202.249 580.337 202.396L577.543 206.208L580.819 207.224Z" fill="#1A1A1A"/>
<path d="M596.081 217.351L594.188 216.615L592.185 207C592.135 206.757 592.109 206.515 592.107 206.274L592.064 206.257C592.016 206.496 591.849 206.981 591.564 207.714L588.902 214.558L587.227 213.907L591.289 203.466L593.305 204.25L595.211 213.618C595.294 214.008 595.342 214.272 595.355 214.411L595.384 214.423C595.443 214.127 595.601 213.649 595.858 212.989L598.475 206.261L600.142 206.91L596.081 217.351Z" fill="#1A1A1A"/>
<path d="M613.613 224.546C612.286 224.606 610.979 224.323 609.691 223.696C608.202 222.971 607.222 221.921 606.75 220.544C606.279 219.168 606.415 217.717 607.158 216.19C607.917 214.631 609.043 213.597 610.536 213.09C612.035 212.58 613.562 212.704 615.117 213.46C616.236 214.005 617.097 214.627 617.701 215.327L616.863 217.048C616.342 216.156 615.547 215.451 614.479 214.931C613.407 214.409 612.354 214.334 611.321 214.706C610.294 215.08 609.506 215.83 608.959 216.954C608.396 218.11 608.248 219.165 608.514 220.117C608.783 221.064 609.423 221.784 610.434 222.277C611.127 222.614 611.792 222.772 612.427 222.752L613.593 220.356L611.472 219.324L612.156 217.919L615.942 219.762L613.613 224.546Z" fill="#1A1A1A"/>
<path d="M626.413 227.017C624.965 229.81 622.918 230.52 620.274 229.148C617.74 227.833 617.17 225.833 618.564 223.147L621.719 217.065L623.37 217.922L620.391 223.664C619.378 225.615 619.63 226.983 621.147 227.77C622.608 228.528 623.826 227.966 624.803 226.085L627.836 220.239L629.486 221.095L626.413 227.017Z" fill="#1A1A1A"/>
<path d="M629.4 233.479L627.667 232.666L632.426 222.524L634.158 223.337L629.4 233.479Z" fill="#1A1A1A"/>
<path d="M632.935 235.178L637.237 224.834L640.223 226.076C644.037 227.663 645.245 230.136 643.847 233.498C643.182 235.094 642.119 236.158 640.657 236.69C639.197 237.216 637.578 237.11 635.798 236.37L632.935 235.178ZM638.341 227.003L635.247 234.44L636.618 235.01C637.825 235.512 638.901 235.57 639.845 235.184C640.794 234.801 641.521 234.003 642.025 232.791C643.031 230.372 642.282 228.642 639.776 227.6L638.341 227.003Z" fill="#1A1A1A"/>
<path d="M650.292 241.911L644.356 239.834L648.055 229.26L653.755 231.254L653.234 232.743L649.289 231.363L648.241 234.357L651.877 235.629L651.358 237.111L647.723 235.839L646.629 238.966L650.81 240.429L650.292 241.911Z" fill="#1A1A1A"/>
<path d="M663.273 245.674L656.469 243.899L656.688 243.06C656.778 242.717 656.909 242.41 657.082 242.137C657.257 241.86 657.459 241.611 657.689 241.391C657.92 241.166 658.174 240.966 658.451 240.791C658.73 240.61 659.021 240.444 659.324 240.292C659.629 240.134 659.936 239.988 660.246 239.854C660.557 239.714 660.862 239.573 661.163 239.431C661.446 239.295 661.708 239.159 661.948 239.022C662.19 238.881 662.405 238.727 662.593 238.561C662.782 238.395 662.943 238.211 663.077 238.009C663.211 237.802 663.313 237.567 663.381 237.305C663.456 237.018 663.476 236.757 663.44 236.521C663.411 236.282 663.335 236.071 663.21 235.888C663.092 235.701 662.934 235.544 662.735 235.417C662.539 235.285 662.312 235.185 662.054 235.118C661.611 235.002 661.133 234.988 660.62 235.075C660.108 235.162 659.586 235.357 659.055 235.66L659.495 233.974C659.76 233.865 660.022 233.78 660.28 233.719C660.54 233.652 660.801 233.61 661.064 233.592C661.328 233.57 661.599 233.573 661.877 233.602C662.154 233.632 662.444 233.686 662.747 233.765C663.236 233.892 663.662 234.073 664.026 234.308C664.391 234.538 664.682 234.816 664.899 235.142C665.116 235.462 665.252 235.829 665.306 236.241C665.365 236.655 665.331 237.103 665.205 237.587C665.091 238.026 664.932 238.407 664.729 238.731C664.533 239.051 664.294 239.336 664.014 239.586C663.738 239.837 663.424 240.061 663.071 240.26C662.717 240.458 662.329 240.656 661.907 240.853C661.553 241.013 661.2 241.169 660.848 241.319C660.503 241.466 660.187 241.618 659.898 241.774C659.611 241.925 659.366 242.09 659.164 242.268C658.967 242.443 658.841 242.639 658.784 242.856L658.774 242.893L663.665 244.17L663.273 245.674Z" fill="#1A1A1A"/>
<path d="M674.422 236.588L673.057 243.692L674.691 244.006L674.407 245.487L672.773 245.173L672.308 247.59L670.582 247.258L671.046 244.841L666.067 243.885L666.355 242.389C666.902 241.969 667.467 241.51 668.051 241.012C668.641 240.51 669.212 239.994 669.764 239.464C670.323 238.929 670.849 238.389 671.341 237.842C671.833 237.294 672.262 236.761 672.627 236.243L674.422 236.588ZM671.331 243.361L672.218 238.742C671.468 239.637 670.748 240.406 670.057 241.047C669.371 241.69 668.735 242.257 668.147 242.749L671.331 243.361Z" fill="#1A1A1A"/>
<path d="M685.395 249.373L683.539 249.165L684.082 244.336L678.842 243.747L678.299 248.576L676.451 248.368L677.703 237.235L679.551 237.443L679.024 242.124L684.265 242.713L684.791 238.032L686.647 238.24L685.395 249.373Z" fill="#1A1A1A"/>
<path d="M703.629 239.981L700.412 240.094L700.75 249.713L698.892 249.778L698.554 240.159L695.345 240.271L695.29 238.694L703.574 238.404L703.629 239.981Z" fill="#1A1A1A"/>
<path d="M715.158 248.459L713.133 248.694L711.803 245.978L707.426 246.485L706.793 249.43L704.775 249.664L707.652 238.052L709.731 237.811L715.158 248.459ZM711.14 244.529L709.081 240.269C709.017 240.13 708.941 239.903 708.852 239.588L708.821 239.591C708.809 239.892 708.784 240.13 708.747 240.308L707.733 244.924L711.14 244.529Z" fill="#1A1A1A"/>
<path d="M719.471 247.658L717.588 248.006L715.554 236.989L717.437 236.641L719.471 247.658Z" fill="#1A1A1A"/>
<path d="M732.424 232.977L732.364 244.593L730.334 245.138L726.242 238.123C726.07 237.824 725.923 237.486 725.8 237.109L725.77 237.117C725.841 237.481 725.873 237.844 725.868 238.207L725.837 246.345L723.762 246.902L717.831 236.895L719.801 236.366L723.89 243.762C724.059 244.072 724.203 244.406 724.32 244.763L724.358 244.752C724.309 244.491 724.286 244.125 724.29 243.654L724.381 235.136L726.229 234.64L730.425 242.072C730.568 242.324 730.708 242.632 730.843 242.995L730.873 242.987C730.82 242.731 730.789 242.384 730.779 241.944L730.568 233.475L732.424 232.977Z" fill="#1A1A1A"/>
<path d="M745.897 239.805L743.991 240.528L742.037 238.22L737.917 239.783L738.023 242.793L736.124 243.513L736.072 231.55L738.03 230.808L745.897 239.805ZM741.039 236.977L738 233.351C737.905 233.231 737.775 233.029 737.612 232.746L737.583 232.757C737.644 233.051 737.679 233.289 737.686 233.47L737.833 238.194L741.039 236.977Z" fill="#1A1A1A"/>
<path d="M756.136 235.047L754.303 235.924L745.922 230.806C745.71 230.676 745.516 230.529 745.339 230.366L745.297 230.386C745.438 230.584 745.678 231.038 746.017 231.747L749.187 238.372L747.566 239.147L742.731 229.041L744.683 228.107L752.818 233.127C753.159 233.333 753.385 233.479 753.495 233.565L753.523 233.552C753.348 233.306 753.108 232.864 752.802 232.225L749.687 225.713L751.301 224.941L756.136 235.047Z" fill="#1A1A1A"/>
<path d="M770.295 225.994C769.633 227.146 768.692 228.096 767.471 228.846C766.06 229.712 764.647 229.975 763.233 229.633C761.819 229.291 760.668 228.397 759.78 226.95C758.872 225.472 758.605 223.967 758.979 222.436C759.354 220.897 760.279 219.676 761.752 218.771C762.813 218.119 763.801 217.727 764.715 217.593L765.716 219.225C764.684 219.186 763.662 219.477 762.65 220.099C761.634 220.723 761.005 221.57 760.764 222.641C760.528 223.709 760.737 224.776 761.391 225.841C762.064 226.938 762.874 227.629 763.82 227.916C764.764 228.198 765.715 228.045 766.673 227.456C767.33 227.053 767.821 226.578 768.145 226.03L766.751 223.76L764.74 224.995L763.922 223.663L767.511 221.46L770.295 225.994Z" fill="#1A1A1A"/>
<path d="M777.049 216.746C778.864 219.315 778.556 221.459 776.123 223.178C773.793 224.826 771.754 224.414 770.007 221.943L766.052 216.348L767.571 215.275L771.305 220.557C772.573 222.352 773.905 222.756 775.3 221.77C776.644 220.82 776.704 219.48 775.481 217.749L771.679 212.371L773.197 211.298L777.049 216.746Z" fill="#1A1A1A"/>
<path d="M784.338 216.879L782.827 218.055L775.949 209.212L777.46 208.036L784.338 216.879Z" fill="#1A1A1A"/>
<path d="M786.888 214.948L779.653 206.394L782.123 204.306C785.276 201.638 788.028 201.695 790.38 204.474C791.496 205.794 791.957 207.226 791.762 208.769C791.563 210.309 790.728 211.701 789.256 212.945L786.888 214.948ZM782.086 206.404L787.288 212.553L788.421 211.595C789.419 210.75 789.963 209.82 790.051 208.804C790.144 207.784 789.766 206.773 788.919 205.771C787.227 203.771 785.345 203.647 783.273 205.4L782.086 206.404Z" fill="#1A1A1A"/>
<path d="M802.079 201.709L797.354 205.859L789.961 197.442L794.499 193.456L795.54 194.642L792.4 197.4L794.493 199.784L797.387 197.242L798.423 198.422L795.529 200.963L797.715 203.452L801.043 200.529L802.079 201.709Z" fill="#1A1A1A"/>
<path d="M814.271 191.882L808.699 196.172L808.17 195.485C807.954 195.204 807.792 194.912 807.683 194.608C807.571 194.3 807.498 193.988 807.465 193.671C807.428 193.351 807.426 193.028 807.457 192.701C807.485 192.371 807.532 192.039 807.598 191.706C807.66 191.368 807.733 191.036 807.816 190.709C807.897 190.378 807.973 190.05 808.045 189.725C808.111 189.418 808.163 189.127 808.202 188.854C808.239 188.576 808.249 188.312 808.233 188.061C808.217 187.81 808.171 187.57 808.093 187.341C808.012 187.108 807.889 186.884 807.723 186.669C807.542 186.434 807.348 186.258 807.14 186.142C806.933 186.019 806.719 185.95 806.498 185.936C806.278 185.915 806.057 185.944 805.835 186.023C805.61 186.097 805.392 186.216 805.182 186.378C804.819 186.657 804.515 187.026 804.269 187.485C804.024 187.943 803.858 188.475 803.772 189.08L802.709 187.7C802.786 187.424 802.879 187.165 802.989 186.923C803.095 186.676 803.222 186.444 803.369 186.226C803.513 186.003 803.682 185.791 803.875 185.589C804.068 185.388 804.289 185.192 804.536 185.001C804.937 184.693 805.341 184.467 805.75 184.324C806.155 184.176 806.553 184.116 806.943 184.144C807.33 184.169 807.703 184.286 808.062 184.496C808.425 184.703 808.759 185.004 809.064 185.401C809.34 185.76 809.544 186.119 809.676 186.477C809.808 186.829 809.887 187.192 809.913 187.567C809.943 187.938 809.928 188.324 809.868 188.725C809.809 189.126 809.727 189.554 809.623 190.008C809.533 190.386 809.44 190.76 809.344 191.13C809.248 191.493 809.174 191.836 809.121 192.16C809.064 192.479 809.045 192.774 809.062 193.043C809.079 193.306 809.157 193.526 809.293 193.703L809.317 193.734L813.322 190.65L814.271 191.882Z" fill="#1A1A1A"/>
<path d="M816.293 176.669L820.406 182.62L821.775 181.674L822.633 182.914L821.264 183.86L822.663 185.885L821.217 186.884L819.818 184.86L815.647 187.743L814.781 186.49C814.865 185.805 814.933 185.08 814.987 184.315C815.042 183.543 815.074 182.774 815.082 182.008C815.093 181.235 815.075 180.481 815.029 179.746C814.984 179.012 814.903 178.332 814.789 177.709L816.293 176.669ZM818.961 183.62L816.286 179.751C816.4 180.914 816.443 181.966 816.417 182.908C816.396 183.848 816.354 184.7 816.294 185.463L818.961 183.62Z" fill="#1A1A1A"/>
<path d="M835.073 178.054L833.474 179.018L830.966 174.856L826.449 177.578L828.957 181.74L827.365 182.7L821.582 173.104L823.175 172.144L825.606 176.179L830.123 173.457L827.692 169.422L829.291 168.459L835.073 178.054Z" fill="#1A1A1A"/>
<path d="M852.191 158.867L849.242 160.158L853.103 168.975L851.399 169.721L847.539 160.904L844.598 162.192L843.965 160.746L851.558 157.422L852.191 158.867Z" fill="#1A1A1A"/>
<path d="M867.311 163.493L865.391 164.18L863.481 161.835L859.332 163.319L859.381 166.33L857.468 167.014L857.645 155.053L859.616 154.347L867.311 163.493ZM862.507 160.573L859.538 156.889C859.445 156.768 859.319 156.564 859.162 156.277L859.132 156.288C859.188 156.583 859.218 156.821 859.222 157.003L859.278 161.729L862.507 160.573Z" fill="#1A1A1A"/>
<path d="M873.462 161.663L871.622 162.19L868.539 151.419L870.379 150.892L873.462 161.663Z" fill="#1A1A1A"/>
<path d="M889.21 146.576L888.418 158.165L886.358 158.581L882.717 151.322C882.564 151.013 882.438 150.667 882.339 150.283L882.309 150.289C882.356 150.657 882.366 151.021 882.338 151.383L881.794 159.503L879.688 159.928L874.4 149.567L876.398 149.163L880.013 156.802C880.163 157.122 880.285 157.464 880.38 157.828L880.418 157.82C880.386 157.556 880.386 157.189 880.419 156.72L881.047 148.224L882.923 147.846L886.642 155.527C886.769 155.788 886.889 156.104 887.001 156.475L887.032 156.468C886.995 156.21 886.986 155.861 887.004 155.422L887.326 146.956L889.21 146.576Z" fill="#1A1A1A"/>
<path d="M904.777 156.133L902.747 156.327L901.472 153.584L897.086 154.003L896.393 156.934L894.371 157.127L897.481 145.576L899.565 145.377L904.777 156.133ZM900.838 152.122L898.865 147.821C898.805 147.681 898.733 147.452 898.651 147.136L898.619 147.139C898.601 147.439 898.571 147.677 898.531 147.853L897.424 152.448L900.838 152.122Z" fill="#1A1A1A"/>
<path d="M918.327 155.832L916.296 155.835L910.93 147.611C910.794 147.403 910.681 147.187 910.592 146.963L910.546 146.963C910.588 147.203 910.609 147.716 910.611 148.502L910.624 155.846L908.827 155.849L908.807 144.646L910.971 144.642L916.158 152.672C916.377 153.004 916.518 153.233 916.581 153.358L916.612 153.358C916.559 153.061 916.532 152.559 916.531 151.851L916.518 144.632L918.307 144.629L918.327 155.832Z" fill="#1A1A1A"/>
<path d="M939.026 156.832C937.79 157.317 936.461 157.471 935.04 157.293C933.396 157.087 932.13 156.409 931.24 155.258C930.35 154.107 930.01 152.69 930.221 151.005C930.437 149.284 931.169 147.943 932.418 146.981C933.673 146.015 935.159 145.639 936.874 145.854C938.109 146.009 939.125 146.32 939.923 146.787L939.685 148.687C938.903 148.011 937.923 147.6 936.745 147.452C935.561 147.304 934.541 147.572 933.684 148.258C932.831 148.943 932.327 149.906 932.172 151.147C932.012 152.423 932.212 153.469 932.771 154.285C933.331 155.095 934.169 155.57 935.285 155.71C936.05 155.806 936.73 155.741 937.325 155.517L937.656 152.873L935.315 152.58L935.509 151.029L939.688 151.553L939.026 156.832Z" fill="#1A1A1A"/>
<path d="M951.696 155.392C951.066 158.474 949.291 159.716 946.372 159.118C943.576 158.546 942.481 156.778 943.088 153.813L944.462 147.101L946.284 147.474L944.987 153.811C944.546 155.964 945.162 157.212 946.836 157.555C948.448 157.885 949.467 157.011 949.892 154.935L951.213 148.482L953.034 148.855L951.696 155.392Z" fill="#1A1A1A"/>
<path d="M958.364 161.721L956.515 161.227L959.406 150.404L961.255 150.897L958.364 161.721Z" fill="#1A1A1A"/>
<path d="M962.223 162.719L965.661 152.057L968.74 153.049C972.671 154.317 974.077 156.683 972.96 160.148C972.43 161.794 971.458 162.941 970.044 163.591C968.632 164.236 967.009 164.262 965.175 163.671L962.223 162.719ZM966.939 154.127L964.468 161.793L965.88 162.248C967.125 162.65 968.201 162.619 969.111 162.157C970.026 161.697 970.684 160.842 971.087 159.593C971.891 157.1 971.002 155.437 968.419 154.604L966.939 154.127Z" fill="#1A1A1A"/>
<path d="M981.946 169.669L976.09 167.374L980.179 156.943L985.802 159.147L985.226 160.617L981.334 159.091L980.177 162.044L983.762 163.45L983.189 164.912L979.603 163.506L978.395 166.59L982.519 168.207L981.946 169.669Z" fill="#1A1A1A"/>
<path d="M995.736 175.813L989.378 172.812L989.748 172.027C989.9 171.707 990.086 171.429 990.306 171.194C990.529 170.953 990.774 170.746 991.04 170.572C991.309 170.394 991.595 170.244 991.9 170.123C992.207 169.997 992.524 169.888 992.85 169.794C993.179 169.696 993.508 169.609 993.837 169.534C994.168 169.455 994.495 169.373 994.817 169.289C995.12 169.207 995.403 169.122 995.664 169.032C995.927 168.937 996.167 168.826 996.383 168.698C996.599 168.569 996.792 168.418 996.96 168.244C997.131 168.066 997.274 167.854 997.39 167.609C997.516 167.341 997.584 167.087 997.593 166.85C997.608 166.609 997.572 166.388 997.483 166.184C997.402 165.979 997.275 165.795 997.104 165.634C996.935 165.468 996.73 165.328 996.49 165.214C996.075 165.019 995.608 164.916 995.089 164.907C994.569 164.898 994.02 164.993 993.442 165.192L994.186 163.617C994.466 163.559 994.739 163.524 995.005 163.511C995.272 163.493 995.537 163.5 995.798 163.532C996.062 163.558 996.328 163.612 996.595 163.692C996.863 163.772 997.138 163.879 997.42 164.012C997.877 164.228 998.263 164.485 998.577 164.783C998.894 165.076 999.128 165.403 999.281 165.763C999.435 166.118 999.501 166.504 999.478 166.919C999.459 167.336 999.343 167.771 999.13 168.223C998.936 168.633 998.71 168.978 998.451 169.259C998.198 169.537 997.911 169.773 997.59 169.967C997.273 170.163 996.922 170.326 996.538 170.455C996.154 170.585 995.737 170.708 995.285 170.823C994.907 170.915 994.532 171.003 994.159 171.086C993.792 171.166 993.453 171.257 993.141 171.357C992.831 171.452 992.56 171.569 992.327 171.707C992.102 171.843 991.942 172.012 991.846 172.214L991.829 172.25L996.4 174.408L995.736 175.813Z" fill="#1A1A1A"/>
<path d="M1010.01 170.519L1006.63 176.917L1008.1 177.694L1007.4 179.028L1005.93 178.251L1004.78 180.428L1003.23 179.608L1004.37 177.431L999.89 175.065L1000.6 173.718C1001.25 173.476 1001.92 173.201 1002.62 172.895C1003.34 172.587 1004.03 172.259 1004.72 171.913C1005.41 171.565 1006.07 171.201 1006.7 170.821C1007.33 170.441 1007.89 170.056 1008.39 169.666L1010.01 170.519ZM1005.08 176.097L1007.27 171.937C1006.29 172.576 1005.38 173.101 1004.53 173.513C1003.69 173.928 1002.92 174.285 1002.21 174.585L1005.08 176.097Z" fill="#1A1A1A"/>
<path d="M1017.96 187.03L1016.28 186.225L1018.38 181.841L1013.62 179.567L1011.52 183.951L1009.84 183.149L1014.68 173.041L1016.35 173.843L1014.32 178.094L1019.08 180.368L1021.11 176.117L1022.8 176.923L1017.96 187.03Z" fill="#1A1A1A"/>
<path d="M1039.42 185.213L1036.39 184.126L1033.14 193.185L1031.39 192.557L1034.64 183.497L1031.62 182.413L1032.15 180.927L1039.96 183.727L1039.42 185.213Z" fill="#1A1A1A"/>
<path d="M1047.38 197.669L1045.42 197.098L1045.25 194.078L1041.02 192.844L1039.3 195.31L1037.35 194.741L1044.51 185.161L1046.52 185.748L1047.38 197.669ZM1045.21 192.485L1044.97 187.76C1044.96 187.607 1044.98 187.368 1045.02 187.043L1044.99 187.034C1044.86 187.306 1044.75 187.517 1044.64 187.666L1041.91 191.524L1045.21 192.485Z" fill="#1A1A1A"/>
<path d="M1051.28 198.57L1049.42 198.13L1051.99 187.226L1053.85 187.666L1051.28 198.57Z" fill="#1A1A1A"/>
<path d="M1069.37 190.528L1064.53 201.089L1062.46 200.75L1061.62 192.672C1061.58 192.329 1061.59 191.96 1061.63 191.566L1061.6 191.561C1061.51 191.922 1061.39 192.266 1061.24 192.595L1057.86 199.998L1055.74 199.651L1054.46 188.089L1056.47 188.418L1057.15 196.842C1057.18 197.194 1057.17 197.557 1057.13 197.931L1057.17 197.937C1057.23 197.678 1057.36 197.336 1057.56 196.909L1061.15 189.184L1063.04 189.493L1063.8 197.993C1063.83 198.282 1063.83 198.62 1063.8 199.007L1063.83 199.012C1063.89 198.757 1064 198.428 1064.18 198.023L1067.47 190.218L1069.37 190.528Z" fill="#1A1A1A"/>
<path d="M1079.13 202.358L1077.09 202.229L1076.27 199.319L1071.87 199.038L1070.72 201.822L1068.69 201.692L1073.59 190.779L1075.68 190.913L1079.13 202.358ZM1075.87 197.775L1074.61 193.216C1074.57 193.067 1074.53 192.83 1074.5 192.505L1074.47 192.503C1074.4 192.796 1074.34 193.027 1074.27 193.194L1072.45 197.556L1075.87 197.775Z" fill="#1A1A1A"/>
<path d="M1089.56 202.206L1087.53 202.257L1081.98 194.16C1081.84 193.955 1081.72 193.741 1081.63 193.52L1081.58 193.521C1081.63 193.759 1081.66 194.272 1081.68 195.058L1081.86 202.399L1080.07 202.444L1079.79 191.245L1081.95 191.191L1087.32 199.097C1087.55 199.425 1087.7 199.651 1087.76 199.774L1087.79 199.773C1087.73 199.478 1087.69 198.976 1087.68 198.268L1087.5 191.052L1089.28 191.007L1089.56 202.206Z" fill="#1A1A1A"/>
<path d="M1106.06 199.464C1105.01 200.273 1103.78 200.788 1102.36 201.01C1100.72 201.267 1099.32 200.966 1098.15 200.106C1096.97 199.247 1096.25 197.978 1095.99 196.301C1095.72 194.587 1096.05 193.096 1096.99 191.826C1097.93 190.551 1099.25 189.779 1100.96 189.51C1102.19 189.317 1103.25 189.335 1104.15 189.563L1104.44 191.454C1103.5 191.022 1102.45 190.897 1101.28 191.082C1100.1 191.267 1099.19 191.807 1098.56 192.703C1097.93 193.598 1097.71 194.663 1097.9 195.897C1098.1 197.168 1098.59 198.118 1099.35 198.747C1100.11 199.371 1101.05 199.595 1102.16 199.421C1102.92 199.301 1103.56 199.051 1104.07 198.671L1103.65 196.039L1101.32 196.405L1101.08 194.861L1105.24 194.208L1106.06 199.464Z" fill="#1A1A1A"/>
<path d="M1115.62 193.351C1116.38 196.402 1115.32 198.29 1112.43 199.015C1109.66 199.71 1107.91 198.59 1107.18 195.655L1105.51 189.009L1107.31 188.556L1108.89 194.831C1109.42 196.963 1110.52 197.821 1112.17 197.405C1113.77 197.004 1114.31 195.776 1113.79 193.72L1112.19 187.332L1113.99 186.88L1115.62 193.351Z" fill="#1A1A1A"/>
<path d="M1121.71 196.208L1119.88 196.794L1116.45 186.13L1118.27 185.543L1121.71 196.208Z" fill="#1A1A1A"/>
<path d="M1124.85 195.267L1120.74 184.844L1123.75 183.658C1127.6 182.144 1130.19 183.081 1131.52 186.468C1132.15 188.077 1132.13 189.581 1131.45 190.98C1130.77 192.374 1129.53 193.424 1127.74 194.13L1124.85 195.267ZM1123.05 185.633L1126 193.127L1127.38 192.583C1128.6 192.104 1129.41 191.398 1129.82 190.464C1130.23 189.528 1130.2 188.449 1129.72 187.228C1128.76 184.79 1127.02 184.069 1124.49 185.064L1123.05 185.633Z" fill="#1A1A1A"/>
<path d="M1141.89 187.931L1136.22 190.662L1131.36 180.571L1136.8 177.948L1137.48 179.369L1133.72 181.185L1135.1 184.042L1138.56 182.369L1139.25 183.784L1135.78 185.456L1137.22 188.44L1141.21 186.516L1141.89 187.931Z" fill="#1A1A1A"/>
<path d="M1153.98 181.171L1147.94 184.766L1147.5 184.021C1147.32 183.717 1147.19 183.407 1147.12 183.093C1147.04 182.773 1147.01 182.455 1147.01 182.137C1147.02 181.814 1147.05 181.493 1147.12 181.173C1147.19 180.848 1147.28 180.524 1147.38 180.201C1147.48 179.873 1147.59 179.552 1147.72 179.237C1147.83 178.918 1147.95 178.601 1148.06 178.287C1148.16 177.99 1148.25 177.708 1148.32 177.442C1148.39 177.17 1148.43 176.909 1148.44 176.658C1148.46 176.407 1148.44 176.163 1148.39 175.926C1148.34 175.685 1148.24 175.448 1148.1 175.215C1147.95 174.96 1147.78 174.763 1147.59 174.622C1147.4 174.475 1147.19 174.382 1146.98 174.342C1146.76 174.294 1146.54 174.297 1146.31 174.348C1146.07 174.396 1145.84 174.487 1145.62 174.623C1145.22 174.858 1144.88 175.188 1144.58 175.614C1144.28 176.039 1144.05 176.548 1143.89 177.138L1143 175.641C1143.11 175.376 1143.24 175.13 1143.37 174.903C1143.51 174.671 1143.66 174.456 1143.83 174.256C1144 174.052 1144.2 173.862 1144.41 173.685C1144.63 173.508 1144.87 173.34 1145.14 173.18C1145.57 172.921 1146 172.745 1146.42 172.651C1146.84 172.553 1147.25 172.541 1147.63 172.616C1148.01 172.686 1148.37 172.847 1148.7 173.098C1149.04 173.346 1149.33 173.686 1149.59 174.115C1149.82 174.505 1149.98 174.885 1150.07 175.257C1150.16 175.622 1150.19 175.992 1150.17 176.367C1150.16 176.74 1150.1 177.121 1149.99 177.512C1149.88 177.903 1149.75 178.318 1149.59 178.757C1149.46 179.121 1149.32 179.482 1149.18 179.838C1149.04 180.186 1148.93 180.518 1148.84 180.833C1148.74 181.144 1148.69 181.434 1148.67 181.704C1148.66 181.966 1148.71 182.194 1148.83 182.386L1148.85 182.42L1153.19 179.835L1153.98 181.171Z" fill="#1A1A1A"/>
<path d="M1155.43 166.838L1159.48 172.832L1160.86 171.901L1161.71 173.15L1160.33 174.082L1161.7 176.121L1160.25 177.105L1158.87 175.066L1154.67 177.905L1153.82 176.643C1153.91 175.959 1153.98 175.234 1154.05 174.47C1154.11 173.698 1154.15 172.929 1154.17 172.164C1154.18 171.391 1154.17 170.637 1154.14 169.902C1154.1 169.167 1154.03 168.487 1153.92 167.862L1155.43 166.838ZM1158.03 173.817L1155.39 169.92C1155.49 171.083 1155.53 172.136 1155.49 173.078C1155.46 174.018 1155.41 174.869 1155.34 175.632L1158.03 173.817Z" fill="#1A1A1A"/>
<path d="M1171.94 168.58L1170.46 169.711L1167.51 165.846L1163.32 169.042L1166.26 172.908L1164.78 174.034L1157.99 165.123L1159.47 163.996L1162.33 167.744L1166.52 164.548L1163.67 160.8L1165.15 159.669L1171.94 168.58Z" fill="#1A1A1A"/>
<path d="M1181.35 147.75L1178.95 149.891L1185.35 157.079L1183.96 158.315L1177.56 151.127L1175.16 153.262L1174.11 152.084L1180.3 146.572L1181.35 147.75Z" fill="#1A1A1A"/>
<path d="M1197.62 146.786L1196.04 148.069L1193.46 146.487L1190.04 149.26L1191.08 152.086L1189.5 153.364L1185.71 142.017L1187.34 140.7L1197.62 146.786ZM1192.12 145.619L1188.1 143.125C1187.98 143.041 1187.79 142.89 1187.55 142.672L1187.52 142.691C1187.67 142.951 1187.78 143.166 1187.84 143.336L1189.46 147.778L1192.12 145.619Z" fill="#1A1A1A"/>
<path d="M1202.09 143.446L1200.55 144.587L1193.87 135.591L1195.41 134.45L1202.09 143.446Z" fill="#1A1A1A"/>
<path d="M1210.6 124.023L1214.21 135.064L1212.46 136.222L1206.36 130.858C1206.1 130.629 1205.86 130.355 1205.62 130.036L1205.6 130.053C1205.78 130.376 1205.92 130.71 1206.03 131.056L1208.57 138.788L1206.78 139.971L1197.99 132.348L1199.69 131.225L1205.91 136.951C1206.17 137.192 1206.41 137.463 1206.63 137.765L1206.67 137.743C1206.54 137.51 1206.4 137.17 1206.26 136.723L1203.65 128.612L1205.25 127.557L1211.58 133.284C1211.79 133.479 1212.02 133.727 1212.27 134.028L1212.29 134.011C1212.16 133.785 1212.02 133.465 1211.87 133.052L1209 125.082L1210.6 124.023Z" fill="#1A1A1A"/>
<path d="M1228.8 126.605L1227.02 127.587L1224.76 125.573L1220.9 127.695L1221.42 130.661L1219.64 131.639L1217.92 119.8L1219.76 118.792L1228.8 126.605ZM1223.6 124.482L1220.08 121.314C1219.97 121.209 1219.82 121.027 1219.62 120.769L1219.59 120.784C1219.69 121.067 1219.76 121.297 1219.79 121.476L1220.59 126.133L1223.6 124.482Z" fill="#1A1A1A"/>
<path d="M1240.47 121.099L1238.62 121.936L1230.35 116.641C1230.14 116.507 1229.95 116.356 1229.78 116.188L1229.73 116.208C1229.87 116.409 1230.1 116.868 1230.42 117.584L1233.45 124.275L1231.81 125.016L1227.2 114.809L1229.17 113.917L1237.19 119.108C1237.53 119.322 1237.75 119.473 1237.86 119.561L1237.89 119.548C1237.72 119.299 1237.49 118.852 1237.2 118.206L1234.22 111.63L1235.85 110.892L1240.47 121.099Z" fill="#1A1A1A"/>
<path d="M1259.16 113.587C1258.24 114.543 1257.1 115.236 1255.73 115.666C1254.15 116.164 1252.72 116.074 1251.43 115.399C1250.14 114.723 1249.24 113.575 1248.73 111.956C1248.21 110.301 1248.32 108.777 1249.05 107.382C1249.79 105.982 1250.99 105.022 1252.64 104.503C1253.82 104.129 1254.88 103.989 1255.8 104.081L1256.37 105.907C1255.38 105.619 1254.32 105.653 1253.18 106.009C1252.05 106.367 1251.23 107.036 1250.74 108.016C1250.25 108.995 1250.19 110.08 1250.56 111.272C1250.95 112.5 1251.57 113.367 1252.42 113.876C1253.26 114.379 1254.22 114.462 1255.29 114.125C1256.03 113.893 1256.62 113.552 1257.07 113.099L1256.27 110.558L1254.02 111.266L1253.55 109.776L1257.57 108.512L1259.16 113.587Z" fill="#1A1A1A"/>
<path d="M1271.36 106.769C1272.03 109.842 1270.91 111.697 1268 112.336C1265.22 112.947 1263.5 111.775 1262.85 108.819L1261.38 102.127L1263.2 101.729L1264.58 108.047C1265.06 110.194 1266.13 111.084 1267.79 110.718C1269.4 110.366 1269.98 109.154 1269.52 107.083L1268.11 100.65L1269.93 100.252L1271.36 106.769Z" fill="#1A1A1A"/>
<path d="M1278.97 110.077L1277.08 110.362L1275.42 99.2826L1277.31 98.9984L1278.97 110.077Z" fill="#1A1A1A"/>
<path d="M1284.4 109.267L1283.52 98.0984L1286.75 97.8447C1290.87 97.5207 1293.07 99.1734 1293.35 102.803C1293.49 104.527 1293.03 105.958 1291.97 107.097C1290.91 108.23 1289.42 108.873 1287.49 109.024L1284.4 109.267ZM1285.49 99.5265L1286.13 107.556L1287.61 107.44C1288.91 107.337 1289.89 106.899 1290.56 106.126C1291.23 105.352 1291.51 104.311 1291.41 103.003C1291.2 100.391 1289.75 99.1916 1287.04 99.4045L1285.49 99.5265Z" fill="#1A1A1A"/>
<path d="M1305.02 108.4L1298.73 108.37L1298.78 97.1666L1304.82 97.1955L1304.81 98.7736L1300.63 98.7536L1300.62 101.925L1304.47 101.944L1304.46 103.514L1300.61 103.496L1300.59 106.808L1305.02 106.829L1305.02 108.4Z" fill="#1A1A1A"/>
<path d="M1320.63 109.523L1313.64 108.782L1313.73 107.92C1313.77 107.568 1313.85 107.244 1313.98 106.949C1314.11 106.649 1314.27 106.373 1314.47 106.121C1314.66 105.864 1314.89 105.628 1315.13 105.413C1315.38 105.194 1315.64 104.986 1315.92 104.79C1316.2 104.589 1316.48 104.399 1316.77 104.22C1317.05 104.035 1317.34 103.851 1317.61 103.665C1317.87 103.488 1318.11 103.315 1318.33 103.144C1318.55 102.968 1318.73 102.784 1318.9 102.591C1319.06 102.399 1319.19 102.193 1319.29 101.973C1319.39 101.748 1319.46 101.501 1319.49 101.232C1319.52 100.937 1319.5 100.676 1319.43 100.448C1319.37 100.216 1319.26 100.019 1319.11 99.8562C1318.96 99.6889 1318.78 99.5573 1318.57 99.4612C1318.35 99.3599 1318.11 99.2952 1317.85 99.2672C1317.39 99.2189 1316.92 99.276 1316.43 99.4384C1315.93 99.6008 1315.45 99.8713 1314.97 100.25L1315.15 98.5174C1315.39 98.3706 1315.64 98.2474 1315.89 98.1478C1316.13 98.0431 1316.39 97.9624 1316.64 97.9059C1316.9 97.8442 1317.17 97.8072 1317.45 97.7948C1317.73 97.7825 1318.02 97.7928 1318.33 97.8257C1318.84 97.8789 1319.28 97.9946 1319.68 98.1726C1320.07 98.3455 1320.4 98.5767 1320.67 98.8664C1320.93 99.151 1321.12 99.4931 1321.23 99.8928C1321.35 100.293 1321.39 100.742 1321.33 101.239C1321.29 101.69 1321.19 102.09 1321.03 102.441C1320.89 102.787 1320.69 103.104 1320.45 103.393C1320.22 103.682 1319.94 103.951 1319.62 104.2C1319.3 104.449 1318.95 104.702 1318.56 104.96C1318.23 105.171 1317.91 105.378 1317.58 105.579C1317.26 105.775 1316.97 105.972 1316.71 106.17C1316.45 106.362 1316.23 106.562 1316.06 106.769C1315.89 106.971 1315.79 107.183 1315.77 107.406L1315.77 107.445L1320.79 107.977L1320.63 109.523Z" fill="#1A1A1A"/>
<path d="M1332.91 100.083L1331.66 107.208L1333.3 107.497L1333.03 108.982L1331.4 108.693L1330.97 111.116L1329.24 110.811L1329.66 108.388L1324.67 107.507L1324.94 106.007C1325.48 105.579 1326.03 105.111 1326.61 104.605C1327.19 104.094 1327.76 103.569 1328.3 103.03C1328.85 102.488 1329.37 101.939 1329.85 101.384C1330.34 100.83 1330.76 100.29 1331.11 99.7661L1332.91 100.083ZM1329.93 106.903L1330.74 102.271C1330.01 103.178 1329.3 103.957 1328.62 104.609C1327.94 105.262 1327.31 105.839 1326.73 106.34L1329.93 106.903Z" fill="#1A1A1A"/>
<path d="M1346.23 114.606L1344.42 114.145L1345.62 109.436L1340.51 108.134L1339.31 112.843L1337.5 112.384L1340.27 101.528L1342.07 101.987L1340.91 106.552L1346.02 107.854L1347.18 103.288L1348.99 103.749L1346.23 114.606Z" fill="#1A1A1A"/>
<path d="M1371.06 112.89L1368.05 111.738L1364.61 120.727L1362.87 120.062L1366.31 111.073L1363.32 109.925L1363.88 108.451L1371.62 111.416L1371.06 112.89Z" fill="#1A1A1A"/>
<path d="M1378.65 126.645L1376.79 125.82L1377.02 122.805L1372.99 121.021L1370.95 123.236L1369.09 122.414L1377.47 113.868L1379.38 114.715L1378.65 126.645ZM1377.18 121.219L1377.57 116.504C1377.59 116.351 1377.64 116.117 1377.72 115.801L1377.69 115.788C1377.53 116.041 1377.39 116.234 1377.26 116.368L1374.05 119.831L1377.18 121.219Z" fill="#1A1A1A"/>
<path d="M1383.87 129.183L1382.15 128.337L1387.1 118.287L1388.82 119.133L1383.87 129.183Z" fill="#1A1A1A"/>
<path d="M1405.31 127.68L1397.42 136.21L1395.56 135.242L1397.27 127.304C1397.35 126.968 1397.47 126.619 1397.63 126.258L1397.6 126.244C1397.41 126.56 1397.19 126.85 1396.94 127.114L1391.42 133.098L1389.52 132.108L1391.9 120.721L1393.71 121.66L1391.73 129.877C1391.65 130.221 1391.53 130.564 1391.37 130.906L1391.41 130.924C1391.55 130.698 1391.78 130.413 1392.1 130.068L1397.92 123.844L1399.61 124.726L1397.69 133.041C1397.63 133.325 1397.52 133.646 1397.38 134.004L1397.41 134.019C1397.54 133.795 1397.75 133.517 1398.04 133.186L1403.6 126.795L1405.31 127.68Z" fill="#1A1A1A"/>
<path d="M1411.23 142.55L1409.36 141.729L1409.59 138.713L1405.56 136.94L1403.52 139.16L1401.66 138.343L1410.01 129.776L1411.93 130.619L1411.23 142.55ZM1409.75 137.128L1410.12 132.411C1410.14 132.259 1410.19 132.025 1410.27 131.708L1410.24 131.695C1410.08 131.948 1409.94 132.142 1409.82 132.276L1406.61 135.747L1409.75 137.128Z" fill="#1A1A1A"/>
<path d="M1421.49 146.428L1419.58 145.727L1417.4 136.151C1417.35 135.909 1417.32 135.667 1417.31 135.426L1417.27 135.41C1417.23 135.649 1417.07 136.138 1416.8 136.876L1414.26 143.768L1412.57 143.148L1416.44 132.634L1418.47 133.381L1420.55 142.711C1420.64 143.1 1420.69 143.363 1420.71 143.502L1420.74 143.513C1420.79 143.217 1420.94 142.736 1421.19 142.071L1423.68 135.296L1425.36 135.914L1421.49 146.428Z" fill="#1A1A1A"/>
<path d="M1438.55 150.57C1437.26 150.894 1435.92 150.877 1434.53 150.519C1432.93 150.106 1431.76 149.272 1431.02 148.017C1430.29 146.762 1430.13 145.313 1430.55 143.669C1430.99 141.989 1431.88 140.752 1433.25 139.957C1434.61 139.159 1436.13 138.976 1437.81 139.407C1439.01 139.718 1439.98 140.156 1440.71 140.721L1440.24 142.574C1439.55 141.805 1438.63 141.272 1437.48 140.976C1436.32 140.678 1435.28 140.814 1434.34 141.385C1433.41 141.956 1432.78 142.847 1432.47 144.058C1432.15 145.304 1432.22 146.366 1432.67 147.246C1433.12 148.121 1433.89 148.699 1434.98 148.98C1435.72 149.173 1436.41 149.195 1437.03 149.048L1437.69 146.468L1435.41 145.879L1435.8 144.366L1439.87 145.418L1438.55 150.57Z" fill="#1A1A1A"/>
<path d="M1449.45 148.824C1448.89 151.921 1447.15 153.206 1444.22 152.679C1441.41 152.175 1440.27 150.434 1440.81 147.456L1442.02 140.712L1443.85 141.04L1442.7 147.407C1442.32 149.571 1442.96 150.803 1444.64 151.105C1446.26 151.395 1447.26 150.498 1447.64 148.411L1448.8 141.929L1450.63 142.257L1449.45 148.824Z" fill="#1A1A1A"/>
<path d="M1454.31 154.013L1452.41 153.793L1453.7 142.664L1455.6 142.884L1454.31 154.013Z" fill="#1A1A1A"/>
<path d="M1457.48 154.445L1458.05 143.256L1461.28 143.42C1465.41 143.63 1467.38 145.553 1467.19 149.189C1467.11 150.916 1466.46 152.275 1465.27 153.268C1464.07 154.255 1462.51 154.7 1460.58 154.602L1457.48 154.445ZM1459.82 144.926L1459.41 152.971L1460.9 153.046C1462.2 153.112 1463.23 152.805 1463.99 152.124C1464.76 151.443 1465.17 150.447 1465.24 149.136C1465.37 146.52 1464.09 145.143 1461.37 145.005L1459.82 144.926Z" fill="#1A1A1A"/>
<path d="M1475.19 154.767L1468.9 154.945L1468.58 143.747L1474.62 143.575L1474.67 145.153L1470.49 145.271L1470.58 148.442L1474.43 148.333L1474.47 149.902L1470.62 150.012L1470.72 153.323L1475.14 153.197L1475.19 154.767Z" fill="#1A1A1A"/>
<path d="M1489.43 153.302L1482.46 154.276L1482.34 153.417C1482.29 153.066 1482.3 152.732 1482.35 152.414C1482.41 152.091 1482.5 151.783 1482.63 151.492C1482.75 151.196 1482.91 150.913 1483.1 150.645C1483.29 150.371 1483.49 150.106 1483.71 149.849C1483.93 149.587 1484.16 149.334 1484.4 149.091C1484.63 148.843 1484.86 148.595 1485.08 148.348C1485.29 148.114 1485.48 147.887 1485.65 147.669C1485.82 147.446 1485.96 147.221 1486.07 146.995C1486.18 146.77 1486.26 146.538 1486.3 146.3C1486.35 146.057 1486.35 145.801 1486.31 145.533C1486.27 145.239 1486.19 144.99 1486.07 144.787C1485.95 144.577 1485.8 144.412 1485.61 144.29C1485.43 144.163 1485.22 144.079 1484.99 144.038C1484.76 143.991 1484.51 143.987 1484.25 144.023C1483.79 144.087 1483.35 144.257 1482.91 144.534C1482.47 144.812 1482.06 145.192 1481.69 145.675L1481.45 143.95C1481.65 143.748 1481.86 143.569 1482.07 143.413C1482.29 143.251 1482.51 143.112 1482.75 142.995C1482.98 142.873 1483.23 142.772 1483.5 142.692C1483.77 142.613 1484.06 142.551 1484.37 142.508C1484.87 142.438 1485.33 142.442 1485.76 142.519C1486.18 142.591 1486.56 142.735 1486.88 142.953C1487.21 143.165 1487.47 143.451 1487.68 143.811C1487.89 144.171 1488.04 144.598 1488.11 145.093C1488.17 145.542 1488.17 145.955 1488.1 146.332C1488.05 146.703 1487.94 147.058 1487.77 147.396C1487.61 147.733 1487.41 148.062 1487.16 148.381C1486.91 148.7 1486.63 149.031 1486.31 149.375C1486.05 149.659 1485.78 149.938 1485.52 150.212C1485.25 150.48 1485.02 150.742 1484.81 150.997C1484.61 151.247 1484.44 151.493 1484.32 151.736C1484.21 151.972 1484.17 152.202 1484.2 152.424L1484.21 152.462L1489.21 151.762L1489.43 153.302Z" fill="#1A1A1A"/>
<path d="M1494.83 140.822L1496.35 147.894L1497.98 147.543L1498.3 149.016L1496.67 149.368L1497.19 151.773L1495.47 152.144L1494.95 149.738L1490 150.808L1489.67 149.319C1490.01 148.719 1490.35 148.075 1490.7 147.388C1491.04 146.696 1491.37 145.997 1491.67 145.293C1491.97 144.582 1492.24 143.879 1492.48 143.182C1492.72 142.486 1492.91 141.828 1493.04 141.208L1494.83 140.822ZM1494.63 148.265L1493.64 143.667C1493.3 144.785 1492.94 145.774 1492.56 146.635C1492.18 147.495 1491.81 148.266 1491.46 148.949L1494.63 148.265Z" fill="#1A1A1A"/>
<path d="M1510.06 148.188L1508.28 148.737L1506.85 144.092L1501.81 145.642L1503.23 150.287L1501.46 150.833L1498.16 140.125L1499.94 139.579L1501.33 144.082L1506.37 142.531L1504.98 138.029L1506.77 137.48L1510.06 148.188Z" fill="#1A1A1A"/>
<path d="M1523.87 131.985L1520.96 133.357L1525.06 142.064L1523.38 142.857L1519.28 134.149L1516.37 135.517L1515.7 134.09L1523.2 130.558L1523.87 131.985Z" fill="#1A1A1A"/>
<path d="M1537.57 135.502L1535.78 136.489L1533.52 134.482L1529.66 136.615L1530.2 139.579L1528.42 140.562L1526.67 128.729L1528.5 127.715L1537.57 135.502ZM1532.36 133.394L1528.83 130.236C1528.72 130.131 1528.56 129.95 1528.36 129.693L1528.33 129.708C1528.44 129.991 1528.5 130.221 1528.54 130.399L1529.35 135.054L1532.36 133.394Z" fill="#1A1A1A"/>
<path d="M1541.16 133.264L1539.53 134.274L1533.62 124.76L1535.24 123.75L1541.16 133.264Z" fill="#1A1A1A"/>
<path d="M1548.79 114.525L1552.75 125.445L1551.03 126.659L1544.77 121.491C1544.5 121.27 1544.25 121.004 1544 120.693L1543.97 120.711C1544.17 121.028 1544.32 121.357 1544.44 121.699L1547.23 129.346L1545.47 130.587L1536.45 123.247L1538.11 122.07L1544.51 127.596C1544.77 127.828 1545.02 128.092 1545.26 128.386L1545.29 128.363C1545.15 128.134 1545 127.799 1544.85 127.357L1541.99 119.332L1543.55 118.227L1550.06 123.75C1550.28 123.938 1550.51 124.179 1550.77 124.472L1550.79 124.454C1550.65 124.232 1550.5 123.917 1550.34 123.508L1547.22 115.634L1548.79 114.525Z" fill="#1A1A1A"/>
<path d="M1564.12 116.475L1562.54 117.762L1559.96 116.186L1556.54 118.967L1557.59 121.79L1556.01 123.072L1552.19 111.735L1553.82 110.413L1564.12 116.475ZM1558.62 115.321L1554.59 112.836C1554.46 112.752 1554.28 112.602 1554.03 112.384L1554.01 112.404C1554.16 112.664 1554.27 112.879 1554.33 113.048L1555.96 117.486L1558.62 115.321Z" fill="#1A1A1A"/>
<path d="M1572.98 108.571L1571.47 109.932L1561.98 107.405C1561.74 107.341 1561.51 107.256 1561.3 107.149L1561.26 107.18C1561.46 107.33 1561.81 107.697 1562.34 108.281L1567.26 113.732L1565.93 114.936L1558.42 106.62L1560.03 105.17L1569.25 107.672C1569.64 107.773 1569.9 107.849 1570.03 107.9L1570.05 107.879C1569.81 107.693 1569.46 107.338 1568.98 106.812L1564.15 101.453L1565.47 100.254L1572.98 108.571Z" fill="#1A1A1A"/>
<path d="M1587.77 95.5876C1587.23 96.8028 1586.4 97.8473 1585.26 98.7211C1583.95 99.7314 1582.57 100.141 1581.13 99.9498C1579.69 99.7586 1578.45 98.9903 1577.41 97.6449C1576.35 96.2706 1575.93 94.8024 1576.14 93.2403C1576.35 91.6708 1577.14 90.3586 1578.51 89.3038C1579.5 88.5444 1580.44 88.0502 1581.33 87.8212L1582.5 89.3379C1581.47 89.4082 1580.49 89.8055 1579.55 90.5299C1578.6 91.2575 1578.06 92.1664 1577.94 93.2567C1577.81 94.3437 1578.13 95.3825 1578.9 96.3729C1579.68 97.3923 1580.56 97.9948 1581.53 98.1805C1582.5 98.3621 1583.43 98.1097 1584.32 97.4234C1584.93 96.9532 1585.37 96.4289 1585.63 95.8505L1584.01 93.7396L1582.14 95.1789L1581.19 93.9408L1584.52 91.372L1587.77 95.5876Z" fill="#1A1A1A"/>
<path d="M1596.41 84.9776C1598.17 87.5841 1597.82 89.7214 1595.35 91.3894C1592.98 92.9874 1590.95 92.5328 1589.26 90.0255L1585.42 84.3486L1586.96 83.3075L1590.59 88.6673C1591.82 90.4884 1593.14 90.9207 1594.55 89.9642C1595.92 89.0428 1596.01 87.7038 1594.82 85.9474L1591.13 80.4906L1592.67 79.4495L1596.41 84.9776Z" fill="#1A1A1A"/>
<path d="M1604.43 85.3137L1602.79 86.3062L1596.98 76.7269L1598.62 75.7344L1604.43 85.3137Z" fill="#1A1A1A"/>
<path d="M1608.6 82.7639L1603.32 72.8833L1606.17 71.3588C1609.81 69.412 1612.49 70.0441 1614.21 73.2549C1615.02 74.7799 1615.17 76.2764 1614.66 77.7444C1614.14 79.2078 1613.03 80.3936 1611.33 81.302L1608.6 82.7639ZM1605.7 73.4024L1609.49 80.5062L1610.8 79.8065C1611.95 79.1904 1612.68 78.3947 1612.98 77.4196C1613.28 76.442 1613.13 75.3744 1612.51 74.2168C1611.27 71.9063 1609.46 71.3906 1607.07 72.6696L1605.7 73.4024Z" fill="#1A1A1A"/>
<path d="M1627.19 73.5558L1621.45 76.1136L1616.89 65.8788L1622.41 63.4228L1623.05 64.8645L1619.23 66.5643L1620.52 69.462L1624.04 67.8956L1624.68 69.3302L1621.16 70.8966L1622.51 73.9228L1626.55 72.1213L1627.19 73.5558Z" fill="#1A1A1A"/>
<path d="M1642.25 67.9812L1635.58 70.2L1635.3 69.3772C1635.19 69.0411 1635.13 68.7117 1635.13 68.3888C1635.13 68.0611 1635.16 67.7424 1635.23 67.4328C1635.3 67.1183 1635.41 66.812 1635.54 66.514C1635.68 66.211 1635.83 65.913 1636 65.62C1636.17 65.322 1636.35 65.0322 1636.54 64.7507C1636.72 64.4643 1636.9 64.1795 1637.08 63.8963C1637.24 63.6279 1637.39 63.3711 1637.51 63.1258C1637.64 62.8755 1637.73 62.6294 1637.8 62.3873C1637.87 62.1452 1637.9 61.9031 1637.91 61.661C1637.91 61.414 1637.86 61.162 1637.78 60.905C1637.68 60.6233 1637.56 60.3934 1637.4 60.2154C1637.25 60.0308 1637.07 59.8957 1636.86 59.8099C1636.66 59.7175 1636.44 59.6721 1636.21 59.6735C1635.97 59.6701 1635.73 59.7103 1635.47 59.7941C1635.04 59.9387 1634.63 60.1871 1634.25 60.5393C1633.87 60.8915 1633.53 61.3393 1633.25 61.8826L1632.7 60.2295C1632.87 59.9941 1633.04 59.7801 1633.22 59.5875C1633.41 59.39 1633.6 59.2122 1633.81 59.0543C1634.02 58.8913 1634.25 58.7466 1634.5 58.6199C1634.75 58.4933 1635.02 58.3806 1635.32 58.282C1635.8 58.1226 1636.25 58.0422 1636.69 58.0409C1637.12 58.0346 1637.51 58.109 1637.87 58.264C1638.23 58.4142 1638.54 58.6474 1638.81 58.9638C1639.09 59.2786 1639.3 59.6732 1639.46 60.1477C1639.6 60.5776 1639.68 60.9837 1639.69 61.3658C1639.7 61.7413 1639.65 62.1102 1639.55 62.4725C1639.46 62.8331 1639.32 63.1929 1639.13 63.5518C1638.94 63.9108 1638.72 64.2878 1638.48 64.6829C1638.27 65.0105 1638.05 65.3332 1637.84 65.6509C1637.63 65.962 1637.45 66.2617 1637.29 66.5498C1637.13 66.833 1637.02 67.1046 1636.95 67.3648C1636.88 67.6184 1636.88 67.8515 1636.95 68.064L1636.96 68.101L1641.76 66.5059L1642.25 67.9812Z" fill="#1A1A1A"/>
<path d="M1649.16 54.4334L1650.95 61.4444L1652.56 61.0341L1652.93 62.4954L1651.32 62.9057L1651.93 65.2906L1650.22 65.724L1649.62 63.3391L1644.7 64.5892L1644.33 63.1128C1644.64 62.5001 1644.96 61.8445 1645.28 61.1458C1645.6 60.4409 1645.9 59.731 1646.17 59.0161C1646.45 58.295 1646.69 57.5821 1646.91 56.8776C1647.12 56.1731 1647.28 55.5086 1647.39 54.8841L1649.16 54.4334ZM1649.24 61.8778L1648.08 57.3199C1647.79 58.4492 1647.46 59.451 1647.11 60.3254C1646.76 61.1984 1646.43 61.9824 1646.1 62.6772L1649.24 61.8778Z" fill="#1A1A1A"/>
<path d="M1667.11 62.3403L1665.26 62.6423L1664.48 57.8469L1659.27 58.6999L1660.06 63.4953L1658.23 63.796L1656.41 52.7404L1658.25 52.4397L1659.01 57.0886L1664.21 56.2356L1663.45 51.5867L1665.29 51.2847L1667.11 62.3403Z" fill="#1A1A1A"/>
<path d="M1689.87 51.2858L1686.66 51.313L1686.74 60.9377L1684.88 60.9534L1684.8 51.3287L1681.59 51.3559L1681.57 49.7778L1689.86 49.7077L1689.87 51.2858Z" fill="#1A1A1A"/>
<path d="M1703.49 61.631L1701.46 61.4879L1700.66 58.5726L1696.26 58.2634L1695.09 61.0399L1693.07 60.8973L1698.04 50.0163L1700.13 50.1633L1703.49 61.631ZM1700.27 57.0262L1699.03 52.4593C1699 52.3106 1698.96 52.0733 1698.93 51.7475L1698.9 51.7453C1698.84 52.0382 1698.77 52.2683 1698.7 52.4358L1696.85 56.7855L1700.27 57.0262Z" fill="#1A1A1A"/>
<path d="M1709.01 62.3304L1707.11 62.0805L1708.58 50.9733L1710.47 51.2232L1709.01 62.3304Z" fill="#1A1A1A"/>
<path d="M1730.15 54.8242L1724.86 65.1681L1722.8 64.7405L1722.31 56.6345C1722.29 56.2901 1722.31 55.9221 1722.37 55.5303L1722.34 55.5239C1722.24 55.8807 1722.11 56.2198 1721.94 56.5413L1718.25 63.793L1716.14 63.3559L1715.35 51.7496L1717.35 52.1646L1717.67 60.6094C1717.68 60.9629 1717.66 61.3254 1717.6 61.6968L1717.64 61.7047C1717.72 61.4489 1717.86 61.1119 1718.08 60.6936L1721.99 53.1295L1723.87 53.519L1724.27 62.0441C1724.28 62.3343 1724.27 62.6718 1724.22 63.0566L1724.25 63.0629C1724.32 62.8111 1724.45 62.4868 1724.64 62.0898L1728.27 54.4331L1730.15 54.8242Z" fill="#1A1A1A"/>
<path d="M1740.6 69.5094L1738.65 68.9272L1738.5 65.9066L1734.27 64.6485L1732.53 67.1047L1730.58 66.5248L1737.8 56.9859L1739.81 57.5837L1740.6 69.5094ZM1738.46 64.3135L1738.24 59.5869C1738.24 59.4338 1738.26 59.195 1738.3 58.8707L1738.27 58.8618C1738.14 59.1329 1738.03 59.3426 1737.92 59.491L1735.17 63.3343L1738.46 64.3135Z" fill="#1A1A1A"/>
<path d="M1752.74 73.8856L1750.84 73.1741L1748.71 63.5869C1748.66 63.3443 1748.63 63.1026 1748.62 62.8619L1748.58 62.8454C1748.54 63.0844 1748.38 63.5723 1748.1 64.3089L1745.53 71.1874L1743.85 70.5579L1747.77 60.0646L1749.8 60.8226L1751.82 70.164C1751.91 70.5528 1751.96 70.8167 1751.98 70.9557L1752.01 70.9667C1752.06 70.6704 1752.22 70.1905 1752.46 69.527L1754.99 62.7656L1756.67 63.3923L1752.74 73.8856Z" fill="#1A1A1A"/>
<path d="M1771.11 81.219C1769.79 81.2923 1768.48 81.0217 1767.18 80.4071C1765.69 79.6964 1764.7 78.6551 1764.21 77.2834C1763.73 75.9116 1763.85 74.4589 1764.58 72.9253C1765.32 71.3587 1766.44 70.3146 1767.93 69.7931C1769.42 69.2691 1770.95 69.3781 1772.51 70.12C1773.63 70.6542 1774.5 71.2681 1775.11 71.9617L1774.29 73.6905C1773.76 72.8043 1772.96 72.1064 1771.89 71.5968C1770.81 71.085 1769.76 71.0201 1768.73 71.4019C1767.7 71.786 1766.92 72.5426 1766.39 73.6716C1765.83 74.8336 1765.7 75.8894 1765.97 76.8391C1766.25 77.784 1766.9 78.4978 1767.91 78.9806C1768.61 79.3113 1769.27 79.4633 1769.91 79.4365L1771.05 77.0302L1768.92 76.0178L1769.59 74.6065L1773.4 76.4134L1771.11 81.219Z" fill="#1A1A1A"/>
<path d="M1784.09 83.7742C1782.61 86.5533 1780.56 87.2448 1777.93 85.8489C1775.41 84.5115 1774.86 82.5061 1776.27 79.8328L1779.48 73.78L1781.13 74.6513L1778.1 80.3659C1777.07 82.3076 1777.31 83.6787 1778.81 84.4792C1780.27 85.2504 1781.49 84.6997 1782.49 82.827L1785.57 77.0088L1787.21 77.8801L1784.09 83.7742Z" fill="#1A1A1A"/>
<path d="M1787.12 90.3123L1785.4 89.4827L1790.25 79.3865L1791.98 80.2161L1787.12 90.3123Z" fill="#1A1A1A"/>
<path d="M1789.87 91.6919L1794.3 81.4029L1797.27 82.6826C1801.07 84.3167 1802.24 86.8055 1800.8 90.1491C1800.12 91.7371 1799.04 92.7876 1797.57 93.3005C1796.11 93.8086 1794.49 93.6815 1792.72 92.919L1789.87 91.6919ZM1795.38 83.5848L1792.19 90.9823L1793.55 91.5696C1794.76 92.0868 1795.83 92.1586 1796.78 91.7849C1797.73 91.4133 1798.47 90.6248 1798.99 89.4194C1800.03 87.0133 1799.3 85.2735 1796.81 84.1999L1795.38 83.5848Z" fill="#1A1A1A"/>
<path d="M1807.28 98.7163L1801.37 96.5603L1805.21 86.0361L1810.89 88.1064L1810.35 89.5889L1806.42 88.156L1805.33 91.1357L1808.95 92.4561L1808.41 93.9312L1804.79 92.6108L1803.66 95.7226L1807.82 97.2412L1807.28 98.7163Z" fill="#1A1A1A"/>
<path d="M1821.28 102.966L1814.5 101.113L1814.73 100.276C1814.82 99.9346 1814.95 99.6286 1815.13 99.3583C1815.31 99.0829 1815.51 98.8366 1815.75 98.6193C1815.98 98.3969 1816.23 98.1997 1816.51 98.0276C1816.79 97.8506 1817.09 97.6876 1817.39 97.5389C1817.7 97.3851 1818.01 97.2427 1818.32 97.1118C1818.63 96.9758 1818.94 96.8385 1819.24 96.6998C1819.53 96.567 1819.79 96.4337 1820.03 96.3C1820.27 96.1613 1820.49 96.01 1820.68 95.8461C1820.87 95.6822 1821.04 95.5 1821.17 95.2995C1821.31 95.094 1821.41 94.8607 1821.48 94.5994C1821.56 94.313 1821.59 94.052 1821.55 93.8163C1821.53 93.5769 1821.45 93.3649 1821.33 93.1803C1821.21 92.992 1821.06 92.8332 1820.86 92.7038C1820.66 92.5694 1820.44 92.4672 1820.18 92.3972C1819.74 92.2764 1819.26 92.2565 1818.75 92.3375C1818.24 92.4186 1817.71 92.6074 1817.18 92.9041L1817.64 91.2235C1817.9 91.1181 1818.17 91.036 1818.42 90.9772C1818.69 90.9134 1818.95 90.8743 1819.21 90.8598C1819.47 90.8403 1819.75 90.8468 1820.02 90.8794C1820.3 90.912 1820.59 90.9694 1820.89 91.0518C1821.38 91.185 1821.8 91.3711 1822.16 91.6102C1822.53 91.8443 1822.81 92.1254 1823.03 92.4535C1823.24 92.7765 1823.37 93.1446 1823.42 93.5575C1823.48 93.9719 1823.44 94.4202 1823.3 94.9025C1823.19 95.3396 1823.02 95.7189 1822.82 96.0404C1822.62 96.3582 1822.37 96.6404 1822.09 96.8869C1821.81 97.1348 1821.49 97.356 1821.14 97.5504C1820.78 97.7448 1820.39 97.9378 1819.97 98.1295C1819.61 98.286 1819.26 98.4374 1818.91 98.5839C1818.56 98.7267 1818.24 98.8745 1817.95 99.0274C1817.66 99.1753 1817.41 99.3373 1817.21 99.5135C1817.01 99.6861 1816.88 99.8804 1816.82 100.096L1816.81 100.134L1821.69 101.467L1821.28 102.966Z" fill="#1A1A1A"/>
<path d="M1831.79 93.8415L1830.31 100.925L1831.94 101.263L1831.64 102.739L1830.01 102.401L1829.51 104.81L1827.78 104.453L1828.29 102.043L1823.32 101.011L1823.63 99.5198C1824.18 99.1083 1824.76 98.658 1825.35 98.1691C1825.95 97.6761 1826.52 97.1687 1827.08 96.6469C1827.65 96.121 1828.19 95.5882 1828.69 95.0486C1829.19 94.5089 1829.62 93.9826 1830 93.4695L1831.79 93.8415ZM1828.59 100.567L1829.55 95.9621C1828.79 96.8461 1828.05 97.6036 1827.35 98.2347C1826.66 98.8669 1826.01 99.4244 1825.42 99.9071L1828.59 100.567Z" fill="#1A1A1A"/>
<path d="M1842.68 106.816L1840.82 106.578L1841.44 101.759L1836.21 101.087L1835.59 105.906L1833.75 105.669L1835.18 94.5577L1837.02 94.7946L1836.42 99.4672L1841.65 100.139L1842.25 95.4667L1844.1 95.7046L1842.68 106.816Z" fill="#1A1A1A"/>
<path d="M1861.19 97.724L1857.97 97.7833L1858.15 107.407L1856.29 107.441L1856.12 97.8175L1852.91 97.8766L1852.88 96.2988L1861.16 96.1462L1861.19 97.724Z" fill="#1A1A1A"/>
<path d="M1872.6 106.386L1870.57 106.587L1869.29 103.848L1864.9 104.282L1864.22 107.215L1862.2 107.415L1865.27 95.8535L1867.35 95.6473L1872.6 106.386ZM1868.65 102.388L1866.66 98.0945C1866.6 97.954 1866.53 97.7257 1866.45 97.4095L1866.41 97.4125C1866.4 97.7126 1866.37 97.951 1866.33 98.1276L1865.24 102.726L1868.65 102.388Z" fill="#1A1A1A"/>
<path d="M1876.05 105.797L1874.16 106.106L1872.35 95.0505L1874.24 94.741L1876.05 105.797Z" fill="#1A1A1A"/>
<path d="M1890.07 91.1878L1889.82 102.801L1887.78 103.313L1883.81 96.2315C1883.64 95.9297 1883.5 95.5894 1883.38 95.2105L1883.35 95.2181C1883.42 95.5831 1883.44 95.9469 1883.43 96.3095L1883.27 104.446L1881.18 104.969L1875.42 94.8649L1877.4 94.3686L1881.36 101.831C1881.53 102.144 1881.67 102.48 1881.78 102.839L1881.81 102.829C1881.77 102.566 1881.75 102.2 1881.76 101.73L1882 93.2146L1883.85 92.7488L1887.93 100.249C1888.06 100.504 1888.2 100.814 1888.33 101.179L1888.36 101.171C1888.31 100.915 1888.28 100.567 1888.28 100.127L1888.21 91.6556L1890.07 91.1878Z" fill="#1A1A1A"/>
<path d="M1903.34 98.2543L1901.42 98.9473L1899.5 96.6079L1895.36 98.1053L1895.42 101.116L1893.51 101.807L1893.65 89.8446L1895.61 89.1331L1903.34 98.2543ZM1898.53 95.3498L1895.54 91.6753C1895.45 91.5541 1895.32 91.3505 1895.17 91.0645L1895.14 91.0751C1895.19 91.3702 1895.22 91.6084 1895.23 91.7895L1895.3 96.5153L1898.53 95.3498Z" fill="#1A1A1A"/>
<path d="M1913.53 93.6996L1911.69 94.5484L1903.39 89.3034C1903.18 89.1708 1902.98 89.0212 1902.81 88.8547L1902.77 88.8743C1902.91 89.0745 1903.14 89.5319 1903.47 90.2464L1906.54 96.9183L1904.9 97.6692L1900.22 87.491L1902.19 86.5867L1910.25 91.7293C1910.58 91.9407 1910.81 92.0901 1910.92 92.1776L1910.95 92.1645C1910.77 91.9166 1910.54 91.4708 1910.24 90.8273L1907.23 84.2689L1908.85 83.5214L1913.53 93.6996Z" fill="#1A1A1A"/>
<path d="M1927.64 84.9531C1926.96 86.0958 1926.01 87.0332 1924.78 87.7656C1923.35 88.6125 1921.94 88.8551 1920.53 88.4935C1919.12 88.1319 1917.98 87.2215 1917.11 85.7623C1916.23 84.2718 1915.98 82.7636 1916.38 81.2376C1916.77 79.7045 1917.71 78.4959 1919.2 77.6118C1920.27 76.9753 1921.26 76.5966 1922.18 76.4759L1923.16 78.1208C1922.13 78.0679 1921.1 78.345 1920.08 78.9522C1919.05 79.562 1918.41 80.4006 1918.16 81.468C1917.91 82.5327 1918.1 83.6021 1918.74 84.6764C1919.4 85.7819 1920.2 86.4848 1921.14 86.7848C1922.08 87.0803 1923.03 86.9405 1924 86.3653C1924.66 85.9711 1925.16 85.5027 1925.49 84.9599L1924.13 82.6705L1922.1 83.8769L1921.3 82.5341L1924.92 80.3809L1927.64 84.9531Z" fill="#1A1A1A"/>
<path d="M1934.38 75.8926C1936.17 78.485 1935.83 80.625 1933.37 82.3127C1931.02 83.9295 1928.99 83.491 1927.27 80.9973L1923.39 75.3511L1924.93 74.2978L1928.59 79.6286C1929.83 81.4398 1931.16 81.8616 1932.57 80.8939C1933.93 79.9615 1934 78.622 1932.8 76.8751L1929.07 71.4477L1930.6 70.3944L1934.38 75.8926Z" fill="#1A1A1A"/>
<path d="M1941.57 76.2043L1940.04 77.3605L1933.28 68.4324L1934.8 67.2762L1941.57 76.2043Z" fill="#1A1A1A"/>
<path d="M1944.81 73.7781L1937.66 65.1565L1940.15 63.0911C1943.33 60.4538 1946.08 60.536 1948.4 63.3377C1949.51 64.6684 1949.95 66.1045 1949.74 67.6458C1949.53 69.1831 1948.68 70.5671 1947.2 71.7976L1944.81 73.7781ZM1940.09 65.1886L1945.23 71.3873L1946.38 70.4395C1947.38 69.6047 1947.93 68.6796 1948.03 67.6642C1948.14 66.6454 1947.77 65.631 1946.93 64.6209C1945.26 62.6048 1943.38 62.4631 1941.29 64.1959L1940.09 65.1886Z" fill="#1A1A1A"/>
</svg>
