<svg width="72" height="159" viewBox="0 0 72 159" fill="none" xmlns="http://www.w3.org/2000/svg">
<g clip-path="url(#clip0_122_193)">
<path d="M17.9297 4.52734L17.9297 8.32422L22.3945 8.32422C24.1914 8.32422 25.9492 8.28516 27.668 8.20703C27.8398 8.20703 27.9375 8.35156 27.9609 8.64063C27.9844 8.9375 27.9961 9.23828 27.9961 9.54297C27.9961 9.84766 27.9844 10.1484 27.9609 10.4453C27.9453 10.7344 27.8359 10.8789 27.6328 10.8789C27.5937 10.8789 27.5508 10.8789 27.5039 10.8789C25.332 10.8398 23.6289 10.8203 22.3945 10.8203L17.9062 10.8203L17.9062 14.4414C17.9062 15.1211 18.1211 15.5469 18.5508 15.7188C19.082 15.8906 19.9531 15.9766 21.1641 15.9766C22.9062 15.9766 24.3164 15.8828 25.3945 15.6953C25.5898 15.6953 25.6875 15.8125 25.6875 16.0469C25.7344 16.4766 25.7578 17.1094 25.7578 17.9453C25.7578 18.1484 25.7187 18.2852 25.6406 18.3555C25.5781 18.4023 25.457 18.4336 25.2773 18.4492C24.2383 18.5898 22.75 18.6602 20.8125 18.6602C18.9844 18.6602 17.5977 18.4453 16.6523 18.0156C15.5977 17.5312 15.0703 16.5547 15.0703 15.0859L15.0703 10.8203L13.5352 10.8203C12.0586 10.8203 10.3945 10.8594 8.54297 10.9375C8.29297 10.9531 8.15625 10.8008 8.13281 10.4805C8.10937 10.332 8.05469 9.57422 7.96875 8.20703C9.14062 8.30078 11.0039 8.34766 13.5586 8.34766L15.0703 8.34766L15.0703 4.55078C12.8437 4.55078 11.4531 4.56641 10.8984 4.59766C10.625 4.59766 10.4883 4.45312 10.4883 4.16406C10.4258 3.52344 10.3945 2.78125 10.3945 1.9375C11.3555 2.01562 12.9883 2.05469 15.293 2.05469L20.1328 2.05469C21.5625 2.05469 23.1406 2.02344 24.8672 1.96094C25.1094 1.96094 25.2305 2.09766 25.2305 2.3711C25.2617 3.13672 25.2773 3.72656 25.2773 4.14063C25.2773 4.41406 25.1445 4.55078 24.8789 4.55078L24.7734 4.55078L20.1328 4.52734L17.9297 4.52734ZM23.8125 28.2031L25.1719 27.4297C25.2187 27.4063 25.2617 27.3945 25.3008 27.3945C25.3711 27.3945 25.4414 27.4336 25.5117 27.5117C26.2461 28.1914 26.9258 29.1172 27.5508 30.2891C27.582 30.3438 27.5977 30.3945 27.5977 30.4414C27.5977 30.5273 27.543 30.6055 27.4336 30.6758L26.3555 31.3203C26.293 31.3516 26.2383 31.3672 26.1914 31.3672C26.1055 31.3672 26.0312 31.3125 25.9687 31.2031C25.3125 29.9609 24.5937 28.9609 23.8125 28.2031ZM26.1562 26.832L27.457 26.082C27.5117 26.0508 27.5586 26.0352 27.5977 26.0352C27.6445 26.0352 27.7109 26.0781 27.7969 26.1641C28.6484 26.9609 29.3281 27.8555 29.8359 28.8477C29.8672 28.9102 29.8828 28.9688 29.8828 29.0234C29.8828 29.1172 29.8281 29.2031 29.7187 29.2813L28.7109 29.9258C28.6406 29.9648 28.5781 29.9844 28.5234 29.9844C28.4297 29.9844 28.3555 29.9258 28.3008 29.8086C27.7148 28.668 27 27.6758 26.1562 26.832ZM10.875 28.9883C12.2734 29.0664 13.6016 29.1055 14.8594 29.1055L19.2773 29.1055C20.9258 29.1055 22.2734 29.0742 23.3203 29.0117C23.5156 29.0117 23.6133 29.1641 23.6133 29.4688C23.6367 29.7578 23.6484 30.0469 23.6484 30.3359C23.6484 30.625 23.6367 30.918 23.6133 31.2148C23.6133 31.5195 23.5078 31.6719 23.2969 31.6719C22.0234 31.625 20.6836 31.6016 19.2773 31.6016L14.8594 31.6016C14.375 31.6016 13.2383 31.6328 11.4492 31.6953C11.1992 31.6953 11.0625 31.5586 11.0391 31.2852C11.0156 31.0664 10.9883 30.6914 10.957 30.1602C10.918 29.6133 10.8906 29.2227 10.875 28.9883ZM19.6055 37.1797C19.5273 38.6406 19.375 39.832 19.1484 40.7539C18.9453 41.6133 18.625 42.4609 18.1875 43.2969C17.6953 44.2734 17.0156 45.2031 16.1484 46.0859C15.4297 46.8125 14.7031 47.3945 13.9687 47.832C13.6641 48.0273 13.4258 48.125 13.2539 48.125C13.0742 48.125 12.9062 48.0469 12.75 47.8906C12.2422 47.375 11.5273 46.9492 10.6055 46.6133C11.8945 45.918 12.9101 45.2305 13.6523 44.5508C14.3476 43.9102 14.9258 43.1719 15.3867 42.3359C15.8398 41.5312 16.1523 40.707 16.3242 39.8633C16.4648 39.1836 16.5586 38.2891 16.6055 37.1797L12.0469 37.1797C11.2812 37.1797 10.082 37.2266 8.44921 37.3203C8.26952 37.3437 8.16406 37.1914 8.13281 36.8633C8.00781 36.1523 7.94531 35.3867 7.94531 34.5664C8.84374 34.6445 10.2031 34.6836 12.0234 34.6836L22.8047 34.6836C24.5156 34.6836 26.0742 34.6367 27.4805 34.543C27.6523 34.543 27.7383 34.7031 27.7383 35.0234C27.7539 35.1875 27.7617 35.4922 27.7617 35.9375C27.7617 36.3906 27.7539 36.6992 27.7383 36.8633C27.7383 37.1367 27.6211 37.2734 27.3867 37.2734C25.7226 37.2109 24.2031 37.1797 22.8281 37.1797L19.6055 37.1797ZM20.4609 69.9375C21.5312 69.3672 22.668 68.6211 23.8711 67.6992C25.5273 66.4336 26.9258 65.0742 28.0664 63.6211C28.1601 64.4648 28.4101 65.2734 28.8164 66.0469C28.9101 66.2734 28.957 66.4102 28.957 66.457C28.957 66.6211 28.8359 66.8203 28.5937 67.0547C27.4141 68.2656 26.2305 69.3164 25.043 70.207C23.668 71.2617 22.2461 72.2227 20.7773 73.0898C20.5508 73.2383 20.3203 73.4063 20.0859 73.5938C19.9297 73.7188 19.7656 73.7813 19.5937 73.7813C19.4687 73.7813 19.3008 73.7188 19.0898 73.5938C18.6289 73.2734 18.1484 72.7852 17.6484 72.1289C17.5078 71.9102 17.4375 71.7422 17.4375 71.625C17.4375 71.5078 17.4687 71.3867 17.5312 71.2617C17.625 71.082 17.6719 70.4727 17.6719 69.4336L17.6719 61.9219C17.6719 59.875 17.5898 58.4805 17.4258 57.7383C18.9414 57.9336 19.9453 58.1016 20.4375 58.2422C20.7266 58.3125 20.8711 58.4492 20.8711 58.6523C20.8711 58.8008 20.8086 59.0039 20.6836 59.2617C20.5351 59.5586 20.4609 60.4453 20.4609 61.9219L20.4609 69.9375ZM12.082 59.2617C13.6289 59.4492 14.6445 59.625 15.1289 59.7891C15.3867 59.8594 15.5156 60.0039 15.5156 60.2227C15.5156 60.3086 15.4922 60.4102 15.4453 60.5273C15.25 60.9102 15.1523 61.4531 15.1523 62.1562C15.1055 65.0312 14.6719 67.3828 13.8516 69.2109C13.1484 70.875 12.0117 72.3789 10.4414 73.7227C10.1836 73.9336 9.97655 74.0391 9.8203 74.0391C9.6953 74.0391 9.54296 73.9766 9.36327 73.8516C8.80077 73.4609 8.12108 73.125 7.32421 72.8437C9.19921 71.4219 10.5273 69.8281 11.3086 68.0625C11.6914 67.125 11.9492 66.1992 12.082 65.2852C12.2305 64.3164 12.3086 62.9805 12.3164 61.2773C12.3164 60.5273 12.2383 59.8555 12.082 59.2617ZM22.6758 97.7969L22.6758 89.9453L14.2969 89.9453C12.7344 89.9453 11.5351 89.9922 10.6992 90.0859C10.457 90.0859 10.3359 89.9492 10.3359 89.6758C10.2578 88.957 10.2187 88.1055 10.2187 87.1211C11.3359 87.2305 12.6719 87.2852 14.2265 87.2852L21.3515 87.2852C22.1875 87.2852 23.4531 87.2539 25.1484 87.1914C25.4687 87.1914 25.6289 87.3047 25.6289 87.5313C25.6289 87.5391 25.6289 87.5625 25.6289 87.6016L25.582 91.3867L25.582 97.1289C25.582 98.2617 25.6133 99.707 25.6758 101.465C25.6758 101.668 25.5312 101.781 25.2422 101.805C24.914 101.828 24.5625 101.84 24.1875 101.84C23.8125 101.84 23.4609 101.828 23.1328 101.805C22.9219 101.789 22.793 101.758 22.7461 101.711C22.6992 101.664 22.6758 101.559 22.6758 101.395L22.6758 100.434L14.4258 100.434C13.8008 100.434 13.0547 100.449 12.1875 100.48C11.2344 100.512 10.668 100.527 10.4883 100.527C10.2851 100.527 10.1719 100.406 10.1484 100.164C10.0703 99.4766 10.0312 98.6484 10.0312 97.6797C11.2812 97.7578 12.7539 97.7969 14.4492 97.7969L22.6758 97.7969ZM16.207 112.191C17.7226 112.316 18.7812 112.457 19.3828 112.613C19.7031 112.684 19.8633 112.859 19.8633 113.141C19.8633 113.297 19.8281 113.426 19.7578 113.527C19.539 114.027 19.4297 115.219 19.4297 117.102L19.4297 126.242C19.4297 126.875 19.4375 127.703 19.4531 128.727C19.4765 129.938 19.4922 130.664 19.5 130.906C19.5 131.273 19.3633 131.457 19.0898 131.457C18.7226 131.465 18.3633 131.469 18.0117 131.469C17.6523 131.469 17.2929 131.465 16.9336 131.457C16.6289 131.434 16.4765 131.293 16.4765 131.035C16.4765 131.012 16.4765 130.977 16.4765 130.93L16.5234 126.277L16.5234 116.82C16.5234 114.883 16.4179 113.34 16.207 112.191ZM20.6484 150.223C22.8828 151.879 25.0976 153.813 27.2929 156.023C27.4179 156.148 27.4804 156.262 27.4804 156.363C27.4804 156.465 27.4258 156.582 27.3164 156.715C26.8086 157.332 26.2734 157.879 25.7109 158.355C25.6093 158.449 25.5117 158.496 25.4179 158.496C25.3242 158.496 25.2109 158.434 25.0781 158.309C23.2734 156.191 21.1953 154.207 18.8437 152.355C16.3359 154.973 13.6484 157.086 10.7812 158.695C10.4922 158.82 10.3086 158.883 10.2304 158.883C10.0742 158.883 9.93747 158.812 9.82028 158.672C9.37497 158.117 8.7031 157.594 7.80466 157.102C9.73435 156.125 11.3906 155.117 12.7734 154.078C13.8984 153.234 15.0586 152.203 16.2539 150.984C17.9648 149.211 19.4687 147.203 20.7656 144.961L14.5781 144.984C13.3437 144.984 12.0781 145.035 10.7812 145.137C10.625 145.152 10.5195 145.016 10.4648 144.727C10.3242 144.125 10.2539 143.293 10.2539 142.23C11.1133 142.293 12.4648 142.324 14.3086 142.324L20.9062 142.324C21.7422 142.324 22.2929 142.25 22.5586 142.102C22.6445 142.039 22.7344 142.008 22.8281 142.008C22.9062 142.008 23.0429 142.07 23.2383 142.195C23.7539 142.602 24.2734 143.164 24.7968 143.883C24.875 144.016 24.914 144.117 24.914 144.188C24.914 144.352 24.8086 144.512 24.5976 144.668C24.2695 144.957 23.9765 145.313 23.7187 145.734C22.8203 147.258 21.7968 148.754 20.6484 150.223Z" fill="black"/>
</g>
<g clip-path="url(#clip1_122_193)">
<path d="M49.7461 4.89062L49.7695 2.14844C49.7695 1.34375 49.7148 0.699218 49.6055 0.214843C50.7695 0.285156 51.7187 0.425781 52.4531 0.636719C52.7734 0.722656 52.9336 0.875 52.9336 1.09375C52.9336 1.1875 52.8867 1.31641 52.793 1.48047C52.6133 1.81641 52.5 2.12891 52.4531 2.41797C52.4062 2.87891 52.3672 3.54297 52.3359 4.41016C53.1875 4.23828 54.2148 3.94531 55.418 3.53125C55.4805 3.50781 55.5352 3.49609 55.582 3.49609C55.7227 3.49609 55.8047 3.57813 55.8281 3.74219C55.9219 4.34375 55.9687 4.96484 55.9687 5.60547C55.9687 5.80078 55.8633 5.92969 55.6523 5.99219C54.3789 6.39844 53.2344 6.70313 52.2187 6.90625L52.1719 10.3867C54.3047 9.47266 56.2734 9.03125 58.0781 9.0625C59.6875 9.07813 60.9687 9.57813 61.9219 10.5625C62.7656 11.4297 63.1875 12.5273 63.1875 13.8555C63.1875 15.4961 62.6641 16.7461 61.6172 17.6055C60.7031 18.3555 59.4922 18.7305 57.9844 18.7305C57.2734 18.7305 56.6172 18.6602 56.0156 18.5195C55.6641 18.4258 55.4883 18.1836 55.4883 17.793C55.4102 16.9961 55.168 16.3203 54.7617 15.7656C55.6211 16.0469 56.6211 16.1875 57.7617 16.1875C58.543 16.1875 59.1719 15.9609 59.6484 15.5078C60.1172 15.0625 60.3516 14.4648 60.3516 13.7148C60.3516 12.8867 60.0898 12.2617 59.5664 11.8398C59.1133 11.4727 58.4961 11.2891 57.7148 11.2891C56.168 11.2891 54.3359 11.8359 52.2187 12.9297C52.2422 13.9531 52.2734 14.9141 52.3125 15.8125C52.4453 17.6797 52.5117 18.7187 52.5117 18.9297C52.5117 19.2031 52.5 19.375 52.4766 19.4453C52.4297 19.5859 52.3203 19.6758 52.1484 19.7148C51.5547 19.8789 50.9648 19.9766 50.3789 20.0078C50.2227 20.0234 50.0273 19.8633 49.793 19.5273C49.0742 18.5352 47.9375 17.5117 46.3828 16.457C46.0859 16.6211 45.832 16.7969 45.6211 16.9844C45.5039 17.0937 45.3672 17.1484 45.2109 17.1484C45.0156 17.1484 44.8398 17.0195 44.6836 16.7617C44.4414 16.3711 44.0742 15.6289 43.582 14.5352C44.3555 14.3555 45.0898 14.0742 45.7852 13.6914C46.5117 13.293 47.8164 12.5508 49.6992 11.4648L49.6992 7.36328C48.0977 7.48828 46.7539 7.55078 45.668 7.55078C45.3242 7.55078 45.1328 7.38281 45.0937 7.04687C45.0312 6.66406 44.9414 5.96875 44.8242 4.96094C45.3477 5.03906 45.9727 5.07812 46.6992 5.07812C47.3867 5.07812 48.4023 5.01562 49.7461 4.89062ZM49.8164 13.9844C48.8008 14.6719 48.0195 15.2148 47.4727 15.6133C48.3008 16.0586 49.0508 16.418 49.7227 16.6914C49.7773 16.707 49.8203 16.7148 49.8516 16.7148C49.9297 16.7148 49.9687 16.668 49.9687 16.5742C49.9687 16.5508 49.9648 16.5273 49.957 16.5039C49.9414 16.2617 49.918 15.832 49.8867 15.2148C49.8555 14.5898 49.832 14.1797 49.8164 13.9844ZM57.8437 4.89063C58.1172 4.32031 58.4844 3.69531 58.9453 3.01563C59.0703 2.8125 59.1758 2.71094 59.2617 2.71094C59.2852 2.71094 59.3164 2.71484 59.3555 2.72266C61.4258 3.33203 63.1211 4.3086 64.4414 5.65235C64.5352 5.75391 64.582 5.83594 64.582 5.89844C64.582 5.92969 64.5508 6.00781 64.4883 6.13281C64.3555 6.33594 64.1289 6.64063 63.8086 7.04688C63.457 7.5 63.25 7.76563 63.1875 7.84375C63.1484 7.89844 63.0625 7.92578 62.9297 7.92578C62.8125 7.92578 62.7383 7.89844 62.707 7.84375C61.582 6.59375 59.9609 5.60938 57.8437 4.89063ZM53.9297 31.2852C53.9219 31.0508 53.9141 30.6836 53.9062 30.1836C53.8984 29.8086 53.8906 29.5117 53.8828 29.293C53.8359 28.6914 53.7383 28.1055 53.5898 27.5352C54.7617 27.6133 55.6992 27.7266 56.4023 27.875C56.8477 27.9531 57.0703 28.1055 57.0703 28.332C57.0703 28.457 57 28.6406 56.8594 28.8828C56.7734 29.0469 56.707 29.2773 56.6602 29.5742C56.6523 29.6758 56.6367 30.1875 56.6133 31.1094C58.7617 31.0313 61.2187 30.9922 63.9844 30.9922C64.1328 30.9922 64.2266 31.0156 64.2656 31.0625C64.3047 31.1094 64.3281 31.207 64.3359 31.3555C64.3516 31.668 64.3594 31.9727 64.3594 32.2695C64.3594 32.5664 64.3516 32.8711 64.3359 33.1836C64.3359 33.3945 64.2344 33.5 64.0312 33.5C64 33.5 63.9687 33.5 63.9375 33.5C62.4844 33.4531 60.9414 33.4297 59.3086 33.4297C58.3242 33.4297 57.4258 33.4336 56.6133 33.4414C56.6133 35.4414 56.6211 36.9297 56.6367 37.9063C56.8789 38.5547 57 39.3477 57 40.2852C57 43.582 55.5742 46.1641 52.7226 48.0312C52.2539 48.3359 51.9414 48.4883 51.7851 48.4883C51.6133 48.4883 51.375 48.3672 51.0703 48.125C50.5625 47.7031 49.9531 47.3867 49.2422 47.1758C50.7031 46.5273 51.875 45.6797 52.7578 44.6328C53.4922 43.7734 53.9609 42.8594 54.1641 41.8906C53.7266 42.5313 52.9766 42.8516 51.9141 42.8516C50.8672 42.8516 50.0351 42.4844 49.418 41.75C48.8555 41.0859 48.5742 40.2266 48.5742 39.1719C48.5742 38.0156 48.9805 37.0977 49.793 36.418C50.4648 35.8555 51.2656 35.5742 52.1953 35.5742C53.0469 35.5742 53.6562 35.7344 54.0234 36.0547L54 33.6055C50.5312 33.8008 47.7617 34.043 45.6914 34.332C45.5039 34.3555 45.2656 34.4141 44.9766 34.5078C44.7656 34.5781 44.6289 34.6133 44.5664 34.6133C44.3633 34.6133 44.2266 34.5 44.1562 34.2734C43.9922 33.8594 43.793 33.0547 43.5586 31.8594C43.8008 31.8828 44.0547 31.8945 44.3203 31.8945C44.5625 31.8945 45.2852 31.8516 46.4883 31.7656C47.7773 31.6562 50.2578 31.4961 53.9297 31.2852ZM52.3945 37.4492C51.9414 37.4492 51.5625 37.5937 51.2578 37.8828C50.9531 38.1719 50.8008 38.5469 50.8008 39.0078C50.8008 39.5547 50.9687 39.9805 51.3047 40.2852C51.5781 40.5273 51.9219 40.6484 52.3359 40.6484C52.8437 40.6484 53.25 40.4922 53.5547 40.1797C53.8359 39.8828 53.9766 39.4844 53.9766 38.9844C53.9766 38.4688 53.8125 38.0742 53.4844 37.8008C53.2109 37.5664 52.8476 37.4492 52.3945 37.4492ZM53.9297 59.2852C53.9219 59.0508 53.9141 58.6836 53.9062 58.1836C53.8984 57.8086 53.8906 57.5117 53.8828 57.293C53.8359 56.6914 53.7383 56.1055 53.5898 55.5352C54.7617 55.6133 55.6992 55.7266 56.4023 55.875C56.8476 55.9531 57.0703 56.1055 57.0703 56.332C57.0703 56.457 57 56.6406 56.8594 56.8828C56.7734 57.0469 56.707 57.2773 56.6601 57.5742C56.6523 57.6758 56.6367 58.1875 56.6133 59.1094C58.7617 59.0313 61.2187 58.9922 63.9844 58.9922C64.1328 58.9922 64.2266 59.0156 64.2656 59.0625C64.3047 59.1094 64.3281 59.207 64.3359 59.3555C64.3516 59.668 64.3594 59.9727 64.3594 60.2695C64.3594 60.5664 64.3516 60.8711 64.3359 61.1836C64.3359 61.3945 64.2344 61.5 64.0312 61.5C64 61.5 63.9687 61.5 63.9375 61.5C62.4844 61.4531 60.9414 61.4297 59.3086 61.4297C58.3242 61.4297 57.4258 61.4336 56.6133 61.4414C56.6133 63.4414 56.6211 64.9297 56.6367 65.9063C56.8789 66.5547 57 67.3477 57 68.2852C57 71.582 55.5742 74.1641 52.7226 76.0312C52.2539 76.3359 51.9414 76.4883 51.7851 76.4883C51.6133 76.4883 51.375 76.3672 51.0703 76.125C50.5625 75.7031 49.9531 75.3867 49.2422 75.1758C50.7031 74.5273 51.875 73.6797 52.7578 72.6328C53.4922 71.7734 53.9609 70.8594 54.1641 69.8906C53.7266 70.5313 52.9766 70.8516 51.9141 70.8516C50.8672 70.8516 50.0351 70.4844 49.418 69.75C48.8555 69.0859 48.5742 68.2266 48.5742 67.1719C48.5742 66.0156 48.9805 65.0977 49.793 64.418C50.4648 63.8555 51.2656 63.5742 52.1953 63.5742C53.0469 63.5742 53.6562 63.7344 54.0234 64.0547L54 61.6055C50.5312 61.8008 47.7617 62.043 45.6914 62.332C45.5039 62.3555 45.2656 62.4141 44.9766 62.5078C44.7656 62.5781 44.6289 62.6133 44.5664 62.6133C44.3633 62.6133 44.2266 62.5 44.1562 62.2734C43.9922 61.8594 43.793 61.0547 43.5586 59.8594C43.8008 59.8828 44.0547 59.8945 44.3203 59.8945C44.5625 59.8945 45.2851 59.8516 46.4883 59.7656C47.7773 59.6562 50.2578 59.4961 53.9297 59.2852ZM52.3945 65.4492C51.9414 65.4492 51.5625 65.5937 51.2578 65.8828C50.9531 66.1719 50.8008 66.5469 50.8008 67.0078C50.8008 67.5547 50.9687 67.9805 51.3047 68.2852C51.5781 68.5273 51.9219 68.6484 52.3359 68.6484C52.8437 68.6484 53.25 68.4922 53.5547 68.1797C53.8359 67.8828 53.9766 67.4844 53.9766 66.9844C53.9766 66.4688 53.8125 66.0742 53.4844 65.8008C53.2109 65.5664 52.8476 65.4492 52.3945 65.4492ZM54.7031 88.7266C54.9609 87.9609 55.1914 86.9844 55.3945 85.7969C55.4492 85.375 55.4765 85.0195 55.4765 84.7305C55.4765 84.5195 55.4648 84.3281 55.4414 84.1563C56.5898 84.3906 57.5351 84.7109 58.2773 85.1172C58.5351 85.2344 58.664 85.3789 58.664 85.5508C58.664 85.6602 58.6094 85.7969 58.5 85.9609C58.2969 86.2422 58.1367 86.5391 58.0195 86.8516C57.7695 87.5078 57.543 88.1484 57.3398 88.7734C59.4101 89.1016 61.0273 89.9375 62.1914 91.2813C63.2305 92.5 63.75 93.9844 63.75 95.7344C63.75 99.8672 61.293 102.539 56.3789 103.75C56.2226 103.781 56.1015 103.797 56.0156 103.797C55.7969 103.797 55.5898 103.645 55.3945 103.34C54.957 102.637 54.4375 102.109 53.8359 101.758C58.625 100.773 61.0195 98.6602 61.0195 95.418C61.0195 94.1055 60.5781 93.0273 59.6953 92.1836C58.914 91.4414 57.914 91.0078 56.6953 90.8828C55.5156 93.7344 54.3476 96.0703 53.1914 97.8906C53.582 98.4297 53.9258 98.8359 54.2226 99.1094C53.5976 99.8594 53.1015 100.352 52.7344 100.586C52.625 100.664 52.5117 100.703 52.3945 100.703C52.293 100.703 52.1836 100.656 52.0664 100.562C51.8086 100.305 51.5898 100.07 51.4101 99.8594C49.9805 101.375 48.6445 102.133 47.4023 102.133C46.4101 102.133 45.625 101.738 45.0469 100.949C44.5234 100.246 44.2617 99.3437 44.2617 98.2422C44.2617 95.7109 45.3984 93.418 47.6719 91.3633C47.5937 91.1055 47.3437 90.0508 46.9219 88.1992C46.6406 87.082 46.4023 86.3281 46.207 85.9375C47.3945 85.9844 48.2969 86.1133 48.914 86.3242C49.2187 86.4023 49.3711 86.6328 49.3711 87.0156C49.3711 87.5156 49.4023 87.9727 49.4648 88.3867C49.5976 89.1602 49.7109 89.7266 49.8047 90.0859C51.2031 89.3437 52.8359 88.8906 54.7031 88.7266ZM50.3789 92.2539C50.7461 93.5977 51.1953 94.7656 51.7265 95.7578C52.4531 94.5781 53.2109 92.9609 54 90.9063C52.7265 91.0703 51.5195 91.5195 50.3789 92.2539ZM48.4101 93.8359C47.293 95.1562 46.7344 96.5469 46.7344 98.0078C46.7344 98.4531 46.8203 98.8164 46.9922 99.0977C47.1484 99.3477 47.3437 99.4727 47.5781 99.4727C48.2812 99.4727 49.1133 98.8906 50.0742 97.7266C49.332 96.2969 48.7773 95 48.4101 93.8359Z" fill="black"/>
</g>
<defs>
<clipPath id="clip0_122_193">
<rect width="36" height="159" fill="white"/>
</clipPath>
<clipPath id="clip1_122_193">
<rect width="36" height="103" fill="white" transform="translate(36)"/>
</clipPath>
</defs>
</svg>
