<svg width="117" height="15" viewBox="0 0 117 15" fill="none" xmlns="http://www.w3.org/2000/svg">
<path d="M0.471459 14L7.45546 1.148H9.14746L10.7315 14H9.14746L8.66146 10.004H4.32346L2.23546 14H0.471459ZM5.09746 8.564H8.49946L8.21146 5.864C8.16346 5.408 8.11546 4.904 8.06746 4.352C8.03146 3.8 8.00746 3.314 7.99546 2.894H7.94146C7.74946 3.35 7.52746 3.842 7.27546 4.37C7.02346 4.886 6.75946 5.408 6.48346 5.936L5.09746 8.564ZM16.9509 14.18C16.2429 14.18 15.6189 14.048 15.0789 13.784C14.5389 13.52 14.1189 13.124 13.8189 12.596C13.5189 12.056 13.3689 11.384 13.3689 10.58C13.3689 9.884 13.4409 9.224 13.5849 8.6C13.7409 7.964 13.9629 7.376 14.2509 6.836C14.5389 6.296 14.8869 5.828 15.2949 5.432C15.7029 5.036 16.1649 4.73 16.6809 4.514C17.2089 4.286 17.7849 4.172 18.4089 4.172C18.8289 4.172 19.2489 4.214 19.6689 4.298C20.0889 4.382 20.4669 4.496 20.8029 4.64L20.3529 5.954C20.1129 5.846 19.8249 5.744 19.4889 5.648C19.1649 5.552 18.8109 5.504 18.4269 5.504C18.0189 5.504 17.6349 5.594 17.2749 5.774C16.9269 5.942 16.6089 6.182 16.3209 6.494C16.0449 6.806 15.8049 7.178 15.6009 7.61C15.4089 8.03 15.2589 8.492 15.1509 8.996C15.0429 9.488 14.9889 10.01 14.9889 10.562C14.9889 11.042 15.0729 11.456 15.2409 11.804C15.4089 12.152 15.6489 12.416 15.9609 12.596C16.2849 12.776 16.6689 12.866 17.1129 12.866C17.5329 12.866 17.9289 12.806 18.3009 12.686C18.6849 12.566 19.0629 12.428 19.4349 12.272V13.604C19.0989 13.772 18.7209 13.91 18.3009 14.018C17.8929 14.126 17.4429 14.18 16.9509 14.18ZM24.8911 14.18C24.2431 14.18 23.6971 14.024 23.2531 13.712C22.8091 13.4 22.5871 12.854 22.5871 12.074C22.5871 11.894 22.5991 11.696 22.6231 11.48C22.6591 11.252 22.7011 11.024 22.7491 10.796L23.8471 5.558H22.3531L22.4971 4.838L24.1171 4.154L25.2331 2.156H26.1691L25.6831 4.352H28.1131L27.8611 5.558H25.4491L24.3331 10.814C24.2971 10.97 24.2611 11.15 24.2251 11.354C24.1891 11.546 24.1711 11.726 24.1711 11.894C24.1711 12.17 24.2431 12.404 24.3871 12.596C24.5431 12.788 24.7891 12.884 25.1251 12.884C25.3411 12.884 25.5511 12.866 25.7551 12.83C25.9591 12.782 26.1751 12.722 26.4031 12.65V13.856C26.2591 13.928 26.0371 14 25.7371 14.072C25.4371 14.144 25.1551 14.18 24.8911 14.18ZM28.9417 14L30.9937 4.352H32.5777L30.5257 14H28.9417ZM32.2717 2.75C32.0197 2.75 31.8097 2.678 31.6417 2.534C31.4857 2.378 31.4077 2.168 31.4077 1.904C31.4077 1.7 31.4497 1.514 31.5337 1.346C31.6177 1.166 31.7377 1.022 31.8937 0.913999C32.0497 0.805999 32.2417 0.751999 32.4697 0.751999C32.7457 0.751999 32.9497 0.823999 33.0817 0.967999C33.2257 1.112 33.2977 1.31 33.2977 1.562C33.2977 1.934 33.1897 2.228 32.9737 2.444C32.7577 2.648 32.5237 2.75 32.2717 2.75ZM35.9583 14L34.8423 4.352H36.4263L36.9663 9.716C37.0023 10.028 37.0323 10.394 37.0563 10.814C37.0923 11.234 37.1163 11.63 37.1283 12.002C37.1523 12.362 37.1643 12.626 37.1643 12.794H37.2183C37.3503 12.494 37.5063 12.152 37.6863 11.768C37.8663 11.384 38.0463 11 38.2263 10.616C38.4183 10.232 38.5803 9.914 38.7123 9.662L41.5563 4.352H43.2483L38.0283 14H35.9583ZM47.6367 14.18C46.8927 14.18 46.2567 14.036 45.7287 13.748C45.2127 13.448 44.8167 13.028 44.5407 12.488C44.2767 11.936 44.1447 11.288 44.1447 10.544C44.1447 9.776 44.2527 9.02 44.4687 8.276C44.6967 7.52 45.0207 6.836 45.4407 6.224C45.8607 5.6 46.3647 5.102 46.9527 4.73C47.5527 4.358 48.2247 4.172 48.9687 4.172C49.8807 4.172 50.5647 4.37 51.0207 4.766C51.4887 5.162 51.7227 5.714 51.7227 6.422C51.7227 6.89 51.6147 7.334 51.3987 7.754C51.1827 8.162 50.8467 8.522 50.3907 8.834C49.9347 9.146 49.3527 9.392 48.6447 9.572C47.9367 9.74 47.0847 9.824 46.0887 9.824H45.7827C45.7707 9.932 45.7587 10.046 45.7467 10.166C45.7467 10.286 45.7467 10.394 45.7467 10.49C45.7467 11.222 45.9267 11.804 46.2867 12.236C46.6467 12.656 47.1927 12.866 47.9247 12.866C48.3807 12.866 48.8127 12.8 49.2207 12.668C49.6287 12.536 50.0727 12.356 50.5527 12.128V13.478C50.0967 13.682 49.6467 13.85 49.2027 13.982C48.7707 14.114 48.2487 14.18 47.6367 14.18ZM46.1427 8.546C46.8627 8.546 47.5287 8.486 48.1407 8.366C48.7527 8.234 49.2447 8.024 49.6167 7.736C49.9887 7.436 50.1747 7.04 50.1747 6.548C50.1747 6.236 50.0667 5.984 49.8507 5.792C49.6467 5.588 49.3227 5.486 48.8787 5.486C48.4947 5.486 48.1167 5.606 47.7447 5.846C47.3727 6.086 47.0367 6.434 46.7367 6.89C46.4367 7.346 46.1967 7.898 46.0167 8.546H46.1427ZM64.3783 14.18C63.4543 14.18 62.6563 13.976 61.9843 13.568C61.3123 13.16 60.7963 12.584 60.4363 11.84C60.0883 11.096 59.9143 10.22 59.9143 9.212C59.9143 8.336 60.0163 7.49 60.2203 6.674C60.4243 5.858 60.7243 5.108 61.1203 4.424C61.5163 3.728 61.9963 3.122 62.5603 2.606C63.1363 2.09 63.7843 1.688 64.5043 1.4C65.2243 1.112 66.0163 0.967999 66.8803 0.967999C67.4683 0.967999 68.0083 1.028 68.5003 1.148C69.0043 1.256 69.4723 1.424 69.9043 1.652L69.4723 2.552C69.1003 2.336 68.6983 2.174 68.2664 2.066C67.8344 1.958 67.3723 1.904 66.8803 1.904C66.1483 1.904 65.4763 2.03 64.8643 2.282C64.2523 2.534 63.7063 2.888 63.2263 3.344C62.7583 3.788 62.3563 4.316 62.0203 4.928C61.6843 5.528 61.4263 6.194 61.2463 6.926C61.0783 7.646 60.9943 8.396 60.9943 9.176C60.9943 10.436 61.3063 11.432 61.9303 12.164C62.5663 12.884 63.4303 13.244 64.5223 13.244C65.0743 13.244 65.5963 13.196 66.0883 13.1C66.5923 13.004 67.0663 12.878 67.5103 12.722V13.622C67.0783 13.79 66.6103 13.922 66.1063 14.018C65.6023 14.126 65.0263 14.18 64.3783 14.18ZM74.4011 14.162C73.6691 14.162 73.0451 14.012 72.5291 13.712C72.0131 13.412 71.6231 12.986 71.3591 12.434C71.1071 11.87 70.9811 11.222 70.9811 10.49C70.9811 9.818 71.0531 9.176 71.1971 8.564C71.3411 7.94 71.5511 7.37 71.8271 6.854C72.1151 6.326 72.4571 5.87 72.8531 5.486C73.2491 5.102 73.6991 4.808 74.2031 4.604C74.7191 4.388 75.2771 4.28 75.8771 4.28C76.6091 4.28 77.2271 4.436 77.7311 4.748C78.2351 5.048 78.6191 5.474 78.8831 6.026C79.1471 6.566 79.2791 7.202 79.2791 7.934C79.2791 8.57 79.2071 9.194 79.0631 9.806C78.9311 10.406 78.7271 10.97 78.4511 11.498C78.1871 12.026 77.8571 12.488 77.4611 12.884C77.0771 13.28 76.6271 13.592 76.1111 13.82C75.5951 14.048 75.0251 14.162 74.4011 14.162ZM74.4731 13.28C74.9291 13.28 75.3491 13.196 75.7331 13.028C76.1171 12.86 76.4591 12.62 76.7591 12.308C77.0711 11.984 77.3351 11.6 77.5511 11.156C77.7671 10.7 77.9351 10.196 78.0551 9.644C78.1751 9.08 78.2351 8.48 78.2351 7.844C78.2351 7.352 78.1511 6.902 77.9831 6.494C77.8151 6.086 77.5571 5.762 77.2091 5.522C76.8611 5.27 76.4111 5.144 75.8591 5.144C75.4151 5.144 74.9951 5.234 74.5991 5.414C74.2031 5.582 73.8431 5.828 73.5191 6.152C73.2071 6.464 72.9371 6.842 72.7091 7.286C72.4811 7.73 72.3071 8.222 72.1871 8.762C72.0671 9.302 72.0071 9.89 72.0071 10.526C72.0071 11.378 72.2171 12.05 72.6371 12.542C73.0571 13.034 73.6691 13.28 74.4731 13.28ZM84.5253 14.18C84.0213 14.18 83.5833 14.09 83.2113 13.91C82.8513 13.73 82.5753 13.466 82.3833 13.118C82.1913 12.758 82.0953 12.326 82.0953 11.822C82.0953 11.594 82.1073 11.366 82.1313 11.138C82.1673 10.91 82.2093 10.682 82.2573 10.454L83.5353 4.424H84.5793L83.2653 10.562C83.2173 10.79 83.1813 11 83.1573 11.192C83.1333 11.372 83.1213 11.54 83.1213 11.696C83.1213 12.224 83.2593 12.626 83.5353 12.902C83.8233 13.166 84.2373 13.298 84.7773 13.298C85.3173 13.298 85.8513 13.124 86.3793 12.776C86.9193 12.428 87.3933 11.936 87.8013 11.3C88.2213 10.652 88.5273 9.878 88.7193 8.978L89.6913 4.424H90.6993L88.6653 14H87.8193L88.1793 11.858H88.1073C87.9033 12.182 87.6273 12.53 87.2793 12.902C86.9433 13.262 86.5473 13.568 86.0913 13.82C85.6353 14.06 85.1133 14.18 84.5253 14.18ZM92.7406 14L94.7746 4.424H95.6206L95.2606 6.566H95.3326C95.5486 6.23 95.8066 5.888 96.1066 5.54C96.4186 5.18 96.7786 4.88 97.1866 4.64C97.5946 4.388 98.0506 4.262 98.5546 4.262C98.7466 4.262 98.9326 4.274 99.1126 4.298C99.2926 4.322 99.4606 4.358 99.6166 4.406L99.3826 5.324C99.2506 5.288 99.1066 5.258 98.9506 5.234C98.7946 5.21 98.6266 5.198 98.4466 5.198C98.0146 5.198 97.6006 5.318 97.2046 5.558C96.8086 5.786 96.4426 6.098 96.1066 6.494C95.7826 6.878 95.5006 7.322 95.2606 7.826C95.0206 8.33 94.8466 8.852 94.7386 9.392L93.7666 14H92.7406ZM102.889 14.18C102.277 14.18 101.743 14.114 101.287 13.982C100.843 13.85 100.471 13.7 100.171 13.532V12.542C100.507 12.746 100.909 12.926 101.377 13.082C101.857 13.238 102.355 13.316 102.871 13.316C103.435 13.316 103.897 13.238 104.257 13.082C104.617 12.926 104.887 12.71 105.067 12.434C105.247 12.146 105.337 11.822 105.337 11.462C105.337 11.138 105.259 10.868 105.103 10.652C104.959 10.424 104.749 10.22 104.473 10.04C104.209 9.86 103.885 9.668 103.501 9.464C103.069 9.224 102.691 8.99 102.367 8.762C102.055 8.522 101.803 8.252 101.611 7.952C101.431 7.652 101.341 7.286 101.341 6.854C101.341 6.29 101.479 5.816 101.755 5.432C102.031 5.036 102.409 4.742 102.889 4.55C103.381 4.346 103.933 4.244 104.545 4.244C105.121 4.244 105.637 4.31 106.093 4.442C106.561 4.562 106.963 4.7 107.299 4.856L106.975 5.702C106.675 5.546 106.315 5.414 105.895 5.306C105.487 5.186 105.037 5.126 104.545 5.126C103.909 5.126 103.387 5.27 102.979 5.558C102.571 5.834 102.367 6.248 102.367 6.8C102.367 7.088 102.433 7.334 102.565 7.538C102.709 7.742 102.913 7.934 103.177 8.114C103.453 8.282 103.783 8.474 104.167 8.69C104.563 8.918 104.929 9.146 105.265 9.374C105.601 9.602 105.871 9.872 106.075 10.184C106.279 10.496 106.381 10.892 106.381 11.372C106.381 11.936 106.243 12.428 105.967 12.848C105.703 13.268 105.313 13.598 104.797 13.838C104.281 14.066 103.645 14.18 102.889 14.18ZM112.982 14.18C112.334 14.18 111.752 14.048 111.236 13.784C110.72 13.508 110.312 13.1 110.012 12.56C109.724 12.02 109.58 11.342 109.58 10.526C109.58 9.71 109.694 8.93 109.922 8.186C110.162 7.43 110.498 6.758 110.93 6.17C111.374 5.57 111.89 5.102 112.478 4.766C113.066 4.418 113.72 4.244 114.44 4.244C115.22 4.244 115.826 4.442 116.258 4.838C116.702 5.222 116.924 5.738 116.924 6.386C116.924 6.926 116.792 7.4 116.528 7.808C116.264 8.204 115.88 8.534 115.376 8.798C114.884 9.062 114.278 9.266 113.558 9.41C112.85 9.542 112.04 9.608 111.128 9.608H110.678C110.666 9.728 110.654 9.872 110.642 10.04C110.63 10.196 110.624 10.352 110.624 10.508C110.624 11.396 110.846 12.086 111.29 12.578C111.734 13.058 112.358 13.298 113.162 13.298C113.654 13.298 114.104 13.232 114.512 13.1C114.92 12.968 115.316 12.812 115.7 12.632V13.55C115.34 13.718 114.932 13.868 114.476 14C114.032 14.12 113.534 14.18 112.982 14.18ZM111.326 8.744C112.19 8.744 112.97 8.672 113.666 8.528C114.362 8.372 114.908 8.126 115.304 7.79C115.712 7.442 115.916 6.998 115.916 6.458C115.916 6.074 115.784 5.756 115.52 5.504C115.268 5.252 114.878 5.126 114.35 5.126C113.87 5.126 113.39 5.27 112.91 5.558C112.442 5.834 112.022 6.242 111.65 6.782C111.278 7.322 111.002 7.976 110.822 8.744H111.326Z" fill="black"/>
</svg>
