<svg width="109" height="15" viewBox="0 0 109 15" fill="none" xmlns="http://www.w3.org/2000/svg">
<path d="M0.839468 14L3.55747 1.148H5.15947L2.74747 12.56H7.39147L7.08547 14H0.839468ZM13.512 14.144C12.816 14.144 12.216 14 11.712 13.712C11.208 13.412 10.818 12.986 10.542 12.434C10.266 11.882 10.128 11.234 10.128 10.49C10.128 9.902 10.188 9.308 10.308 8.708C10.44 8.108 10.632 7.544 10.884 7.016C11.136 6.476 11.448 5.996 11.82 5.576C12.204 5.156 12.642 4.826 13.134 4.586C13.638 4.346 14.196 4.226 14.808 4.226C15.516 4.226 16.122 4.376 16.626 4.676C17.13 4.976 17.514 5.402 17.778 5.954C18.054 6.494 18.192 7.142 18.192 7.898C18.192 8.486 18.126 9.08 17.994 9.68C17.874 10.268 17.688 10.832 17.436 11.372C17.184 11.9 16.872 12.374 16.5 12.794C16.128 13.214 15.69 13.544 15.186 13.784C14.694 14.024 14.136 14.144 13.512 14.144ZM13.638 12.83C13.962 12.83 14.268 12.758 14.556 12.614C14.856 12.458 15.126 12.242 15.366 11.966C15.618 11.678 15.834 11.33 16.014 10.922C16.194 10.502 16.332 10.028 16.428 9.5C16.536 8.96 16.59 8.372 16.59 7.736C16.59 7.388 16.53 7.046 16.41 6.71C16.29 6.374 16.098 6.098 15.834 5.882C15.582 5.654 15.234 5.54 14.79 5.54C14.418 5.54 14.07 5.63 13.746 5.81C13.434 5.978 13.152 6.218 12.9 6.53C12.648 6.83 12.432 7.19 12.252 7.61C12.084 8.03 11.952 8.486 11.856 8.978C11.772 9.47 11.73 9.986 11.73 10.526C11.73 11.258 11.892 11.828 12.216 12.236C12.552 12.632 13.026 12.83 13.638 12.83ZM24.0444 14.18C23.3844 14.18 22.7964 14.048 22.2804 13.784C21.7764 13.52 21.3804 13.13 21.0924 12.614C20.8164 12.086 20.6784 11.426 20.6784 10.634C20.6784 9.938 20.7504 9.272 20.8944 8.636C21.0384 8 21.2484 7.412 21.5244 6.872C21.8004 6.332 22.1364 5.858 22.5324 5.45C22.9284 5.042 23.3784 4.73 23.8824 4.514C24.3864 4.286 24.9384 4.172 25.5384 4.172C25.9584 4.172 26.3664 4.214 26.7624 4.298C27.1584 4.382 27.5184 4.496 27.8424 4.64L27.3924 5.954C27.1524 5.846 26.8764 5.744 26.5644 5.648C26.2644 5.552 25.9284 5.504 25.5564 5.504C25.1724 5.504 24.8124 5.594 24.4764 5.774C24.1404 5.942 23.8344 6.188 23.5584 6.512C23.2944 6.824 23.0664 7.196 22.8744 7.628C22.6944 8.048 22.5504 8.51 22.4424 9.014C22.3464 9.518 22.2984 10.046 22.2984 10.598C22.2984 11.078 22.3764 11.486 22.5324 11.822C22.6884 12.158 22.9104 12.416 23.1984 12.596C23.4864 12.776 23.8344 12.866 24.2424 12.866C24.6504 12.866 25.0344 12.806 25.3944 12.686C25.7544 12.566 26.1084 12.428 26.4564 12.272V13.604C26.1324 13.772 25.7664 13.91 25.3584 14.018C24.9624 14.126 24.5244 14.18 24.0444 14.18ZM31.796 14.18C31.316 14.18 30.89 14.06 30.518 13.82C30.158 13.568 29.87 13.202 29.654 12.722C29.45 12.242 29.348 11.648 29.348 10.94C29.348 10.22 29.42 9.53 29.564 8.87C29.708 8.198 29.912 7.58 30.176 7.016C30.452 6.44 30.776 5.942 31.148 5.522C31.52 5.09 31.94 4.76 32.408 4.532C32.876 4.292 33.374 4.172 33.902 4.172C34.31 4.172 34.658 4.25 34.946 4.406C35.246 4.562 35.498 4.766 35.702 5.018C35.906 5.27 36.068 5.546 36.188 5.846H36.278L36.836 4.352H38.042L35.99 14H34.73L34.964 12.218H34.91C34.646 12.566 34.352 12.89 34.028 13.19C33.716 13.49 33.374 13.73 33.002 13.91C32.63 14.09 32.228 14.18 31.796 14.18ZM32.354 12.866C32.762 12.866 33.164 12.704 33.56 12.38C33.968 12.056 34.334 11.618 34.658 11.066C34.994 10.514 35.246 9.896 35.414 9.212C35.51 8.852 35.57 8.522 35.594 8.222C35.63 7.91 35.648 7.64 35.648 7.412C35.648 6.848 35.504 6.392 35.216 6.044C34.94 5.684 34.556 5.504 34.064 5.504C33.716 5.504 33.386 5.6 33.074 5.792C32.762 5.984 32.474 6.254 32.21 6.602C31.958 6.95 31.736 7.358 31.544 7.826C31.364 8.282 31.22 8.78 31.112 9.32C31.016 9.848 30.968 10.394 30.968 10.958C30.968 11.594 31.088 12.074 31.328 12.398C31.568 12.71 31.91 12.866 32.354 12.866ZM39.5902 14L42.5062 0.319999H44.0902L41.1742 14H39.5902ZM55.7203 14.18C54.7963 14.18 53.9983 13.976 53.3263 13.568C52.6543 13.16 52.1383 12.584 51.7783 11.84C51.4303 11.096 51.2563 10.22 51.2563 9.212C51.2563 8.336 51.3583 7.49 51.5623 6.674C51.7663 5.858 52.0663 5.108 52.4623 4.424C52.8583 3.728 53.3383 3.122 53.9023 2.606C54.4783 2.09 55.1263 1.688 55.8463 1.4C56.5663 1.112 57.3583 0.967999 58.2223 0.967999C58.8103 0.967999 59.3503 1.028 59.8423 1.148C60.3463 1.256 60.8143 1.424 61.2463 1.652L60.8143 2.552C60.4423 2.336 60.0403 2.174 59.6083 2.066C59.1763 1.958 58.7143 1.904 58.2223 1.904C57.4903 1.904 56.8183 2.03 56.2063 2.282C55.5943 2.534 55.0483 2.888 54.5683 3.344C54.1003 3.788 53.6983 4.316 53.3623 4.928C53.0263 5.528 52.7683 6.194 52.5883 6.926C52.4203 7.646 52.3363 8.396 52.3363 9.176C52.3363 10.436 52.6483 11.432 53.2723 12.164C53.9083 12.884 54.7723 13.244 55.8643 13.244C56.4163 13.244 56.9383 13.196 57.4303 13.1C57.9343 13.004 58.4083 12.878 58.8523 12.722V13.622C58.4203 13.79 57.9523 13.922 57.4483 14.018C56.9443 14.126 56.3683 14.18 55.7203 14.18ZM65.7431 14.162C65.0111 14.162 64.3871 14.012 63.8711 13.712C63.3551 13.412 62.9651 12.986 62.7011 12.434C62.4491 11.87 62.3231 11.222 62.3231 10.49C62.3231 9.818 62.3951 9.176 62.5391 8.564C62.6831 7.94 62.8931 7.37 63.1691 6.854C63.4571 6.326 63.7991 5.87 64.1951 5.486C64.5911 5.102 65.0411 4.808 65.5451 4.604C66.0611 4.388 66.6191 4.28 67.2191 4.28C67.9511 4.28 68.5691 4.436 69.0731 4.748C69.5771 5.048 69.9611 5.474 70.2251 6.026C70.4891 6.566 70.6211 7.202 70.6211 7.934C70.6211 8.57 70.5491 9.194 70.4051 9.806C70.2731 10.406 70.0691 10.97 69.7931 11.498C69.5291 12.026 69.1991 12.488 68.8031 12.884C68.4191 13.28 67.9691 13.592 67.4531 13.82C66.9371 14.048 66.3671 14.162 65.7431 14.162ZM65.8151 13.28C66.2711 13.28 66.6911 13.196 67.0751 13.028C67.4591 12.86 67.8011 12.62 68.1011 12.308C68.4131 11.984 68.6771 11.6 68.8931 11.156C69.1091 10.7 69.2771 10.196 69.3971 9.644C69.5171 9.08 69.5771 8.48 69.5771 7.844C69.5771 7.352 69.4931 6.902 69.3251 6.494C69.1571 6.086 68.8991 5.762 68.5511 5.522C68.2031 5.27 67.7531 5.144 67.2011 5.144C66.7571 5.144 66.3371 5.234 65.9411 5.414C65.5451 5.582 65.1851 5.828 64.8611 6.152C64.5491 6.464 64.2791 6.842 64.0511 7.286C63.8231 7.73 63.6491 8.222 63.5291 8.762C63.4091 9.302 63.3491 9.89 63.3491 10.526C63.3491 11.378 63.5591 12.05 63.9791 12.542C64.3991 13.034 65.0111 13.28 65.8151 13.28ZM75.8673 14.18C75.3633 14.18 74.9253 14.09 74.5533 13.91C74.1933 13.73 73.9173 13.466 73.7253 13.118C73.5333 12.758 73.4373 12.326 73.4373 11.822C73.4373 11.594 73.4493 11.366 73.4733 11.138C73.5093 10.91 73.5513 10.682 73.5993 10.454L74.8773 4.424H75.9213L74.6073 10.562C74.5593 10.79 74.5233 11 74.4993 11.192C74.4753 11.372 74.4633 11.54 74.4633 11.696C74.4633 12.224 74.6013 12.626 74.8773 12.902C75.1653 13.166 75.5793 13.298 76.1193 13.298C76.6593 13.298 77.1933 13.124 77.7213 12.776C78.2613 12.428 78.7353 11.936 79.1433 11.3C79.5633 10.652 79.8693 9.878 80.0613 8.978L81.0333 4.424H82.0413L80.0073 14H79.1613L79.5213 11.858H79.4493C79.2453 12.182 78.9693 12.53 78.6213 12.902C78.2853 13.262 77.8893 13.568 77.4333 13.82C76.9773 14.06 76.4553 14.18 75.8673 14.18ZM84.0826 14L86.1166 4.424H86.9626L86.6026 6.566H86.6746C86.8906 6.23 87.1486 5.888 87.4486 5.54C87.7606 5.18 88.1206 4.88 88.5286 4.64C88.9366 4.388 89.3926 4.262 89.8966 4.262C90.0886 4.262 90.2746 4.274 90.4546 4.298C90.6346 4.322 90.8026 4.358 90.9586 4.406L90.7246 5.324C90.5926 5.288 90.4486 5.258 90.2926 5.234C90.1366 5.21 89.9686 5.198 89.7886 5.198C89.3566 5.198 88.9426 5.318 88.5466 5.558C88.1506 5.786 87.7846 6.098 87.4486 6.494C87.1246 6.878 86.8426 7.322 86.6026 7.826C86.3626 8.33 86.1886 8.852 86.0806 9.392L85.1086 14H84.0826ZM94.2308 14.18C93.6188 14.18 93.0848 14.114 92.6288 13.982C92.1848 13.85 91.8128 13.7 91.5128 13.532V12.542C91.8488 12.746 92.2508 12.926 92.7188 13.082C93.1988 13.238 93.6968 13.316 94.2128 13.316C94.7768 13.316 95.2388 13.238 95.5988 13.082C95.9588 12.926 96.2288 12.71 96.4088 12.434C96.5888 12.146 96.6788 11.822 96.6788 11.462C96.6788 11.138 96.6008 10.868 96.4448 10.652C96.3008 10.424 96.0908 10.22 95.8148 10.04C95.5508 9.86 95.2268 9.668 94.8428 9.464C94.4108 9.224 94.0328 8.99 93.7088 8.762C93.3968 8.522 93.1448 8.252 92.9528 7.952C92.7728 7.652 92.6828 7.286 92.6828 6.854C92.6828 6.29 92.8208 5.816 93.0968 5.432C93.3728 5.036 93.7508 4.742 94.2308 4.55C94.7228 4.346 95.2748 4.244 95.8868 4.244C96.4628 4.244 96.9788 4.31 97.4348 4.442C97.9028 4.562 98.3048 4.7 98.6408 4.856L98.3168 5.702C98.0168 5.546 97.6568 5.414 97.2368 5.306C96.8288 5.186 96.3788 5.126 95.8868 5.126C95.2508 5.126 94.7288 5.27 94.3208 5.558C93.9128 5.834 93.7088 6.248 93.7088 6.8C93.7088 7.088 93.7748 7.334 93.9068 7.538C94.0508 7.742 94.2548 7.934 94.5188 8.114C94.7948 8.282 95.1248 8.474 95.5088 8.69C95.9048 8.918 96.2708 9.146 96.6068 9.374C96.9428 9.602 97.2128 9.872 97.4168 10.184C97.6208 10.496 97.7228 10.892 97.7228 11.372C97.7228 11.936 97.5848 12.428 97.3088 12.848C97.0448 13.268 96.6548 13.598 96.1388 13.838C95.6228 14.066 94.9868 14.18 94.2308 14.18ZM104.324 14.18C103.676 14.18 103.094 14.048 102.578 13.784C102.062 13.508 101.654 13.1 101.354 12.56C101.066 12.02 100.922 11.342 100.922 10.526C100.922 9.71 101.036 8.93 101.264 8.186C101.504 7.43 101.84 6.758 102.272 6.17C102.716 5.57 103.232 5.102 103.82 4.766C104.408 4.418 105.062 4.244 105.782 4.244C106.562 4.244 107.168 4.442 107.6 4.838C108.044 5.222 108.266 5.738 108.266 6.386C108.266 6.926 108.134 7.4 107.87 7.808C107.606 8.204 107.222 8.534 106.718 8.798C106.226 9.062 105.62 9.266 104.9 9.41C104.192 9.542 103.382 9.608 102.47 9.608H102.02C102.008 9.728 101.996 9.872 101.984 10.04C101.972 10.196 101.966 10.352 101.966 10.508C101.966 11.396 102.188 12.086 102.632 12.578C103.076 13.058 103.7 13.298 104.504 13.298C104.996 13.298 105.446 13.232 105.854 13.1C106.262 12.968 106.658 12.812 107.042 12.632V13.55C106.682 13.718 106.274 13.868 105.818 14C105.374 14.12 104.876 14.18 104.324 14.18ZM102.668 8.744C103.532 8.744 104.312 8.672 105.008 8.528C105.704 8.372 106.25 8.126 106.646 7.79C107.054 7.442 107.258 6.998 107.258 6.458C107.258 6.074 107.126 5.756 106.862 5.504C106.61 5.252 106.22 5.126 105.692 5.126C105.212 5.126 104.732 5.27 104.252 5.558C103.784 5.834 103.364 6.242 102.992 6.782C102.62 7.322 102.344 7.976 102.164 8.744H102.668Z" fill="black"/>
</svg>
