<svg width="61" height="312" viewBox="0 0 61 312" fill="none" xmlns="http://www.w3.org/2000/svg">
<path d="M51.1919 50.6176L50.856 50.965L51.1919 51.3125C56.744 57.0568 59.5 63.8772 59.5 71.8738C59.5 79.8787 56.3245 87.1394 51.1658 92.4621L50.8285 92.81L51.1658 93.158C56.3245 98.4807 59.5 105.741 59.5 113.746C59.5 121.743 56.744 128.563 51.1919 134.308L50.856 134.655L51.1919 135.003C56.744 140.747 59.5 147.567 59.5 155.564C59.5 163.569 56.3245 170.829 51.1658 176.152L50.8285 176.5L51.1658 176.848C56.3245 182.171 59.5 189.431 59.5 197.436C59.5 205.433 56.744 212.253 51.1919 217.997L50.856 218.345L51.1919 218.692C56.744 224.437 59.5 231.257 59.5 239.254C59.5 247.022 56.5097 254.089 51.6187 259.364L51.2986 259.709L51.6241 260.05C57.1768 265.855 59.934 272.749 59.934 280.833C59.934 297.337 46.7206 310.706 30.434 310.706C14.1474 310.706 0.933987 297.337 0.933987 280.833C0.933987 272.707 2.84824 265.829 8.37594 260.05L8.70139 259.709L8.38127 259.364C3.49032 254.089 0.5 247.022 0.5 239.254C0.5 231.257 3.256 224.437 8.80812 218.692L9.14398 218.345L8.80812 217.997C3.256 212.253 0.5 205.433 0.5 197.436C0.5 189.431 3.67557 182.171 8.83427 176.848L9.17153 176.5L8.83427 176.152C3.67557 170.829 0.5 163.569 0.5 155.564C0.5 147.567 3.256 140.747 8.80812 135.003L9.14398 134.655L8.80812 134.308C3.256 128.563 0.5 121.743 0.5 113.746C0.5 105.741 3.67557 98.4807 8.83427 93.158L9.17154 92.81L8.83427 92.4621C3.67557 87.1394 0.5 79.8787 0.5 71.8738C0.5 63.8772 3.256 57.0568 8.80812 51.3125L9.14398 50.965L8.80812 50.6176C3.256 44.8733 0.5 38.0529 0.5 30.0563C0.5 13.7319 13.7085 0.5 30 0.5C46.2915 0.5 59.5 13.7319 59.5 30.0563C59.5 38.0529 56.744 44.8733 51.1919 50.6176Z" fill="white" stroke="#1A1A1A"/>
<path d="M20.0001 19.23C20.0001 18.75 20.1401 18.33 20.4201 17.97C20.7201 17.61 21.0901 17.43 21.5301 17.43H39.4701C39.9101 17.43 40.2701 17.58 40.5501 17.88C40.8501 18.18 41.0001 18.54 41.0001 18.96V27.42C41.0001 28.5 40.7301 29.49 40.1901 30.39C39.6701 31.29 38.9401 32.01 38.0001 32.55C37.0801 33.11 36.0201 33.39 34.8201 33.39C34.0201 33.39 33.2501 33.23 32.5101 32.91C31.7901 32.59 31.1501 32.16 30.5901 31.62C30.0301 31.08 29.6101 30.47 29.3301 29.79L29.9001 29.46C29.6801 30.08 29.3601 30.62 28.9401 31.08C28.5401 31.54 28.0601 31.9 27.5001 32.16C26.9601 32.44 26.3401 32.59 25.6401 32.61C25.0201 32.67 24.5001 32.72 24.0801 32.76C23.6801 32.82 23.3501 32.9 23.0901 33C22.8301 33.1 22.6301 33.28 22.4901 33.54C22.2901 33.9 21.9901 34.12 21.5901 34.2C21.1901 34.3 20.8301 34.22 20.5101 33.96C20.2701 33.78 20.1101 33.55 20.0301 33.27C19.9701 33.01 19.9601 32.74 20.0001 32.46C20.0601 32.18 20.1401 31.94 20.2401 31.74C20.4401 31.42 20.7201 31.09 21.0801 30.75C21.4601 30.43 21.9801 30.17 22.6401 29.97C23.3001 29.77 24.1701 29.67 25.2501 29.67C25.7501 29.67 26.1801 29.59 26.5401 29.43C26.9001 29.27 27.1901 29.05 27.4101 28.77C27.6501 28.49 27.8201 28.16 27.9201 27.78C28.0401 27.4 28.1001 26.98 28.1001 26.52V20.16L28.7001 20.58H21.5301C21.0901 20.58 20.7201 20.46 20.4201 20.22C20.1401 19.98 20.0001 19.65 20.0001 19.23ZM30.7101 20.19V27.36C30.7301 27.82 30.9101 28.26 31.2501 28.68C31.6101 29.12 32.0901 29.47 32.6901 29.73C33.2901 30.01 33.9701 30.15 34.7301 30.15C35.6901 30.15 36.4901 29.86 37.1301 29.28C37.7901 28.72 38.1201 28.05 38.1201 27.27V20.25L38.9001 20.58H30.0801L30.7101 20.19ZM41.0001 40.8799V51.2599C41.0001 51.6799 40.8601 52.0299 40.5801 52.3099C40.3001 52.6099 39.9501 52.7599 39.5301 52.7599C39.1101 52.7599 38.7701 52.6099 38.5101 52.3099C38.2501 52.0299 38.1201 51.6799 38.1201 51.2599V42.1999L38.6301 42.4999H31.9101L32.2101 42.2299V49.9099C32.2101 50.3299 32.0701 50.6799 31.7901 50.9599C31.5101 51.2599 31.1501 51.4099 30.7101 51.4099C30.2901 51.4099 29.9501 51.2599 29.6901 50.9599C29.4301 50.6799 29.3001 50.3299 29.3001 49.9099V42.2899L29.5701 42.4999H22.6401L22.8801 42.2899L22.8801 51.2599C22.8801 51.6799 22.7301 52.0299 22.4301 52.3099C22.1501 52.6099 21.8201 52.7599 21.4401 52.7599C21.0201 52.7599 20.6701 52.6099 20.3901 52.3099C20.1301 52.0299 20.0001 51.6799 20.0001 51.2599L20.0001 40.8799C20.0001 40.4599 20.1401 40.0999 20.4201 39.7999C20.7201 39.4999 21.0901 39.3499 21.5301 39.3499H39.4701C39.9101 39.3499 40.2701 39.4999 40.5501 39.7999C40.8501 40.0999 41.0001 40.4599 41.0001 40.8799ZM20.0001 59.5786C20.0001 59.0986 20.1401 58.7086 20.4201 58.4086C20.7201 58.1286 21.0901 57.9886 21.5301 57.9886H39.4701C39.9101 57.9886 40.2701 58.1386 40.5501 58.4386C40.8501 58.7386 41.0001 59.0986 41.0001 59.5186V69.6586C41.0001 70.0986 40.8601 70.4586 40.5801 70.7386C40.3001 71.0386 39.9501 71.1886 39.5301 71.1886C39.1501 71.1886 38.8201 71.0386 38.5401 70.7386C38.2601 70.4586 38.1201 70.0986 38.1201 69.6586V60.8986L38.4201 61.1086H31.7301L32.0901 60.9286V68.3086C32.0901 68.7486 31.9501 69.1086 31.6701 69.3886C31.3901 69.6886 31.0401 69.8386 30.6201 69.8386C30.2401 69.8386 29.9101 69.6886 29.6301 69.3886C29.3501 69.1086 29.2101 68.7486 29.2101 68.3086V60.8686L29.4501 61.1086H21.5301C21.0901 61.1086 20.7201 60.9586 20.4201 60.6586C20.1401 60.3586 20.0001 59.9986 20.0001 59.5786ZM41.0001 77.9229V88.3029C41.0001 88.7229 40.8601 89.0729 40.5801 89.3529C40.3001 89.6529 39.9501 89.8029 39.5301 89.8029C39.1101 89.8029 38.7701 89.6529 38.5101 89.3529C38.2501 89.0729 38.1201 88.7229 38.1201 88.3029V79.2429L38.6301 79.5429H31.9101L32.2101 79.2729V86.9529C32.2101 87.3729 32.0701 87.7229 31.7901 88.0029C31.5101 88.3029 31.1501 88.4529 30.7101 88.4529C30.2901 88.4529 29.9501 88.3029 29.6901 88.0029C29.4301 87.7229 29.3001 87.3729 29.3001 86.9529V79.3329L29.5701 79.5429H22.6401L22.8801 79.3329V88.3029C22.8801 88.7229 22.7301 89.0729 22.4301 89.3529C22.1501 89.6529 21.8201 89.8029 21.4401 89.8029C21.0201 89.8029 20.6701 89.6529 20.3901 89.3529C20.1301 89.0729 20.0001 88.7229 20.0001 88.3029V77.9229C20.0001 77.5029 20.1401 77.1429 20.4201 76.8429C20.7201 76.5429 21.0901 76.3929 21.5301 76.3929H39.4701C39.9101 76.3929 40.2701 76.5429 40.5501 76.8429C40.8501 77.1429 41.0001 77.5029 41.0001 77.9229ZM20.0001 96.8316C20.0001 96.3516 20.1401 95.9316 20.4201 95.5716C20.7201 95.2116 21.0901 95.0316 21.5301 95.0316H39.4701C39.9101 95.0316 40.2701 95.1816 40.5501 95.4816C40.8501 95.7816 41.0001 96.1416 41.0001 96.5616V105.022C41.0001 106.102 40.7301 107.092 40.1901 107.992C39.6701 108.892 38.9401 109.612 38.0001 110.152C37.0801 110.712 36.0201 110.992 34.8201 110.992C34.0201 110.992 33.2501 110.832 32.5101 110.512C31.7901 110.192 31.1501 109.762 30.5901 109.222C30.0301 108.682 29.6101 108.072 29.3301 107.392L29.9001 107.062C29.6801 107.682 29.3601 108.222 28.9401 108.682C28.5401 109.142 28.0601 109.502 27.5001 109.762C26.9601 110.042 26.3401 110.192 25.6401 110.212C25.0201 110.272 24.5001 110.322 24.0801 110.362C23.6801 110.422 23.3501 110.502 23.0901 110.602C22.8301 110.702 22.6301 110.882 22.4901 111.142C22.2901 111.502 21.9901 111.722 21.5901 111.802C21.1901 111.902 20.8301 111.822 20.5101 111.562C20.2701 111.382 20.1101 111.152 20.0301 110.872C19.9701 110.612 19.9601 110.342 20.0001 110.062C20.0601 109.782 20.1401 109.542 20.2401 109.342C20.4401 109.022 20.7201 108.692 21.0801 108.352C21.4601 108.032 21.9801 107.772 22.6401 107.572C23.3001 107.372 24.1701 107.272 25.2501 107.272C25.7501 107.272 26.1801 107.192 26.5401 107.032C26.9001 106.872 27.1901 106.652 27.4101 106.372C27.6501 106.092 27.8201 105.762 27.9201 105.382C28.0401 105.002 28.1001 104.582 28.1001 104.122V97.7616L28.7001 98.1816H21.5301C21.0901 98.1816 20.7201 98.0616 20.4201 97.8216C20.1401 97.5816 20.0001 97.2516 20.0001 96.8316ZM30.7101 97.7916V104.962C30.7301 105.422 30.9101 105.862 31.2501 106.282C31.6101 106.722 32.0901 107.072 32.6901 107.332C33.2901 107.612 33.9701 107.752 34.7301 107.752C35.6901 107.752 36.4901 107.462 37.1301 106.882C37.7901 106.322 38.1201 105.652 38.1201 104.872V97.8516L38.9001 98.1816H30.0801L30.7101 97.7916ZM41.0001 118.481V128.861C41.0001 129.281 40.8601 129.631 40.5801 129.911C40.3001 130.211 39.9501 130.361 39.5301 130.361C39.1101 130.361 38.7701 130.211 38.5101 129.911C38.2501 129.631 38.1201 129.281 38.1201 128.861V119.801L38.6301 120.101H31.9101L32.2101 119.831V127.511C32.2101 127.931 32.0701 128.281 31.7901 128.561C31.5101 128.861 31.1501 129.011 30.7101 129.011C30.2901 129.011 29.9501 128.861 29.6901 128.561C29.4301 128.281 29.3001 127.931 29.3001 127.511V119.891L29.5701 120.101H22.6401L22.8801 119.891V128.861C22.8801 129.281 22.7301 129.631 22.4301 129.911C22.1501 130.211 21.8201 130.361 21.4401 130.361C21.0201 130.361 20.6701 130.211 20.3901 129.911C20.1301 129.631 20.0001 129.281 20.0001 128.861V118.481C20.0001 118.061 20.1401 117.701 20.4201 117.401C20.7201 117.101 21.0901 116.951 21.5301 116.951H39.4701C39.9101 116.951 40.2701 117.101 40.5501 117.401C40.8501 117.701 41.0001 118.061 41.0001 118.481ZM41.0001 151.34C41.0001 151.74 40.8601 152.06 40.5801 152.3C40.3201 152.56 39.9901 152.69 39.5901 152.69H21.5301C21.0901 152.69 20.7201 152.54 20.4201 152.24C20.1401 151.96 20.0001 151.6 20.0001 151.16C20.0001 150.96 20.0401 150.74 20.1201 150.5C20.2001 150.28 20.3101 150.11 20.4501 149.99L36.4401 137.66L36.8301 138.35H21.3801C21.0001 138.35 20.6701 138.22 20.3901 137.96C20.1301 137.7 20.0001 137.37 20.0001 136.97C20.0001 136.55 20.1301 136.21 20.3901 135.95C20.6701 135.71 21.0001 135.59 21.3801 135.59H39.4701C39.9301 135.59 40.3001 135.74 40.5801 136.04C40.8601 136.34 41.0001 136.7 41.0001 137.12C41.0001 137.34 40.9501 137.57 40.8501 137.81C40.7701 138.07 40.6401 138.26 40.4601 138.38L24.8001 150.41L24.3801 149.96H39.5901C39.9901 149.96 40.3201 150.09 40.5801 150.35C40.8601 150.61 41.0001 150.94 41.0001 151.34ZM39.8001 174.002C39.5801 174.442 39.2401 174.692 38.7801 174.752C38.3201 174.832 37.9001 174.722 37.5201 174.422C37.2201 174.202 37.0501 173.912 37.0101 173.552C36.9701 173.212 37.0401 172.872 37.2201 172.532C37.5201 171.952 37.7601 171.342 37.9401 170.702C38.1201 170.062 38.2101 169.382 38.2101 168.662C38.2101 167.522 38.0201 166.492 37.6401 165.572C37.2801 164.672 36.7501 163.892 36.0501 163.232C35.3701 162.572 34.5601 162.062 33.6201 161.702C32.6801 161.362 31.6401 161.192 30.5001 161.192C29.2401 161.192 28.1201 161.382 27.1401 161.762C26.1801 162.142 25.3601 162.662 24.6801 163.322C24.0201 164.002 23.5201 164.792 23.1801 165.692C22.8601 166.612 22.7001 167.602 22.7001 168.662C22.7001 169.342 22.7801 170.002 22.9401 170.642C23.1001 171.302 23.3401 171.922 23.6601 172.502C23.8401 172.862 23.9001 173.212 23.8401 173.552C23.8001 173.912 23.6301 174.202 23.3301 174.422C22.9101 174.762 22.4801 174.882 22.0401 174.782C21.6201 174.702 21.3001 174.452 21.0801 174.032C20.8001 173.532 20.5601 172.982 20.3601 172.382C20.1601 171.782 20.0001 171.172 19.8801 170.552C19.7601 169.932 19.7001 169.302 19.7001 168.662C19.7001 167.222 19.9401 165.862 20.4201 164.582C20.9001 163.302 21.6001 162.162 22.5201 161.162C23.4401 160.162 24.5701 159.372 25.9101 158.792C27.2501 158.232 28.7801 157.952 30.5001 157.952C32.0401 157.952 33.4601 158.212 34.7601 158.732C36.0801 159.272 37.2101 160.022 38.1501 160.982C39.1101 161.962 39.8501 163.102 40.3701 164.402C40.9101 165.702 41.1801 167.122 41.1801 168.662C41.1801 169.622 41.0601 170.552 40.8201 171.452C40.5801 172.372 40.2401 173.222 39.8001 174.002ZM41.0001 181.194L41.0001 191.574C41.0001 191.994 40.8601 192.344 40.5801 192.624C40.3001 192.924 39.9501 193.074 39.5301 193.074C39.1101 193.074 38.7701 192.924 38.5101 192.624C38.2501 192.344 38.1201 191.994 38.1201 191.574L38.1201 182.514L38.6301 182.814H31.9101L32.2101 182.544V190.224C32.2101 190.644 32.0701 190.994 31.7901 191.274C31.5101 191.574 31.1501 191.724 30.7101 191.724C30.2901 191.724 29.9501 191.574 29.6901 191.274C29.4301 190.994 29.3001 190.644 29.3001 190.224V182.604L29.5701 182.814H22.6401L22.8801 182.604V191.574C22.8801 191.994 22.7301 192.344 22.4301 192.624C22.1501 192.924 21.8201 193.074 21.4401 193.074C21.0201 193.074 20.6701 192.924 20.3901 192.624C20.1301 192.344 20.0001 191.994 20.0001 191.574V181.194C20.0001 180.774 20.1401 180.414 20.4201 180.114C20.7201 179.814 21.0901 179.664 21.5301 179.664H39.4701C39.9101 179.664 40.2701 179.814 40.5501 180.114C40.8501 180.414 41.0001 180.774 41.0001 181.194ZM41.0001 217.363C41.0001 219.203 40.5501 220.593 39.6501 221.533C38.7501 222.493 37.4401 222.973 35.7201 222.973C34.8201 222.973 34.0001 222.753 33.2601 222.313C32.5401 221.893 31.9701 221.263 31.5501 220.423C31.1301 219.603 30.9101 218.573 30.8901 217.333L32.0001 217.393C32.0001 218.053 31.9101 218.763 31.7301 219.523C31.5501 220.303 31.2401 221.033 30.8001 221.713C30.3601 222.393 29.7601 222.953 29.0001 223.393C28.2601 223.833 27.3301 224.053 26.2101 224.053C24.9901 224.053 23.9701 223.853 23.1501 223.453C22.3501 223.053 21.7201 222.523 21.2601 221.863C20.8001 221.203 20.4701 220.473 20.2701 219.673C20.0901 218.893 20.0001 218.123 20.0001 217.363V209.683C20.0001 209.263 20.1401 208.903 20.4201 208.603C20.7201 208.303 21.0901 208.153 21.5301 208.153H39.4701C39.9101 208.153 40.2701 208.303 40.5501 208.603C40.8501 208.903 41.0001 209.263 41.0001 209.683V217.363ZM38.0601 216.943V211.033L38.5401 211.393H32.0901L32.4201 211.063V217.003C32.4401 217.723 32.6801 218.353 33.1401 218.893C33.6201 219.453 34.3201 219.733 35.2401 219.733C36.1801 219.733 36.8801 219.483 37.3401 218.983C37.8201 218.483 38.0601 217.803 38.0601 216.943ZM29.4801 217.153V211.183L29.6901 211.393H22.6101L22.8801 211.153V217.333C22.8801 218.373 23.1501 219.213 23.6901 219.853C24.2501 220.493 25.0901 220.813 26.2101 220.813C27.1501 220.813 27.8501 220.623 28.3101 220.243C28.7701 219.863 29.0801 219.393 29.2401 218.833C29.4001 218.273 29.4801 217.713 29.4801 217.153ZM30.5001 248.422C28.9801 248.422 27.5601 248.172 26.2401 247.672C24.9401 247.172 23.8001 246.462 22.8201 245.542C21.8401 244.642 21.0701 243.572 20.5101 242.332C19.9701 241.092 19.7001 239.732 19.7001 238.252C19.7001 236.792 19.9701 235.442 20.5101 234.202C21.0701 232.962 21.8401 231.882 22.8201 230.962C23.8001 230.062 24.9401 229.362 26.2401 228.862C27.5601 228.382 28.9801 228.142 30.5001 228.142C32.0201 228.142 33.4301 228.382 34.7301 228.862C36.0501 229.362 37.2001 230.062 38.1801 230.962C39.1601 231.882 39.9201 232.962 40.4601 234.202C41.0201 235.442 41.3001 236.792 41.3001 238.252C41.3001 239.732 41.0201 241.092 40.4601 242.332C39.9201 243.572 39.1601 244.642 38.1801 245.542C37.2001 246.462 36.0501 247.172 34.7301 247.672C33.4301 248.172 32.0201 248.422 30.5001 248.422ZM30.5001 245.182C31.9801 245.182 33.3101 244.882 34.4901 244.282C35.6701 243.702 36.6001 242.892 37.2801 241.852C37.9601 240.812 38.3001 239.612 38.3001 238.252C38.3001 236.912 37.9601 235.722 37.2801 234.682C36.6001 233.642 35.6701 232.832 34.4901 232.252C33.3301 231.672 32.0001 231.382 30.5001 231.382C29.0201 231.382 27.6901 231.672 26.5101 232.252C25.3301 232.832 24.4001 233.642 23.7201 234.682C23.0401 235.722 22.7001 236.912 22.7001 238.252C22.7001 239.612 23.0401 240.812 23.7201 241.852C24.4001 242.892 25.3301 243.702 26.5101 244.282C27.6901 244.882 29.0201 245.182 30.5001 245.182ZM30.5001 272.744C28.9801 272.744 27.5601 272.494 26.2401 271.994C24.9401 271.494 23.8001 270.784 22.8201 269.864C21.8401 268.964 21.0701 267.894 20.5101 266.654C19.9701 265.414 19.7001 264.054 19.7001 262.574C19.7001 261.114 19.9701 259.764 20.5101 258.524C21.0701 257.284 21.8401 256.204 22.8201 255.284C23.8001 254.384 24.9401 253.684 26.2401 253.184C27.5601 252.704 28.9801 252.464 30.5001 252.464C32.0201 252.464 33.4301 252.704 34.7301 253.184C36.0501 253.684 37.2001 254.384 38.1801 255.284C39.1601 256.204 39.9201 257.284 40.4601 258.524C41.0201 259.764 41.3001 261.114 41.3001 262.574C41.3001 264.054 41.0201 265.414 40.4601 266.654C39.9201 267.894 39.1601 268.964 38.1801 269.864C37.2001 270.784 36.0501 271.494 34.7301 271.994C33.4301 272.494 32.0201 272.744 30.5001 272.744ZM30.5001 269.504C31.9801 269.504 33.3101 269.204 34.4901 268.604C35.6701 268.024 36.6001 267.214 37.2801 266.174C37.9601 265.134 38.3001 263.934 38.3001 262.574C38.3001 261.234 37.9601 260.044 37.2801 259.004C36.6001 257.964 35.6701 257.154 34.4901 256.574C33.3301 255.994 32.0001 255.704 30.5001 255.704C29.0201 255.704 27.6901 255.994 26.5101 256.574C25.3301 257.154 24.4001 257.964 23.7201 259.004C23.0401 260.044 22.7001 261.234 22.7001 262.574C22.7001 263.934 23.0401 265.134 23.7201 266.174C24.4001 267.214 25.3301 268.024 26.5101 268.604C27.6901 269.204 29.0201 269.504 30.5001 269.504ZM19.9701 292.566C19.9701 292.106 20.1601 291.736 20.5401 291.456L30.1701 283.986L32.5101 286.296L22.5801 293.916C22.2601 294.156 21.9101 294.276 21.5301 294.276C21.0501 294.276 20.6701 294.096 20.3901 293.736C20.1101 293.376 19.9701 292.986 19.9701 292.566ZM41.0901 292.716C41.0901 293.116 40.9301 293.446 40.6101 293.706C40.2901 293.966 39.9601 294.096 39.6201 294.096C39.2601 294.096 38.9301 293.946 38.6301 293.646L26.3601 280.716L29.9001 280.536L40.5201 291.516C40.9001 291.876 41.0901 292.276 41.0901 292.716ZM20.0001 279.486C20.0001 279.026 20.1401 278.646 20.4201 278.346C20.7201 278.066 21.0901 277.926 21.5301 277.926H39.4701C39.9101 277.926 40.2701 278.076 40.5501 278.376C40.8501 278.676 41.0001 279.066 41.0001 279.546C41.0001 280.006 40.8501 280.376 40.5501 280.656C40.2701 280.936 39.9101 281.076 39.4701 281.076H21.5301C21.0901 281.056 20.7201 280.906 20.4201 280.626C20.1401 280.346 20.0001 279.966 20.0001 279.486Z" fill="#FC8288"/>
</svg>
