<svg width="222" height="43" viewBox="0 0 222 43" fill="none" xmlns="http://www.w3.org/2000/svg">
<path d="M35.9152 6.67963L36.2627 7.0155L36.6101 6.67963C40.6704 2.75521 45.4873 0.808765 51.1396 0.808765C56.7964 0.808765 61.9269 3.05264 65.6882 6.6981L66.0362 7.03537L66.3842 6.6981C70.1455 3.05264 75.276 0.808765 80.9328 0.808765C86.5851 0.808765 91.402 2.75521 95.4623 6.67963L95.8098 7.0155L96.1572 6.67963C100.217 2.75521 105.034 0.808765 110.687 0.808765C116.343 0.808765 121.474 3.05264 125.235 6.6981L125.583 7.03537L125.931 6.6981C129.693 3.05264 134.823 0.808765 140.48 0.808765C146.132 0.808765 150.949 2.75521 155.009 6.67963L155.357 7.0155L155.704 6.67963C159.765 2.75521 164.581 0.808765 170.234 0.808765C175.723 0.808765 180.717 2.92178 184.445 6.37801L184.79 6.69813L185.13 6.37268C189.234 2.44765 194.103 0.5 199.818 0.5C211.483 0.5 220.929 9.8387 220.929 21.3456C220.929 32.8525 211.483 42.1912 199.818 42.1912C194.062 42.1912 189.208 40.8361 185.13 36.9361L184.79 36.6107L184.445 36.9308C180.717 40.387 175.723 42.5 170.234 42.5C164.581 42.5 159.765 40.5536 155.704 36.6291L155.357 36.2933L155.009 36.6291C150.949 40.5536 146.132 42.5 140.48 42.5C134.823 42.5 129.693 40.2561 125.931 36.6107L125.583 36.2734L125.235 36.6107C121.474 40.2561 116.343 42.5 110.687 42.5C105.034 42.5 100.217 40.5536 96.1572 36.6291L95.8098 36.2933L95.4623 36.6291C91.402 40.5536 86.5851 42.5 80.9328 42.5C75.276 42.5 70.1455 40.2561 66.3842 36.6107L66.0362 36.2734L65.6882 36.6107C61.9269 40.2561 56.7964 42.5 51.1396 42.5C45.4873 42.5 40.6704 40.5536 36.6101 36.6291L36.2627 36.2933L35.9152 36.6291C31.8549 40.5536 27.038 42.5 21.3857 42.5C9.84995 42.5 0.5 33.1662 0.5 21.6544C0.5 10.1426 9.84995 0.808765 21.3857 0.808765C27.038 0.808765 31.8549 2.75521 35.9152 6.67963Z" fill="white" stroke="#1A1A1A"/>
<path d="M11.102 29C10.75 29 10.442 28.8973 10.178 28.692C9.914 28.472 9.782 28.2007 9.782 27.878V14.722C9.782 14.3993 9.892 14.1353 10.112 13.93C10.332 13.71 10.596 13.6 10.904 13.6H17.108C17.9 13.6 18.626 13.798 19.286 14.194C19.946 14.5753 20.474 15.1107 20.87 15.8C21.2807 16.4747 21.486 17.252 21.486 18.132C21.486 18.7187 21.3687 19.2833 21.134 19.826C20.8993 20.354 20.584 20.8233 20.188 21.234C19.792 21.6447 19.3447 21.9527 18.846 22.158L18.604 21.74C19.0587 21.9013 19.4547 22.136 19.792 22.444C20.1293 22.7373 20.3933 23.0893 20.584 23.5C20.7893 23.896 20.8993 24.3507 20.914 24.864C20.958 25.3187 20.9947 25.7 21.024 26.008C21.068 26.3013 21.1267 26.5433 21.2 26.734C21.2733 26.9247 21.4053 27.0713 21.596 27.174C21.86 27.3207 22.0213 27.5407 22.08 27.834C22.1533 28.1273 22.0947 28.3913 21.904 28.626C21.772 28.802 21.6033 28.9193 21.398 28.978C21.2073 29.022 21.0093 29.0293 20.804 29C20.5987 28.956 20.4227 28.8973 20.276 28.824C20.0413 28.6773 19.7993 28.472 19.55 28.208C19.3153 27.9293 19.1247 27.548 18.978 27.064C18.8313 26.58 18.758 25.942 18.758 25.15C18.758 24.7833 18.6993 24.468 18.582 24.204C18.4647 23.94 18.3033 23.7273 18.098 23.566C17.8927 23.39 17.6507 23.2653 17.372 23.192C17.0933 23.104 16.7853 23.06 16.448 23.06H11.784L12.092 22.62V27.878C12.092 28.2007 12.004 28.472 11.828 28.692C11.652 28.8973 11.41 29 11.102 29ZM11.806 21.146H17.064C17.4013 21.1313 17.724 20.9993 18.032 20.75C18.3547 20.486 18.6113 20.134 18.802 19.694C19.0073 19.254 19.11 18.7553 19.11 18.198C19.11 17.494 18.8973 16.9073 18.472 16.438C18.0613 15.954 17.57 15.712 16.998 15.712H11.85L12.092 15.14V21.608L11.806 21.146ZM26.9786 13.6H34.5906C34.8986 13.6 35.1553 13.7027 35.3606 13.908C35.5806 14.1133 35.6906 14.37 35.6906 14.678C35.6906 14.986 35.5806 15.2353 35.3606 15.426C35.1553 15.6167 34.8986 15.712 34.5906 15.712H27.9466L28.1666 15.338V20.266L27.9686 20.046H33.6006C33.9086 20.046 34.1653 20.1487 34.3706 20.354C34.5906 20.5593 34.7006 20.8233 34.7006 21.146C34.7006 21.454 34.5906 21.7033 34.3706 21.894C34.1653 22.0847 33.9086 22.18 33.6006 22.18H28.0126L28.1666 21.982V27.064L28.0126 26.888H34.5906C34.8986 26.888 35.1553 26.998 35.3606 27.218C35.5806 27.4233 35.6906 27.6653 35.6906 27.944C35.6906 28.252 35.5806 28.5087 35.3606 28.714C35.1553 28.9047 34.8986 29 34.5906 29H26.9786C26.6706 29 26.4066 28.8973 26.1866 28.692C25.9666 28.472 25.8566 28.2007 25.8566 27.878V14.722C25.8566 14.3993 25.9666 14.1353 26.1866 13.93C26.4066 13.71 26.6706 13.6 26.9786 13.6ZM40.691 29C40.339 29 40.053 28.8973 39.833 28.692C39.6276 28.472 39.525 28.2007 39.525 27.878V14.722C39.525 14.3993 39.635 14.1353 39.855 13.93C40.075 13.71 40.339 13.6 40.647 13.6H48.083C48.4056 13.6 48.6696 13.7027 48.875 13.908C49.095 14.1133 49.205 14.37 49.205 14.678C49.205 14.9567 49.095 15.1987 48.875 15.404C48.6696 15.6093 48.4056 15.712 48.083 15.712H41.659L41.813 15.492V20.398L41.681 20.134L47.093 20.134C47.4156 20.134 47.6796 20.2367 47.885 20.442C48.105 20.6473 48.215 20.904 48.215 21.212C48.215 21.4907 48.105 21.7327 47.885 21.938C47.6796 22.1433 47.4156 22.246 47.093 22.246H41.637L41.813 22.07V27.878C41.813 28.2007 41.703 28.472 41.483 28.692C41.263 28.8973 40.999 29 40.691 29ZM54.1435 13.6H61.7555C62.0635 13.6 62.3201 13.7027 62.5255 13.908C62.7455 14.1133 62.8555 14.37 62.8555 14.678C62.8555 14.986 62.7455 15.2353 62.5255 15.426C62.3201 15.6167 62.0635 15.712 61.7555 15.712H55.1115L55.3315 15.338V20.266L55.1335 20.046H60.7655C61.0735 20.046 61.3301 20.1487 61.5355 20.354C61.7555 20.5593 61.8655 20.8233 61.8655 21.146C61.8655 21.454 61.7555 21.7033 61.5355 21.894C61.3301 22.0847 61.0735 22.18 60.7655 22.18H55.1775L55.3315 21.982V27.064L55.1775 26.888H61.7555C62.0635 26.888 62.3201 26.998 62.5255 27.218C62.7455 27.4233 62.8555 27.6653 62.8555 27.944C62.8555 28.252 62.7455 28.5087 62.5255 28.714C62.3201 28.9047 62.0635 29 61.7555 29H54.1435C53.8355 29 53.5715 28.8973 53.3515 28.692C53.1315 28.472 53.0215 28.2007 53.0215 27.878V14.722C53.0215 14.3993 53.1315 14.1353 53.3515 13.93C53.5715 13.71 53.8355 13.6 54.1435 13.6ZM68.0098 29C67.6578 29 67.3498 28.8973 67.0858 28.692C66.8218 28.472 66.6898 28.2007 66.6898 27.878V14.722C66.6898 14.3993 66.7998 14.1353 67.0198 13.93C67.2398 13.71 67.5038 13.6 67.8118 13.6H74.0158C74.8078 13.6 75.5338 13.798 76.1938 14.194C76.8538 14.5753 77.3818 15.1107 77.7778 15.8C78.1885 16.4747 78.3938 17.252 78.3938 18.132C78.3938 18.7187 78.2765 19.2833 78.0418 19.826C77.8071 20.354 77.4918 20.8233 77.0958 21.234C76.6998 21.6447 76.2525 21.9527 75.7538 22.158L75.5118 21.74C75.9665 21.9013 76.3625 22.136 76.6998 22.444C77.0371 22.7373 77.3011 23.0893 77.4918 23.5C77.6971 23.896 77.8071 24.3507 77.8218 24.864C77.8658 25.3187 77.9025 25.7 77.9318 26.008C77.9758 26.3013 78.0345 26.5433 78.1078 26.734C78.1811 26.9247 78.3131 27.0713 78.5038 27.174C78.7678 27.3207 78.9291 27.5407 78.9878 27.834C79.0611 28.1273 79.0025 28.3913 78.8118 28.626C78.6798 28.802 78.5111 28.9193 78.3058 28.978C78.1151 29.022 77.9171 29.0293 77.7118 29C77.5065 28.956 77.3305 28.8973 77.1838 28.824C76.9491 28.6773 76.7071 28.472 76.4578 28.208C76.2231 27.9293 76.0325 27.548 75.8858 27.064C75.7391 26.58 75.6658 25.942 75.6658 25.15C75.6658 24.7833 75.6071 24.468 75.4898 24.204C75.3725 23.94 75.2111 23.7273 75.0058 23.566C74.8005 23.39 74.5585 23.2653 74.2798 23.192C74.0011 23.104 73.6931 23.06 73.3558 23.06H68.6918L68.9998 22.62V27.878C68.9998 28.2007 68.9118 28.472 68.7358 28.692C68.5598 28.8973 68.3178 29 68.0098 29ZM68.7138 21.146H73.9718C74.3091 21.1313 74.6318 20.9993 74.9398 20.75C75.2625 20.486 75.5191 20.134 75.7098 19.694C75.9151 19.254 76.0178 18.7553 76.0178 18.198C76.0178 17.494 75.8051 16.9073 75.3798 16.438C74.9691 15.954 74.4778 15.712 73.9058 15.712H68.7578L68.9998 15.14V21.608L68.7138 21.146ZM83.8864 13.6H91.4984C91.8064 13.6 92.0631 13.7027 92.2684 13.908C92.4884 14.1133 92.5984 14.37 92.5984 14.678C92.5984 14.986 92.4884 15.2353 92.2684 15.426C92.0631 15.6167 91.8064 15.712 91.4984 15.712H84.8544L85.0744 15.338V20.266L84.8764 20.046L90.5084 20.046C90.8164 20.046 91.0731 20.1487 91.2784 20.354C91.4984 20.5593 91.6084 20.8233 91.6084 21.146C91.6084 21.454 91.4984 21.7033 91.2784 21.894C91.0731 22.0847 90.8164 22.18 90.5084 22.18H84.9204L85.0744 21.982V27.064L84.9204 26.888H91.4984C91.8064 26.888 92.0631 26.998 92.2684 27.218C92.4884 27.4233 92.5984 27.6653 92.5984 27.944C92.5984 28.252 92.4884 28.5087 92.2684 28.714C92.0631 28.9047 91.8064 29 91.4984 29H83.8864C83.5784 29 83.3144 28.8973 83.0944 28.692C82.8744 28.472 82.7644 28.2007 82.7644 27.878V14.722C82.7644 14.3993 82.8744 14.1353 83.0944 13.93C83.3144 13.71 83.5784 13.6 83.8864 13.6ZM107.983 13.6C108.276 13.6 108.511 13.7027 108.687 13.908C108.877 14.0987 108.973 14.3407 108.973 14.634V27.878C108.973 28.2007 108.863 28.472 108.643 28.692C108.437 28.8973 108.173 29 107.851 29C107.704 29 107.543 28.9707 107.367 28.912C107.205 28.8533 107.081 28.7727 106.993 28.67L97.9508 16.944L98.4568 16.658V27.988C98.4568 28.2667 98.3614 28.5087 98.1708 28.714C97.9801 28.9047 97.7381 29 97.4448 29C97.1368 29 96.8874 28.9047 96.6968 28.714C96.5208 28.5087 96.4328 28.2667 96.4328 27.988V14.722C96.4328 14.3847 96.5428 14.1133 96.7628 13.908C96.9828 13.7027 97.2468 13.6 97.5548 13.6C97.7161 13.6 97.8848 13.6367 98.0608 13.71C98.2514 13.7687 98.3908 13.864 98.4788 13.996L107.301 25.48L106.971 25.788V14.634C106.971 14.3407 107.066 14.0987 107.257 13.908C107.447 13.7027 107.689 13.6 107.983 13.6ZM124.602 14.48C124.924 14.6413 125.108 14.8907 125.152 15.228C125.21 15.5653 125.13 15.8733 124.91 16.152C124.748 16.372 124.536 16.4967 124.272 16.526C124.022 16.5553 123.773 16.504 123.524 16.372C123.098 16.152 122.651 15.976 122.182 15.844C121.712 15.712 121.214 15.646 120.686 15.646C119.85 15.646 119.094 15.7853 118.42 16.064C117.76 16.328 117.188 16.7167 116.704 17.23C116.22 17.7287 115.846 18.3227 115.582 19.012C115.332 19.7013 115.208 20.464 115.208 21.3C115.208 22.224 115.347 23.0453 115.626 23.764C115.904 24.468 116.286 25.0693 116.77 25.568C117.268 26.052 117.848 26.4187 118.508 26.668C119.182 26.9027 119.908 27.02 120.686 27.02C121.184 27.02 121.668 26.9613 122.138 26.844C122.622 26.7267 123.076 26.5507 123.502 26.316C123.766 26.184 124.022 26.14 124.272 26.184C124.536 26.2133 124.748 26.338 124.91 26.558C125.159 26.866 125.247 27.1813 125.174 27.504C125.115 27.812 124.932 28.0467 124.624 28.208C124.257 28.4133 123.854 28.5893 123.414 28.736C122.974 28.8827 122.526 29 122.072 29.088C121.617 29.176 121.155 29.22 120.686 29.22C119.63 29.22 118.632 29.044 117.694 28.692C116.755 28.34 115.919 27.8267 115.186 27.152C114.452 26.4773 113.873 25.6487 113.448 24.666C113.037 23.6833 112.832 22.5613 112.832 21.3C112.832 20.1707 113.022 19.1293 113.404 18.176C113.8 17.208 114.35 16.3793 115.054 15.69C115.772 14.986 116.608 14.4433 117.562 14.062C118.515 13.666 119.556 13.468 120.686 13.468C121.39 13.468 122.072 13.556 122.732 13.732C123.406 13.908 124.03 14.1573 124.602 14.48ZM129.876 13.6H137.488C137.796 13.6 138.053 13.7027 138.258 13.908C138.478 14.1133 138.588 14.37 138.588 14.678C138.588 14.986 138.478 15.2353 138.258 15.426C138.053 15.6167 137.796 15.712 137.488 15.712H130.844L131.064 15.338V20.266L130.866 20.046H136.498C136.806 20.046 137.063 20.1487 137.268 20.354C137.488 20.5593 137.598 20.8233 137.598 21.146C137.598 21.454 137.488 21.7033 137.268 21.894C137.063 22.0847 136.806 22.18 136.498 22.18H130.91L131.064 21.982V27.064L130.91 26.888H137.488C137.796 26.888 138.053 26.998 138.258 27.218C138.478 27.4233 138.588 27.6653 138.588 27.944C138.588 28.252 138.478 28.5087 138.258 28.714C138.053 28.9047 137.796 29 137.488 29H129.876C129.568 29 129.304 28.8973 129.084 28.692C128.864 28.472 128.754 28.2007 128.754 27.878V14.722C128.754 14.3993 128.864 14.1353 129.084 13.93C129.304 13.71 129.568 13.6 129.876 13.6ZM156.399 13.6C157.749 13.6 158.768 13.93 159.457 14.59C160.161 15.25 160.513 16.2107 160.513 17.472C160.513 18.132 160.352 18.7333 160.029 19.276C159.721 19.804 159.259 20.222 158.643 20.53C158.042 20.838 157.287 20.9993 156.377 21.014L156.421 20.2C156.905 20.2 157.426 20.266 157.983 20.398C158.555 20.53 159.091 20.7573 159.589 21.08C160.088 21.4027 160.499 21.8427 160.821 22.4C161.144 22.9427 161.305 23.6247 161.305 24.446C161.305 25.3407 161.159 26.0887 160.865 26.69C160.572 27.2767 160.183 27.7387 159.699 28.076C159.215 28.4133 158.68 28.6553 158.093 28.802C157.521 28.934 156.957 29 156.399 29H150.767C150.459 29 150.195 28.8973 149.975 28.692C149.755 28.472 149.645 28.2007 149.645 27.878V14.722C149.645 14.3993 149.755 14.1353 149.975 13.93C150.195 13.71 150.459 13.6 150.767 13.6H156.399ZM156.091 15.756H151.757L152.021 15.404V20.134L151.779 19.892H156.135C156.663 19.8773 157.125 19.7013 157.521 19.364C157.932 19.012 158.137 18.4987 158.137 17.824C158.137 17.1347 157.954 16.6213 157.587 16.284C157.221 15.932 156.722 15.756 156.091 15.756ZM156.245 22.048H151.867L152.021 21.894V27.086L151.845 26.888H156.377C157.14 26.888 157.756 26.69 158.225 26.294C158.695 25.8833 158.929 25.2673 158.929 24.446C158.929 23.7567 158.79 23.2433 158.511 22.906C158.233 22.5687 157.888 22.3413 157.477 22.224C157.067 22.1067 156.656 22.048 156.245 22.048ZM179.176 21.3C179.176 22.4147 178.992 23.456 178.626 24.424C178.259 25.3773 177.738 26.2133 177.064 26.932C176.404 27.6507 175.619 28.2153 174.71 28.626C173.8 29.022 172.803 29.22 171.718 29.22C170.647 29.22 169.657 29.022 168.748 28.626C167.838 28.2153 167.046 27.6507 166.372 26.932C165.712 26.2133 165.198 25.3773 164.832 24.424C164.48 23.456 164.304 22.4147 164.304 21.3C164.304 20.1853 164.48 19.1513 164.832 18.198C165.198 17.23 165.712 16.3867 166.372 15.668C167.046 14.9493 167.838 14.392 168.748 13.996C169.657 13.5853 170.647 13.38 171.718 13.38C172.803 13.38 173.8 13.5853 174.71 13.996C175.619 14.392 176.404 14.9493 177.064 15.668C177.738 16.3867 178.259 17.23 178.626 18.198C178.992 19.1513 179.176 20.1853 179.176 21.3ZM176.8 21.3C176.8 20.2147 176.58 19.2393 176.14 18.374C175.714 17.5087 175.12 16.8267 174.358 16.328C173.595 15.8293 172.715 15.58 171.718 15.58C170.735 15.58 169.862 15.8293 169.1 16.328C168.337 16.8267 167.743 17.5087 167.318 18.374C166.892 19.2247 166.68 20.2 166.68 21.3C166.68 22.3853 166.892 23.3607 167.318 24.226C167.743 25.0913 168.337 25.7733 169.1 26.272C169.862 26.7707 170.735 27.02 171.718 27.02C172.715 27.02 173.595 26.7707 174.358 26.272C175.12 25.7733 175.714 25.0913 176.14 24.226C176.58 23.3607 176.8 22.3853 176.8 21.3ZM197.012 21.3C197.012 22.4147 196.829 23.456 196.462 24.424C196.095 25.3773 195.575 26.2133 194.9 26.932C194.24 27.6507 193.455 28.2153 192.546 28.626C191.637 29.022 190.639 29.22 189.554 29.22C188.483 29.22 187.493 29.022 186.584 28.626C185.675 28.2153 184.883 27.6507 184.208 26.932C183.548 26.2133 183.035 25.3773 182.668 24.424C182.316 23.456 182.14 22.4147 182.14 21.3C182.14 20.1853 182.316 19.1513 182.668 18.198C183.035 17.23 183.548 16.3867 184.208 15.668C184.883 14.9493 185.675 14.392 186.584 13.996C187.493 13.5853 188.483 13.38 189.554 13.38C190.639 13.38 191.637 13.5853 192.546 13.996C193.455 14.392 194.24 14.9493 194.9 15.668C195.575 16.3867 196.095 17.23 196.462 18.198C196.829 19.1513 197.012 20.1853 197.012 21.3ZM194.636 21.3C194.636 20.2147 194.416 19.2393 193.976 18.374C193.551 17.5087 192.957 16.8267 192.194 16.328C191.431 15.8293 190.551 15.58 189.554 15.58C188.571 15.58 187.699 15.8293 186.936 16.328C186.173 16.8267 185.579 17.5087 185.154 18.374C184.729 19.2247 184.516 20.2 184.516 21.3C184.516 22.3853 184.729 23.3607 185.154 24.226C185.579 25.0913 186.173 25.7733 186.936 26.272C187.699 26.7707 188.571 27.02 189.554 27.02C190.551 27.02 191.431 26.7707 192.194 26.272C192.957 25.7733 193.551 25.0913 193.976 24.226C194.416 23.3607 194.636 22.3853 194.636 21.3ZM211.548 29.022C211.211 29.022 210.94 28.8827 210.734 28.604L205.256 21.542L206.95 19.826L212.538 27.108C212.714 27.3427 212.802 27.5993 212.802 27.878C212.802 28.23 212.67 28.5087 212.406 28.714C212.142 28.9193 211.856 29.022 211.548 29.022ZM211.658 13.534C211.952 13.534 212.194 13.6513 212.384 13.886C212.575 14.1207 212.67 14.3627 212.67 14.612C212.67 14.876 212.56 15.118 212.34 15.338L202.858 24.336L202.726 21.74L210.778 13.952C211.042 13.6733 211.336 13.534 211.658 13.534ZM201.956 29C201.619 29 201.34 28.8973 201.12 28.692C200.915 28.472 200.812 28.2007 200.812 27.878V14.722C200.812 14.3993 200.922 14.1353 201.142 13.93C201.362 13.71 201.648 13.6 202 13.6C202.338 13.6 202.609 13.71 202.814 13.93C203.02 14.1353 203.122 14.3993 203.122 14.722V27.878C203.108 28.2007 202.998 28.472 202.792 28.692C202.587 28.8973 202.308 29 201.956 29Z" fill="#FC8288"/>
</svg>
