<svg width="453" height="41" viewBox="0 0 453 41" fill="none" xmlns="http://www.w3.org/2000/svg">
<path d="M1 20.5C16.0333 -5.5 31.0667 -5.5 46.1 20.5C61.1333 46.5 76.1667 46.5 91.2 20.5C106.233 -5.5 121.267 -5.5 136.3 20.5C151.333 46.5 166.367 46.5 181.4 20.5C196.433 -5.5 211.467 -5.5 226.5 20.5C241.533 46.5 256.567 46.5 271.6 20.5C286.633 -5.5 301.667 -5.5 316.7 20.5C331.733 46.5 346.767 46.5 361.8 20.5C376.833 -5.5 391.867 -5.5 406.9 20.5C421.933 46.5 436.967 46.5 452 20.5" stroke="#FC8288" stroke-width="2"/>
</svg>
