<svg width="1921" height="1495" viewBox="0 0 1921 1495" fill="none" xmlns="http://www.w3.org/2000/svg">
<path d="M0.640528 315.431C0.640528 315.431 -13.8629 251.084 95.1577 251.084C204.178 251.084 218.181 353.578 325.201 353.249C417.957 352.963 467.526 176.897 620.256 170.991C748.467 166.033 826.3 284.497 954.319 273.662C1096.06 261.665 1187.89 80.9435 1329.89 79.0227C1443.09 77.4914 1487.21 142.3 1600.44 142.3C1721.46 142.3 1756.89 3.38728e-07 1856.49 0C1870.99 -4.93244e-08 1921 8.93671 1921 8.93671V1189.09C1921 1189.09 1921 1215.9 1856.49 1215.9C1791.98 1215.9 1783.98 1163.23 1632.45 1163.23C1510.49 1163.23 1457.5 1325.89 1329.89 1325.89C1202.28 1325.89 1073.48 1248.36 998.192 1250.27C872.681 1253.46 828.584 1470.94 650.763 1470.94C476.731 1470.94 476.23 1382.26 347.706 1382.26C219.182 1382.26 165.879 1495 95.1577 1495C53.6503 1495 0.640528 1470.94 0.640528 1470.94V315.431Z" fill="#FEDFE1"/>
</svg>
