<svg width="390" height="1717" viewBox="0 0 390 1717" fill="none" xmlns="http://www.w3.org/2000/svg">
<path d="M391 20.9657C391 20.9657 358.452 0 322.398 0C274.006 0 275.043 98.4221 216.24 98.4221C161.222 98.4221 145.27 51.2485 90.268 53.4925C42.078 55.4586 23.3671 111.85 -7 151.671V1716.27C0.920159 1722.68 33.4321 1684.63 60.5087 1687.15C89.1948 1689.83 118.347 1716.27 137.123 1716.27C199.126 1716.27 186.196 1647.55 237.271 1647.55C288.347 1647.55 297.361 1674.92 334.416 1674.92C371.471 1674.92 391 1608.37 391 1608.37V20.9657Z" fill="#FEDFE1"/>
</svg>
