<svg width="820" height="1338" viewBox="0 0 820 1338" fill="none" xmlns="http://www.w3.org/2000/svg">
<path d="M771.91 0C782.721 -4.62561e-08 820 8.38078 820 8.38078V1115.12C820 1115.12 820 1140.26 771.91 1140.26C723.82 1140.26 717.856 1090.87 604.9 1090.87C513.985 1090.87 474.486 1243.41 379.36 1243.41C284.235 1243.41 188.219 1170.7 132.097 1172.5C65.6152 1174.62 29.7758 1278.21 -32.9587 1338V205.235C8.1011 232.885 48.4076 262.067 99.3922 256.638C205.052 245.388 273.506 75.9082 379.36 74.1069C463.744 72.6709 496.632 133.448 581.04 133.448C671.256 133.448 697.667 3.17657e-07 771.91 0Z" fill="#FEDFE1"/>
</svg>
