<svg width="581" height="1717" viewBox="0 0 581 1717" fill="none" xmlns="http://www.w3.org/2000/svg">
<path d="M408.398 0C360.006 0 361.043 98.4221 302.24 98.4221C247.222 98.4221 233.502 30.256 178.5 32.5C123.498 34.744 136 88.5 85.5 88.5C50.6718 86.4836 15.4123 46.789 0 67V249.459V347.247V542.822V933.972V1716.27C7.92016 1722.68 66.2187 1676.12 113 1676.5C158.723 1676.87 151 1716.27 188 1716.27C225 1716.27 272.924 1639 324 1639C375.076 1639 361 1698.5 410 1693C433.972 1690.31 482 1609.5 506.5 1639C531 1668.5 581 1608.37 581 1608.37V20.9657C581 20.9657 553.5 55.5 501.5 55.5C437.5 55.5 447 0 408.398 0Z" fill="#FEDFE1"/>
</svg>
